<svg width="120" height="40" viewBox="0 0 120 40" fill="none" xmlns="http://www.w3.org/2000/svg">
<rect x="0.5" y="0.5" width="119" height="39" rx="6.5" fill="white"/>
<path d="M24.769 19.8636C24.7797 19.0289 25.0014 18.2105 25.4135 17.4846C25.8255 16.7586 26.4145 16.1487 27.1256 15.7115C26.6738 15.0663 26.0779 14.5354 25.385 14.1608C24.6922 13.7863 23.9216 13.5785 23.1344 13.5538C21.4552 13.3776 19.8272 14.5587 18.9715 14.5587C18.0992 14.5587 16.7817 13.5713 15.363 13.6005C14.4453 13.6302 13.551 13.897 12.7671 14.3751C11.9832 14.8531 11.3365 15.5261 10.8901 16.3284C8.95607 19.6768 10.3987 24.5979 12.2513 27.3045C13.1782 28.6298 14.2615 30.1103 15.6789 30.0578C17.066 30.0002 17.584 29.1733 19.2583 29.1733C20.9171 29.1733 21.4031 30.0578 22.8493 30.0244C24.3377 30.0002 25.2754 28.6931 26.1698 27.3552C26.8358 26.4109 27.3483 25.3672 27.6882 24.2627C26.8235 23.897 26.0856 23.2848 25.5665 22.5025C25.0474 21.7202 24.77 20.8024 24.769 19.8636Z" fill="#202020"/>
<path d="M22.0376 11.7738C22.8491 10.7996 23.2489 9.54744 23.1521 8.2832C21.9123 8.41342 20.767 9.00598 19.9445 9.94281C19.5424 10.4005 19.2344 10.9329 19.0381 11.5097C18.8419 12.0865 18.7612 12.6962 18.8008 13.3042C19.4209 13.3106 20.0344 13.1762 20.5951 12.9111C21.1558 12.646 21.649 12.2571 22.0376 11.7738Z" fill="#202020"/>
<path d="M42.3022 26.7027H37.5688L36.4321 30.0591H34.4272L38.9106 17.6411H40.9936L45.477 30.0591H43.438L42.3022 26.7027ZM38.0591 25.1538H41.8111L39.9615 19.7066H39.9097L38.0591 25.1538Z" fill="#202020"/>
<path d="M55.1597 25.5327C55.1597 28.3462 53.6538 30.1538 51.3814 30.1538C50.8057 30.1839 50.2332 30.0513 49.7294 29.7711C49.2256 29.491 48.8109 29.0747 48.5327 28.5698H48.4897V33.0542H46.6313V21.0053H48.4302V22.5112H48.4644C48.7553 22.0087 49.1771 21.5945 49.6847 21.3127C50.1923 21.0308 50.7669 20.8919 51.3472 20.9106C53.645 20.9106 55.1597 22.727 55.1597 25.5327ZM53.2495 25.5327C53.2495 23.6997 52.3023 22.4946 50.857 22.4946C49.437 22.4946 48.482 23.7251 48.482 25.5327C48.482 27.3569 49.437 28.5786 50.857 28.5786C52.3023 28.5786 53.2495 27.3823 53.2495 25.5327Z" fill="#202020"/>
<path d="M65.1245 25.5327C65.1245 28.3462 63.6187 30.1538 61.3462 30.1538C60.7706 30.1839 60.1981 30.0513 59.6943 29.7711C59.1905 29.491 58.7758 29.0747 58.4976 28.5698H58.4546V33.0541H56.5962V21.0053H58.395V22.5112H58.4292C58.7201 22.0087 59.1419 21.5945 59.6495 21.3127C60.1571 21.0308 60.7317 20.8919 61.312 20.9106C63.6099 20.9106 65.1245 22.727 65.1245 25.5327ZM63.2144 25.5327C63.2144 23.6997 62.2671 22.4946 60.8218 22.4946C59.4019 22.4946 58.4468 23.7251 58.4468 25.5327C58.4468 27.3569 59.4019 28.5786 60.8218 28.5786C62.2671 28.5786 63.2144 27.3823 63.2144 25.5327Z" fill="#202020"/>
<path d="M71.7105 26.5992C71.8482 27.8306 73.0445 28.6392 74.6792 28.6392C76.2456 28.6392 77.3726 27.8306 77.3726 26.7202C77.3726 25.7564 76.6929 25.1792 75.0835 24.7837L73.4742 24.396C71.1939 23.8452 70.1353 22.7788 70.1353 21.0483C70.1353 18.9058 72.0025 17.4341 74.6538 17.4341C77.2778 17.4341 79.0767 18.9058 79.1372 21.0483H77.2612C77.1489 19.8091 76.1245 19.061 74.6274 19.061C73.1304 19.061 72.106 19.8179 72.106 20.9194C72.106 21.7974 72.7603 22.314 74.3608 22.7094L75.729 23.0454C78.2769 23.6479 79.3355 24.6714 79.3355 26.4878C79.3355 28.811 77.4849 30.2661 74.5415 30.2661C71.7876 30.2661 69.9282 28.8452 69.8081 26.5991L71.7105 26.5992Z" fill="#202020"/>
<path d="M83.3462 18.8628V21.0054H85.0679V22.4771H83.3462V27.4683C83.3462 28.2437 83.6909 28.605 84.4477 28.605C84.6521 28.6014 84.8562 28.5871 85.0591 28.562V30.0249C84.7188 30.0885 84.3729 30.1172 84.0268 30.1108C82.1938 30.1108 81.479 29.4223 81.479 27.6665V22.4771H80.1626V21.0054H81.479V18.8628H83.3462Z" fill="#202020"/>
<path d="M86.0649 25.5327C86.0649 22.6841 87.7427 20.894 90.3589 20.894C92.9839 20.894 94.6538 22.684 94.6538 25.5327C94.6538 28.3892 92.9927 30.1714 90.3589 30.1714C87.726 30.1714 86.0649 28.3892 86.0649 25.5327ZM92.7602 25.5327C92.7602 23.5786 91.8647 22.4253 90.3589 22.4253C88.853 22.4253 87.9585 23.5874 87.9585 25.5327C87.9585 27.4946 88.853 28.6392 90.3589 28.6392C91.8647 28.6392 92.7602 27.4946 92.7602 25.5327Z" fill="#202020"/>
<path d="M96.186 21.0055H97.9585V22.5465H98.0015C98.1214 22.0652 98.4034 21.6399 98.8 21.342C99.1966 21.0441 99.6836 20.8918 100.179 20.9108C100.393 20.91 100.607 20.9333 100.816 20.9801V22.7184C100.546 22.6358 100.264 22.5978 99.981 22.6061C99.711 22.5951 99.4418 22.6427 99.192 22.7456C98.9421 22.8485 98.7175 23.0042 98.5335 23.2021C98.3496 23.4 98.2106 23.6354 98.1262 23.892C98.0417 24.1487 98.0139 24.4206 98.0444 24.6891V30.0592H96.186L96.186 21.0055Z" fill="#202020"/>
<path d="M109.384 27.3999C109.134 29.0435 107.534 30.1714 105.486 30.1714C102.852 30.1714 101.217 28.4067 101.217 25.5757C101.217 22.7358 102.861 20.894 105.408 20.894C107.913 20.894 109.488 22.6147 109.488 25.3599V25.9966H103.093V26.1089C103.064 26.4421 103.105 26.7778 103.216 27.0936C103.326 27.4094 103.502 27.6982 103.732 27.9408C103.963 28.1833 104.242 28.3741 104.552 28.5004C104.861 28.6267 105.195 28.6856 105.529 28.6733C105.968 28.7145 106.409 28.6128 106.785 28.3833C107.162 28.1539 107.455 27.809 107.62 27.3999L109.384 27.3999ZM103.102 24.6978H107.628C107.645 24.3982 107.6 24.0983 107.495 23.8171C107.39 23.5359 107.229 23.2794 107.02 23.0636C106.812 22.8479 106.561 22.6775 106.283 22.5633C106.006 22.4491 105.708 22.3935 105.408 22.3999C105.105 22.3981 104.805 22.4562 104.525 22.571C104.245 22.6857 103.99 22.8548 103.776 23.0684C103.562 23.2821 103.392 23.536 103.276 23.8157C103.16 24.0953 103.101 24.3951 103.102 24.6978Z" fill="#202020"/>
<path d="M37.8262 8.29388C38.2158 8.26592 38.6067 8.32478 38.9709 8.46621C39.335 8.60765 39.6632 8.82813 39.9317 9.11175C40.2003 9.39538 40.4026 9.73508 40.524 10.1063C40.6454 10.4776 40.6829 10.8712 40.6338 11.2587C40.6338 13.165 39.6035 14.2607 37.8262 14.2607H35.6709V8.29388H37.8262ZM36.5976 13.4169H37.7226C38.0011 13.4335 38.2797 13.3879 38.5382 13.2833C38.7967 13.1786 39.0287 13.0177 39.2172 12.8121C39.4057 12.6066 39.546 12.3616 39.6278 12.0949C39.7097 11.8283 39.7311 11.5468 39.6904 11.2709C39.7281 10.996 39.7046 10.7163 39.6215 10.4516C39.5383 10.1869 39.3977 9.94394 39.2096 9.74001C39.0216 9.53608 38.7907 9.37628 38.5337 9.27204C38.2766 9.1678 37.9996 9.12172 37.7226 9.13709H36.5976V13.4169Z" fill="#202020"/>
<path d="M41.6805 12.0073C41.6521 11.7114 41.686 11.4128 41.7798 11.1307C41.8737 10.8487 42.0254 10.5893 42.2254 10.3693C42.4253 10.1493 42.669 9.97358 42.9409 9.8533C43.2127 9.73303 43.5067 9.6709 43.804 9.6709C44.1013 9.6709 44.3952 9.73303 44.6671 9.8533C44.939 9.97358 45.1827 10.1493 45.3826 10.3693C45.5825 10.5893 45.7343 10.8487 45.8281 11.1307C45.922 11.4128 45.9558 11.7114 45.9275 12.0073C45.9564 12.3035 45.9229 12.6025 45.8293 12.885C45.7357 13.1675 45.5841 13.4273 45.3841 13.6478C45.1841 13.8682 44.9402 14.0443 44.6681 14.1648C44.3959 14.2854 44.1016 14.3476 43.804 14.3476C43.5064 14.3476 43.212 14.2854 42.9399 14.1648C42.6678 14.0443 42.4239 13.8682 42.2239 13.6478C42.0239 13.4273 41.8722 13.1675 41.7786 12.885C41.6851 12.6025 41.6516 12.3035 41.6805 12.0073ZM45.0135 12.0073C45.0135 11.0312 44.575 10.4604 43.8055 10.4604C43.033 10.4604 42.5985 11.0312 42.5985 12.0073C42.5985 12.9912 43.033 13.5576 43.8055 13.5576C44.575 13.5576 45.0135 12.9873 45.0135 12.0073Z" fill="#202020"/>
<path d="M51.5732 14.2607H50.6514L49.7207 10.9443H49.6504L48.7236 14.2607H47.8105L46.5693 9.75781H47.4707L48.2773 13.1938H48.3438L49.2695 9.75781H50.1221L51.0479 13.1938H51.1182L51.9209 9.75781H52.8096L51.5732 14.2607Z" fill="#202020"/>
<path d="M53.8535 9.75786H54.709V10.4732H54.7754C54.888 10.2163 55.0781 10.0009 55.3189 9.85709C55.5598 9.71328 55.8395 9.64821 56.1191 9.67094C56.3382 9.65446 56.5582 9.6875 56.7628 9.7676C56.9674 9.84769 57.1514 9.9728 57.3011 10.1336C57.4508 10.2945 57.5623 10.4869 57.6275 10.6968C57.6927 10.9066 57.7099 11.1284 57.6777 11.3457V14.2607H56.7891V11.5689C56.7891 10.8453 56.4746 10.4854 55.8174 10.4854C55.6686 10.4785 55.5201 10.5038 55.3821 10.5596C55.244 10.6154 55.1197 10.7005 55.0175 10.8089C54.9154 10.9172 54.8379 11.0464 54.7904 11.1876C54.7429 11.3287 54.7264 11.4784 54.7422 11.6265V14.2608H53.8535L53.8535 9.75786Z" fill="#202020"/>
<path d="M59.0938 8H59.9824V14.2607H59.0938V8Z" fill="#202020"/>
<path d="M61.2175 12.0074C61.1893 11.7114 61.2231 11.4128 61.317 11.1308C61.4109 10.8487 61.5626 10.5893 61.7626 10.3693C61.9626 10.1494 62.2063 9.97358 62.4782 9.85331C62.75 9.73303 63.044 9.6709 63.3413 9.6709C63.6386 9.6709 63.9326 9.73303 64.2045 9.85331C64.4764 9.97358 64.7201 10.1494 64.92 10.3693C65.12 10.5893 65.2718 10.8487 65.3656 11.1308C65.4595 11.4128 65.4934 11.7114 65.4651 12.0074C65.4939 12.3036 65.4604 12.6026 65.3668 12.8851C65.2732 13.1676 65.1215 13.4274 64.9215 13.6478C64.7215 13.8683 64.4776 14.0444 64.2054 14.1649C63.9333 14.2854 63.639 14.3477 63.3413 14.3477C63.0437 14.3477 62.7493 14.2854 62.4772 14.1649C62.2051 14.0444 61.9612 13.8683 61.7612 13.6478C61.5611 13.4274 61.4095 13.1676 61.3158 12.8851C61.2222 12.6026 61.1887 12.3036 61.2175 12.0074ZM64.5505 12.0074C64.5505 11.0313 64.1121 10.4605 63.3425 10.4605C62.5701 10.4605 62.1355 11.0313 62.1355 12.0074C62.1355 12.9913 62.5701 13.5577 63.3425 13.5577C64.1121 13.5577 64.5505 12.9873 64.5505 12.0074Z" fill="#202020"/>
<path d="M66.4009 12.9873C66.4009 12.1767 67.0044 11.7095 68.0757 11.6431L69.2954 11.5727V11.1841C69.2954 10.7085 68.981 10.4399 68.3735 10.4399C67.8774 10.4399 67.5337 10.6221 67.4351 10.9404H66.5747C66.6655 10.167 67.3931 9.6709 68.4146 9.6709C69.5435 9.6709 70.1802 10.2329 70.1802 11.1841V14.2607H69.3247V13.6279H69.2544C69.1117 13.8549 68.9113 14.04 68.6737 14.1642C68.436 14.2884 68.1697 14.3473 67.9019 14.3349C67.7128 14.3546 67.5218 14.3344 67.341 14.2757C67.1602 14.217 66.9938 14.1211 66.8524 13.9941C66.711 13.8672 66.5977 13.712 66.52 13.5386C66.4422 13.3651 66.4016 13.1774 66.4009 12.9873ZM69.2954 12.6025V12.2261L68.1958 12.2964C67.5757 12.3379 67.2944 12.5488 67.2944 12.9458C67.2944 13.3511 67.646 13.5869 68.1294 13.5869C68.2711 13.6012 68.4142 13.5869 68.5502 13.5448C68.6862 13.5028 68.8123 13.4337 68.9211 13.3419C69.0299 13.2501 69.1191 13.1373 69.1834 13.0102C69.2477 12.8832 69.2858 12.7446 69.2954 12.6025Z" fill="#202020"/>
<path d="M71.3481 12.0073C71.3481 10.5845 72.0796 9.68312 73.2173 9.68312C73.4987 9.67015 73.778 9.73756 74.0225 9.87745C74.267 10.0173 74.4667 10.224 74.5981 10.4731H74.6646V8H75.5532V14.2607H74.7017V13.5493H74.6314C74.4897 13.7968 74.2831 14.0008 74.0339 14.1393C73.7846 14.2778 73.5022 14.3455 73.2173 14.3349C72.0718 14.335 71.3481 13.4336 71.3481 12.0073ZM72.2661 12.0073C72.2661 12.9624 72.7163 13.5371 73.4693 13.5371C74.2183 13.5371 74.6812 12.9541 74.6812 12.0112C74.6812 11.0728 74.2134 10.4815 73.4693 10.4815C72.7212 10.4815 72.2661 11.0601 72.2661 12.0073Z" fill="#202020"/>
<path d="M79.2298 12.0073C79.2015 11.7114 79.2353 11.4128 79.3292 11.1307C79.423 10.8487 79.5748 10.5893 79.7747 10.3693C79.9746 10.1493 80.2183 9.97358 80.4902 9.8533C80.762 9.73303 81.056 9.6709 81.3533 9.6709C81.6506 9.6709 81.9446 9.73303 82.2164 9.8533C82.4883 9.97358 82.732 10.1493 82.9319 10.3693C83.1319 10.5893 83.2836 10.8487 83.3775 11.1307C83.4713 11.4128 83.5052 11.7114 83.4768 12.0073C83.5057 12.3035 83.4722 12.6025 83.3786 12.885C83.2851 13.1675 83.1334 13.4273 82.9334 13.6478C82.7334 13.8682 82.4895 14.0443 82.2174 14.1648C81.9453 14.2854 81.6509 14.3476 81.3533 14.3476C81.0557 14.3476 80.7613 14.2854 80.4892 14.1648C80.2171 14.0443 79.9732 13.8682 79.7732 13.6478C79.5732 13.4273 79.4216 13.1675 79.328 12.885C79.2344 12.6025 79.2009 12.3035 79.2298 12.0073ZM82.5628 12.0073C82.5628 11.0312 82.1243 10.4604 81.3548 10.4604C80.5823 10.4604 80.1478 11.0312 80.1478 12.0073C80.1478 12.9912 80.5823 13.5576 81.3548 13.5576C82.1243 13.5576 82.5628 12.9873 82.5628 12.0073Z" fill="#202020"/>
<path d="M84.6694 9.75786H85.5249V10.4732H85.5913C85.704 10.2163 85.894 10.0009 86.1348 9.85709C86.3757 9.71328 86.6555 9.64821 86.9351 9.67094C87.1542 9.65446 87.3742 9.6875 87.5788 9.7676C87.7834 9.84769 87.9673 9.9728 88.117 10.1336C88.2667 10.2945 88.3783 10.4869 88.4435 10.6968C88.5087 10.9066 88.5258 11.1284 88.4937 11.3457V14.2607H87.605V11.5689C87.605 10.8453 87.2905 10.4854 86.6333 10.4854C86.4846 10.4785 86.336 10.5038 86.198 10.5596C86.0599 10.6154 85.9356 10.7005 85.8335 10.8089C85.7313 10.9172 85.6539 11.0464 85.6063 11.1876C85.5588 11.3287 85.5423 11.4784 85.5581 11.6265V14.2608H84.6694V9.75786Z" fill="#202020"/>
<path d="M93.5151 8.63672V9.77832H94.4907V10.5269H93.5151V12.8423C93.5151 13.314 93.7095 13.5205 94.1519 13.5205C94.2651 13.5201 94.3783 13.5133 94.4907 13.5V14.2402C94.3311 14.2688 94.1694 14.284 94.0073 14.2856C93.019 14.2856 92.6255 13.938 92.6255 13.0698V10.5268H91.9106V9.77828H92.6255V8.63672H93.5151Z" fill="#202020"/>
<path d="M95.7046 8H96.5854V10.4815H96.6558C96.7739 10.2221 96.9691 10.0055 97.2148 9.86119C97.4605 9.71684 97.7447 9.65176 98.0288 9.67481C98.2467 9.66295 98.4646 9.69934 98.6669 9.78138C98.8692 9.86342 99.0508 9.9891 99.199 10.1494C99.3471 10.3098 99.458 10.5008 99.5238 10.709C99.5896 10.9171 99.6086 11.1372 99.5795 11.3535V14.2607H98.69V11.5728C98.69 10.8535 98.355 10.4893 97.7271 10.4893C97.5743 10.4767 97.4207 10.4977 97.2769 10.5508C97.1332 10.6038 97.0027 10.6877 96.8947 10.7964C96.7867 10.9051 96.7038 11.0362 96.6517 11.1803C96.5997 11.3244 96.5797 11.4782 96.5933 11.6308V14.2607H95.7046L95.7046 8Z" fill="#202020"/>
<path d="M104.761 13.045C104.641 13.4565 104.379 13.8125 104.022 14.0507C103.666 14.2888 103.237 14.394 102.81 14.3477C102.514 14.3556 102.219 14.2987 101.946 14.1812C101.674 14.0637 101.43 13.8883 101.232 13.6671C101.034 13.446 100.887 13.1844 100.8 12.9006C100.713 12.6168 100.69 12.3175 100.73 12.0235C100.691 11.7286 100.715 11.4287 100.801 11.144C100.888 10.8594 101.035 10.5966 101.231 10.3735C101.428 10.1504 101.671 9.97227 101.943 9.85106C102.214 9.72985 102.509 9.66844 102.806 9.67097C104.059 9.67097 104.815 10.527 104.815 11.941V12.2511H101.635V12.3009C101.621 12.4661 101.642 12.6324 101.696 12.7892C101.751 12.9459 101.837 13.0896 101.95 13.2111C102.063 13.3326 102.2 13.4291 102.352 13.4945C102.504 13.5599 102.669 13.5927 102.835 13.5909C103.047 13.6164 103.263 13.5781 103.453 13.4809C103.644 13.3837 103.802 13.2319 103.906 13.045L104.761 13.045ZM101.635 11.5938H103.91C103.921 11.4427 103.9 11.2909 103.85 11.1482C103.799 11.0055 103.718 10.875 103.614 10.7651C103.51 10.6553 103.383 10.5685 103.243 10.5103C103.103 10.4521 102.953 10.4239 102.801 10.4273C102.648 10.4254 102.495 10.4543 102.353 10.5122C102.21 10.5701 102.081 10.656 101.972 10.7647C101.864 10.8734 101.778 11.0028 101.72 11.1452C101.662 11.2876 101.633 11.4401 101.635 11.5938Z" fill="#202020"/>
<rect x="0.5" y="0.5" width="119" height="39" rx="6.5" stroke="#202020"/>
</svg>
