<svg width="135" height="40" viewBox="0 0 135 40" fill="none" xmlns="http://www.w3.org/2000/svg">
<rect x="0.5" y="0.5" width="134" height="39" rx="6.5" fill="white"/>
<path d="M45.9796 12.6101C45.6496 12.7301 45.0096 12.9201 44.2496 12.9201C43.3996 12.9201 42.6896 12.7001 42.1396 12.1701C41.6496 11.7001 41.3496 10.9501 41.3496 10.0701C41.3496 8.39015 42.5096 7.15015 44.4096 7.15015C45.0596 7.15015 45.5696 7.29015 45.8196 7.41015L45.6396 8.00015C45.3396 7.87015 44.9596 7.76015 44.3896 7.76015C43.0196 7.76015 42.1196 8.61015 42.1196 10.0301C42.1196 11.4501 42.9796 12.3101 44.2996 12.3101C44.7796 12.3101 45.0996 12.2401 45.2696 12.1601V10.4801H44.1196V9.89015H45.9796V12.6001V12.6101Z" fill="#202020" stroke="#202020" stroke-width="0.2" stroke-miterlimit="10"/>
<path d="M50.1798 10.2102H47.9798V12.2502H50.4298V12.8602H47.2598V7.21021H50.3098V7.82021H47.9898V9.6002H50.1898V10.2002L50.1798 10.2102Z" fill="#202020" stroke="#202020" stroke-width="0.2" stroke-miterlimit="10"/>
<path d="M52.7595 7.8302H51.0396V7.21021H55.2196V7.8302H53.4896V12.8602H52.7495V7.8302H52.7595Z" fill="#202020" stroke="#202020" stroke-width="0.2" stroke-miterlimit="10"/>
<path d="M58.6895 7.21021V12.8602H57.9595V7.21021H58.6895Z" fill="#202020" stroke="#202020" stroke-width="0.2" stroke-miterlimit="10"/>
<path d="M61.1995 7.8302H59.4795V7.21021H63.6595V7.8302H61.9295V12.8602H61.1895V7.8302H61.1995Z" fill="#202020" stroke="#202020" stroke-width="0.2" stroke-miterlimit="10"/>
<path d="M71.2298 9.98012C71.2298 11.9201 70.0498 12.9501 68.6098 12.9501C67.1698 12.9501 66.0698 11.7901 66.0698 10.0901C66.0698 8.30012 67.1798 7.12012 68.6898 7.12012C70.1998 7.12012 71.2298 8.30012 71.2298 9.98012ZM66.8498 10.0701C66.8498 11.2801 67.4998 12.3601 68.6498 12.3601C69.7998 12.3601 70.4598 11.3001 70.4598 10.0101C70.4598 8.89012 69.8698 7.71012 68.6598 7.71012C67.4498 7.71012 66.8498 8.82012 66.8498 10.0601V10.0701Z" fill="#202020" stroke="#202020" stroke-width="0.2" stroke-miterlimit="10"/>
<path d="M72.3496 12.8602V7.21021H73.1496L74.9596 10.0702C75.3796 10.7302 75.7096 11.3302 75.9696 11.9002H75.9896C75.9196 11.1402 75.9096 10.4502 75.9096 9.57021V7.21021H76.5996V12.8602H75.8596L74.0696 9.99021C73.6796 9.36021 73.2996 8.72021 73.0096 8.11021H72.9796C73.0196 8.83021 73.0396 9.51021 73.0396 10.4502V12.8602H72.3496Z" fill="#202020" stroke="#202020" stroke-width="0.2" stroke-miterlimit="10"/>
<path d="M68.1398 21.6099C65.7898 21.6099 63.8698 23.3999 63.8698 25.8599C63.8698 28.3199 65.7898 30.1099 68.1398 30.1099C70.4898 30.1099 72.4098 28.3099 72.4098 25.8599C72.4098 23.4099 70.4898 21.6099 68.1398 21.6099ZM68.1398 28.4399C66.8498 28.4399 65.7398 27.3799 65.7398 25.8599C65.7398 24.3399 66.8498 23.2799 68.1398 23.2799C69.4298 23.2799 70.5398 24.3299 70.5398 25.8599C70.5398 27.3899 69.4298 28.4399 68.1398 28.4399ZM58.8298 21.6099C56.4798 21.6099 54.5598 23.3999 54.5598 25.8599C54.5598 28.3199 56.4798 30.1099 58.8298 30.1099C61.1798 30.1099 63.0998 28.3099 63.0998 25.8599C63.0998 23.4099 61.1798 21.6099 58.8298 21.6099ZM58.8298 28.4399C57.5398 28.4399 56.4298 27.3799 56.4298 25.8599C56.4298 24.3399 57.5398 23.2799 58.8298 23.2799C60.1198 23.2799 61.2298 24.3299 61.2298 25.8599C61.2298 27.3899 60.1198 28.4399 58.8298 28.4399ZM47.7498 22.9099V24.7099H52.0698C51.9398 25.7199 51.5998 26.4699 51.0898 26.9799C50.4598 27.6099 49.4798 28.2999 47.7598 28.2999C45.0998 28.2999 43.0198 26.1599 43.0198 23.4999C43.0198 20.8399 45.0998 18.6999 47.7598 18.6999C49.1898 18.6999 50.2398 19.2599 51.0098 19.9899L52.2798 18.7199C51.1998 17.6899 49.7698 16.8999 47.7498 16.8999C44.1098 16.8999 41.0498 19.8599 41.0498 23.5099C41.0498 27.1599 44.1098 30.1199 47.7498 30.1199C49.7198 30.1199 51.1998 29.4799 52.3598 28.2699C53.5498 27.0799 53.9198 25.3999 53.9198 24.0499C53.9198 23.6299 53.8898 23.2399 53.8198 22.9199H47.7498V22.9099ZM93.0598 24.3099C92.7098 23.3599 91.6298 21.5999 89.4198 21.5999C87.2098 21.5999 85.4098 23.3199 85.4098 25.8499C85.4098 28.2299 87.2098 30.0999 89.6298 30.0999C91.5798 30.0999 92.7098 28.9099 93.1698 28.2199L91.7198 27.2499C91.2398 27.9599 90.5798 28.4299 89.6298 28.4299C88.6798 28.4299 87.9998 27.9999 87.5698 27.1399L93.2598 24.7899L93.0698 24.3099H93.0598ZM87.2598 25.7299C87.2098 24.0899 88.5298 23.2499 89.4798 23.2499C90.2198 23.2499 90.8498 23.6199 91.0598 24.1499L87.2598 25.7299ZM82.6398 29.8499H84.5098V17.3499H82.6398V29.8499ZM79.5798 22.5499H79.5198C79.0998 22.0499 78.2998 21.5999 77.2798 21.5999C75.1498 21.5999 73.1998 23.4699 73.1998 25.8699C73.1998 28.2699 75.1498 30.1099 77.2798 30.1099C78.2898 30.1099 79.0998 29.6599 79.5198 29.1399H79.5798V29.7499C79.5798 31.3799 78.7098 32.2499 77.3098 32.2499C76.1698 32.2499 75.4598 31.4299 75.1698 30.7399L73.5398 31.4199C74.0098 32.5499 75.2498 33.9299 77.3098 33.9299C79.4998 33.9299 81.3498 32.6399 81.3498 29.4999V21.8599H79.5798V22.5499ZM77.4398 28.4299C76.1498 28.4299 75.0698 27.3499 75.0698 25.8699C75.0698 24.3899 76.1498 23.2799 77.4398 23.2799C78.7298 23.2799 79.7098 24.3799 79.7098 25.8699C79.7098 27.3599 78.7098 28.4299 77.4398 28.4299ZM101.82 17.3499H97.3498V29.8499H99.2198V25.1099H101.83C103.9 25.1099 105.93 23.6099 105.93 21.2299C105.93 18.8499 103.9 17.3499 101.83 17.3499H101.82ZM101.87 23.3799H99.2198V19.0899H101.87C103.27 19.0899 104.06 20.2499 104.06 21.2299C104.06 22.2099 103.27 23.3699 101.87 23.3699V23.3799ZM113.4 21.5799C112.05 21.5799 110.65 22.1799 110.07 23.4899L111.73 24.1799C112.08 23.4899 112.74 23.2599 113.43 23.2599C114.39 23.2599 115.38 23.8399 115.39 24.8699V24.9999C115.05 24.8099 114.33 24.5199 113.44 24.5199C111.65 24.5199 109.84 25.4999 109.84 27.3299C109.84 28.9999 111.3 30.0799 112.94 30.0799C114.19 30.0799 114.89 29.5199 115.32 28.8599H115.38V29.8199H117.18V25.0299C117.18 22.8099 115.52 21.5699 113.38 21.5699L113.4 21.5799ZM113.17 28.4299C112.56 28.4299 111.71 28.1199 111.71 27.3699C111.71 26.4099 112.77 26.0399 113.69 26.0399C114.51 26.0399 114.9 26.2199 115.39 26.4599C115.25 27.6199 114.25 28.4399 113.17 28.4399V28.4299ZM123.75 21.8499L121.61 27.2699H121.55L119.33 21.8499H117.32L120.65 29.4299L118.75 33.6399H120.7L125.83 21.8499H123.76H123.75ZM106.94 29.8499H108.81V17.3499H106.94V29.8499Z" fill="#202020"/>
<path d="M20.8409 19.4186L10.0708 30.846C10.4045 32.0899 11.5372 33 12.8822 33C13.4181 33 13.9238 32.8585 14.3586 32.5955L14.389 32.5753L26.5041 25.5874L20.8308 19.4084L20.8409 19.4186Z" fill="#EA4335"/>
<path d="M31.7323 17.4768H31.7222L26.4939 14.4329L20.5981 19.6814L26.5141 25.5974L31.7222 22.5939C32.6324 22.0984 33.2493 21.1376 33.2493 20.0354C33.2493 18.9331 32.6425 17.9723 31.7323 17.4869V17.4768Z" fill="#FBBC04"/>
<path d="M10.0709 9.16406C10.0102 9.40677 9.96973 9.64948 9.96973 9.91241V30.0976C9.96973 30.3605 10.0001 30.6032 10.0709 30.8459L21.205 19.7117L10.0709 9.16406Z" fill="#4285F4"/>
<path d="M20.9218 20.0051L26.494 14.4329L14.389 7.41463C13.9541 7.15169 13.4384 7 12.8822 7C11.5372 7 10.4045 7.92027 10.0708 9.15403L20.9218 19.9949V20.0051Z" fill="#34A853"/>
<rect x="0.5" y="0.5" width="134" height="39" rx="6.5" stroke="#202020"/>
</svg>
