<svg width="37" height="36" viewBox="0 0 37 36" fill="none" xmlns="http://www.w3.org/2000/svg">
<rect x="0.5" width="36" height="36" rx="18" fill="url(#paint0_linear_441_9974)"/>
<path d="M24.2378 9.32141C22.0766 9.32141 20.3871 10.9492 18.8578 13.017C16.7562 10.3411 14.9986 9.32141 12.8952 9.32141C8.60712 9.32141 5.32153 14.9021 5.32153 20.8088C5.32153 24.5051 7.10975 26.8364 10.1049 26.8364C12.2607 26.8364 13.8112 25.8201 16.5674 21.0021C16.5674 21.0021 17.7163 18.9731 18.5067 17.5755C18.7837 18.0227 19.0748 18.5038 19.3819 19.0211L20.6744 21.1953C23.1921 25.4086 24.5949 26.8364 27.1368 26.8364C30.0547 26.8364 31.6786 24.4732 31.6786 20.7001C31.6787 14.5155 28.319 9.32141 24.2378 9.32141ZM14.4656 19.6976C12.2309 23.2006 11.4579 23.9858 10.2137 23.9858C8.93323 23.9858 8.17227 22.8617 8.17227 20.8572C8.17227 16.569 10.3103 12.1842 12.8591 12.1842C14.2393 12.1842 15.3927 12.9813 17.1594 15.5105C15.4818 18.0837 14.4656 19.6976 14.4656 19.6976ZM22.8996 19.2566L21.3542 16.6793C20.936 15.9991 20.5353 15.3741 20.1486 14.8011C21.5414 12.6514 22.6902 11.5802 24.0566 11.5802C26.8953 11.5802 29.1662 15.7597 29.1662 20.8934C29.1662 22.8503 28.5252 23.9858 27.1973 23.9858C25.9244 23.9857 25.3164 23.1451 22.8996 19.2566Z" fill="white"/>
<defs>
<linearGradient id="paint0_linear_441_9974" x1="32.8001" y1="33.5193" x2="8.03832" y2="-4.77486" gradientUnits="userSpaceOnUse">
<stop offset="0.13" stop-color="#0869E1"/>
<stop offset="0.87" stop-color="#0064E0"/>
</linearGradient>
</defs>
</svg>
