<svg width="36" height="36" viewBox="0 0 36 36" fill="none" xmlns="http://www.w3.org/2000/svg">
<g clip-path="url(#clip0_441_9943)">
<path d="M36 18C36 8.05888 27.9411 0 18 0C8.05888 0 0 8.05888 0 18C0 27.9411 8.05888 36 18 36C27.9411 36 36 27.9411 36 18Z" fill="url(#paint0_linear_441_9943)"/>
<path opacity="0.1" d="M31.5474 6.15789C28.9232 10.9753 25.2119 15.9442 20.5745 20.5816C15.9371 25.2189 10.9682 28.9232 6.15794 31.5474C5.85636 31.2853 5.56346 31.0121 5.27925 30.7279C3.56134 29.0673 2.19121 27.0814 1.24876 24.8858C0.306314 22.6902 -0.18959 20.329 -0.210034 17.9398C-0.230479 15.5506 0.224945 13.1812 1.12968 10.9698C2.03442 8.75847 3.37036 6.74934 5.05961 5.05962C6.74886 3.3699 8.75761 2.0334 10.9687 1.12804C13.1798 0.222691 15.5491 -0.233394 17.9383 -0.213617C20.3275 -0.193839 22.6889 0.301405 24.8847 1.24324C27.0805 2.18507 29.0669 3.55465 30.7279 5.2721C31.0121 5.55631 31.2853 5.85157 31.5474 6.15789Z" fill="white"/>
<path d="M22.2632 8.52637H13.7369C12.355 8.52637 11.0297 9.07533 10.0525 10.0525C9.07533 11.0297 8.52637 12.355 8.52637 13.7369V22.2632C8.52637 23.6451 9.07533 24.9704 10.0525 25.9476C11.0297 26.9248 12.355 27.4737 13.7369 27.4737H22.2632C23.6451 27.4737 24.9704 26.9248 25.9476 25.9476C26.9248 24.9704 27.4737 23.6451 27.4737 22.2632V13.7369C27.4737 12.355 26.9248 11.0297 25.9476 10.0525C24.9704 9.07533 23.6451 8.52637 22.2632 8.52637ZM25.8158 21.5148C25.8158 22.6555 25.3627 23.7495 24.5561 24.5561C23.7495 25.3627 22.6555 25.8158 21.5148 25.8158H14.4853C13.3446 25.8158 12.2506 25.3627 11.444 24.5561C10.6374 23.7495 10.1843 22.6555 10.1843 21.5148V14.4853C10.1843 13.3446 10.6374 12.2506 11.444 11.444C12.2506 10.6374 13.3446 10.1843 14.4853 10.1843H21.5148C22.6555 10.1843 23.7495 10.6374 24.5561 11.444C25.3627 12.2506 25.8158 13.3446 25.8158 14.4853V21.5148Z" fill="white"/>
<path d="M21.4556 14.58L21.4106 14.535L21.3727 14.4971C20.4772 13.6047 19.2643 13.1039 18.0001 13.1045C17.3616 13.1088 16.7303 13.2389 16.1422 13.4873C15.554 13.7357 15.0206 14.0976 14.5724 14.5522C14.1241 15.0068 13.7698 15.5453 13.5298 16.1369C13.2897 16.7285 13.1685 17.3616 13.1732 18C13.1723 19.2957 13.683 20.5393 14.5943 21.4603C15.0407 21.9121 15.5726 22.2704 16.1589 22.5144C16.7453 22.7584 17.3744 22.8831 18.0095 22.8813C18.9622 22.8614 19.8885 22.5646 20.6754 22.0272C21.4623 21.4899 22.0758 20.7351 22.4411 19.8551C22.8065 18.975 22.9078 18.0076 22.7328 17.071C22.5578 16.1343 22.114 15.2688 21.4556 14.58ZM18.0001 21.2116C17.363 21.2205 16.7377 21.0398 16.2037 20.6924C15.6697 20.3449 15.2511 19.8465 15.0011 19.2605C14.7511 18.6745 14.681 18.0274 14.7998 17.4015C14.9186 16.7756 15.2209 16.1991 15.6682 15.7455C16.1155 15.2918 16.6876 14.9815 17.3118 14.8538C17.936 14.7262 18.584 14.7871 19.1735 15.0288C19.7629 15.2705 20.2672 15.6821 20.6221 16.2112C20.977 16.7402 21.1666 17.3629 21.1666 18C21.1698 18.4189 21.0903 18.8342 20.9328 19.2223C20.7754 19.6105 20.5429 19.9637 20.2489 20.262C19.9548 20.5603 19.6048 20.7976 19.219 20.9606C18.8331 21.1235 18.4189 21.2088 18.0001 21.2116Z" fill="white"/>
<path d="M24.2598 12.8795C24.261 13.0315 24.2323 13.1822 24.1752 13.3231C24.1181 13.464 24.0338 13.5922 23.9272 13.7004C23.8205 13.8086 23.6935 13.8948 23.5534 13.9539C23.4134 14.013 23.2631 14.0439 23.1111 14.0448C22.9604 14.0447 22.8112 14.0147 22.6722 13.9566C22.5331 13.8985 22.407 13.8133 22.3011 13.7061C22.1407 13.5433 22.0315 13.337 21.9872 13.1127C21.9429 12.8885 21.9654 12.6562 22.0519 12.4446C22.1384 12.233 22.2851 12.0515 22.4738 11.9225C22.6625 11.7935 22.8849 11.7228 23.1135 11.719C23.381 11.7189 23.64 11.8128 23.8453 11.9843L23.869 12.0079C23.9072 12.039 23.9421 12.074 23.9732 12.1122L23.9993 12.1406C24.1688 12.3494 24.2609 12.6105 24.2598 12.8795Z" fill="white"/>
</g>
<defs>
<linearGradient id="paint0_linear_441_9943" x1="5.27211" y1="5.27211" x2="30.7279" y2="30.7279" gradientUnits="userSpaceOnUse">
<stop stop-color="#FAE100"/>
<stop offset="0.15" stop-color="#FCB720"/>
<stop offset="0.3" stop-color="#FF7950"/>
<stop offset="0.5" stop-color="#FF1C74"/>
<stop offset="1" stop-color="#6C1CD1"/>
</linearGradient>
<clipPath id="clip0_441_9943">
<rect width="36" height="36" fill="white"/>
</clipPath>
</defs>
</svg>
