<svg width="1595" height="540" viewBox="0 0 1595 540" fill="none" xmlns="http://www.w3.org/2000/svg">
<path opacity="0.3" d="M17.6931 43.7531C9.93317 24.0056 26.1008 3.13869 47.1605 5.72064L933.565 114.395C936.83 114.795 939.998 115.767 942.925 117.267L1498.43 401.856C1523.71 414.809 1515.87 452.83 1487.52 454.715L232.93 538.141C220.763 538.951 209.471 531.793 205.012 520.444L17.6931 43.7531Z" fill="#F7BE2C"/>
<path opacity="0.3" d="M13.3827 41.9896C7.37735 22.4159 23.7241 3.22609 44.0037 6.04315L1241.73 172.421C1246.81 173.127 1251.6 175.214 1255.58 178.454L1457.05 342.73C1476.39 358.501 1466.99 389.786 1442.16 392.289L183.343 519.197C170.061 520.536 157.681 512.313 153.766 499.551L13.3827 41.9896Z" fill="#F7BE2C"/>
<path d="M22.5589 47.5932C13.143 27.2779 30.1995 4.67665 52.3183 8.15959L1549.71 243.948C1570.28 247.187 1580.25 270.946 1568.14 287.887L1465.95 430.871C1460.93 437.894 1452.96 442.209 1444.33 442.567L247.696 492.224C236.379 492.694 225.894 486.299 221.131 476.023L22.5589 47.5932Z" fill="#F7BE2C"/>
</svg>
