<svg width="24" height="24" viewBox="0 0 24 24" fill="none" xmlns="http://www.w3.org/2000/svg">
<path d="M7.53293 17.5499C7.56871 13.5874 9.16796 9.79939 11.9827 7.01011C14.7974 4.22083 18.5998 2.65604 22.5625 2.65626C22.8857 2.65626 23.1957 2.52785 23.4243 2.29929C23.6529 2.07073 23.7813 1.76074 23.7813 1.43751C23.7813 1.11427 23.6529 0.80428 23.4243 0.57572C23.1957 0.34716 22.8857 0.218756 22.5625 0.218756C17.9514 0.214522 13.526 2.0354 10.2532 5.28359C6.98032 8.53178 5.12602 12.9433 5.09538 17.5543L6.31251 19.1771L7.53293 17.5499ZM12.1625 16.7938L7.28751 23.2938C7.17398 23.4451 7.02678 23.568 6.85755 23.6526C6.68832 23.7372 6.50171 23.7813 6.31251 23.7813C6.1233 23.7813 5.93669 23.7372 5.76746 23.6526C5.59823 23.568 5.45103 23.4451 5.33751 23.2938L0.462506 16.7938C0.268566 16.5352 0.185293 16.2101 0.231005 15.8902C0.276717 15.5702 0.447669 15.2814 0.706256 15.0875C0.964842 14.8936 1.28988 14.8103 1.60986 14.856C1.92985 14.9017 2.21857 15.0727 2.41251 15.3313L6.31251 20.5313L10.2125 15.3313C10.3085 15.2032 10.4288 15.0953 10.5666 15.0138C10.7043 14.9323 10.8567 14.8786 11.0151 14.856C11.1736 14.8334 11.3349 14.8422 11.49 14.8819C11.645 14.9216 11.7907 14.9915 11.9188 15.0875C12.1773 15.2814 12.3483 15.5702 12.394 15.8902C12.4166 16.0486 12.4078 16.2099 12.3681 16.365C12.3284 16.52 12.2585 16.6657 12.1625 16.7938Z" fill="#F9BB19"/>
</svg>
