<svg width="291" height="165" viewBox="0 0 291 165" fill="none" xmlns="http://www.w3.org/2000/svg">
<path d="M15.2803 10.166C13.5322 10.166 12.4775 9.11133 12.4775 7.57812V2.9541H13.3564V7.51953C13.3564 8.60352 14.0596 9.35547 15.2803 9.35547C16.501 9.35547 17.1943 8.60352 17.1943 7.51953V2.9541H18.0732V7.57812C18.0732 9.11133 17.0283 10.166 15.2803 10.166ZM21.5596 10.0928C20.3877 10.0928 19.582 9.52637 19.4844 8.65723H20.3535C20.4951 9.09668 20.915 9.38477 21.5889 9.38477C22.2969 9.38477 22.7998 9.04785 22.7998 8.56934V8.55957C22.7998 8.20312 22.5312 7.9541 21.8818 7.79785L21.0664 7.60254C20.0801 7.36816 19.6357 6.93848 19.6357 6.18164V6.17676C19.6357 5.30273 20.4756 4.64355 21.5938 4.64355C22.6973 4.64355 23.4639 5.19531 23.5811 6.05469H22.7461C22.6338 5.63965 22.2236 5.35156 21.5889 5.35156C20.9639 5.35156 20.5049 5.67383 20.5049 6.1377V6.14746C20.5049 6.50391 20.7686 6.72852 21.3887 6.87988L22.1992 7.0752C23.1904 7.31445 23.6689 7.74414 23.6689 8.49609V8.50586C23.6689 9.44336 22.7559 10.0928 21.5596 10.0928ZM27.1357 10.0928C25.6318 10.0928 24.7236 9.03809 24.7236 7.3877V7.38281C24.7236 5.75684 25.6514 4.64355 27.082 4.64355C28.5127 4.64355 29.3818 5.70801 29.3818 7.28027V7.6123H25.5928C25.6172 8.70117 26.2178 9.33594 27.1553 9.33594C27.8682 9.33594 28.3076 8.99902 28.4492 8.68164L28.4688 8.6377H29.3184L29.3086 8.67676C29.1279 9.38965 28.376 10.0928 27.1357 10.0928ZM27.0771 5.40039C26.2959 5.40039 25.7002 5.93262 25.6074 6.93359H28.5176C28.4297 5.89355 27.8535 5.40039 27.0771 5.40039ZM30.7002 10V4.73633H31.5498V5.51758H31.6279C31.8281 4.96582 32.3213 4.64355 33.0342 4.64355C33.1953 4.64355 33.376 4.66309 33.459 4.67773V5.50293C33.2832 5.47363 33.1221 5.4541 32.9365 5.4541C32.126 5.4541 31.5498 5.9668 31.5498 6.73828V10H30.7002ZM39.4697 10.0928C37.9658 10.0928 37.0576 9.03809 37.0576 7.3877V7.38281C37.0576 5.75684 37.9854 4.64355 39.416 4.64355C40.8467 4.64355 41.7158 5.70801 41.7158 7.28027V7.6123H37.9268C37.9512 8.70117 38.5518 9.33594 39.4893 9.33594C40.2021 9.33594 40.6416 8.99902 40.7832 8.68164L40.8027 8.6377H41.6523L41.6426 8.67676C41.4619 9.38965 40.71 10.0928 39.4697 10.0928ZM39.4111 5.40039C38.6299 5.40039 38.0342 5.93262 37.9414 6.93359H40.8516C40.7637 5.89355 40.1875 5.40039 39.4111 5.40039ZM43.0342 10V4.73633H43.8838V5.52734H43.9619C44.2256 4.9707 44.7188 4.64355 45.4951 4.64355C46.6768 4.64355 47.3359 5.3418 47.3359 6.5918V10H46.4863V6.79688C46.4863 5.84961 46.0957 5.39551 45.2559 5.39551C44.416 5.39551 43.8838 5.96191 43.8838 6.88477V10H43.0342ZM50.7441 10.0391C49.6602 10.0391 49.2061 9.63867 49.2061 8.63281V5.43945H48.376V4.73633H49.2061V3.37402H50.085V4.73633H51.2373V5.43945H50.085V8.41797C50.085 9.03809 50.2998 9.28711 50.8467 9.28711C50.998 9.28711 51.0811 9.28223 51.2373 9.26758V9.99023C51.0713 10.0195 50.9102 10.0391 50.7441 10.0391ZM54.5771 10.0928C53.0732 10.0928 52.165 9.03809 52.165 7.3877V7.38281C52.165 5.75684 53.0928 4.64355 54.5234 4.64355C55.9541 4.64355 56.8232 5.70801 56.8232 7.28027V7.6123H53.0342C53.0586 8.70117 53.6592 9.33594 54.5967 9.33594C55.3096 9.33594 55.749 8.99902 55.8906 8.68164L55.9102 8.6377H56.7598L56.75 8.67676C56.5693 9.38965 55.8174 10.0928 54.5771 10.0928ZM54.5186 5.40039C53.7373 5.40039 53.1416 5.93262 53.0488 6.93359H55.959C55.8711 5.89355 55.2949 5.40039 54.5186 5.40039ZM58.1416 10V4.73633H58.9912V5.51758H59.0693C59.2695 4.96582 59.7627 4.64355 60.4756 4.64355C60.6367 4.64355 60.8174 4.66309 60.9004 4.67773V5.50293C60.7246 5.47363 60.5635 5.4541 60.3779 5.4541C59.5674 5.4541 58.9912 5.9668 58.9912 6.73828V10H58.1416ZM63.9521 10.0928C62.4482 10.0928 61.54 9.03809 61.54 7.3877V7.38281C61.54 5.75684 62.4678 4.64355 63.8984 4.64355C65.3291 4.64355 66.1982 5.70801 66.1982 7.28027V7.6123H62.4092C62.4336 8.70117 63.0342 9.33594 63.9717 9.33594C64.6846 9.33594 65.124 8.99902 65.2656 8.68164L65.2852 8.6377H66.1348L66.125 8.67676C65.9443 9.38965 65.1924 10.0928 63.9521 10.0928ZM63.8936 5.40039C63.1123 5.40039 62.5166 5.93262 62.4238 6.93359H65.334C65.2461 5.89355 64.6699 5.40039 63.8936 5.40039ZM69.46 10.0928C68.127 10.0928 67.2529 9.01367 67.2529 7.37305V7.36328C67.2529 5.71289 68.1221 4.64355 69.46 4.64355C70.1826 4.64355 70.8125 5.00488 71.1006 5.56641H71.1787V2.64648H72.0283V10H71.1787V9.16016H71.1006C70.7783 9.74609 70.1924 10.0928 69.46 10.0928ZM69.6553 9.34082C70.6123 9.34082 71.1982 8.58887 71.1982 7.37305V7.36328C71.1982 6.14746 70.6123 5.39551 69.6553 5.39551C68.6934 5.39551 68.1221 6.1377 68.1221 7.36328V7.37305C68.1221 8.59863 68.6934 9.34082 69.6553 9.34082ZM76.5205 10V2.64648H77.3701V7.03613H77.4482L79.7236 4.73633H80.7539L78.459 6.94824L80.9053 10H79.8359L77.8633 7.52441L77.3701 8.00293V10H76.5205ZM83.8057 10.0928C82.3018 10.0928 81.3936 9.03809 81.3936 7.3877V7.38281C81.3936 5.75684 82.3213 4.64355 83.752 4.64355C85.1826 4.64355 86.0518 5.70801 86.0518 7.28027V7.6123H82.2627C82.2871 8.70117 82.8877 9.33594 83.8252 9.33594C84.5381 9.33594 84.9775 8.99902 85.1191 8.68164L85.1387 8.6377H85.9883L85.9785 8.67676C85.7979 9.38965 85.0459 10.0928 83.8057 10.0928ZM83.7471 5.40039C82.9658 5.40039 82.3701 5.93262 82.2773 6.93359H85.1875C85.0996 5.89355 84.5234 5.40039 83.7471 5.40039ZM87.7217 11.8457C87.6094 11.8457 87.4629 11.8359 87.3457 11.8164V11.1182C87.4482 11.1377 87.5801 11.1426 87.6973 11.1426C88.1807 11.1426 88.4736 10.9229 88.6641 10.3174L88.7617 10.0049L86.8135 4.73633H87.7217L89.167 9.06738H89.2451L90.6855 4.73633H91.5791L89.5234 10.3223C89.0889 11.5039 88.6543 11.8457 87.7217 11.8457Z" fill="#202020"/>
<rect y="16" width="103.5" height="1" fill="#202020"/>
<path d="M5.4707 31L8.06836 23.9541H8.9375L11.5352 31H10.6123L9.9043 28.9834H7.10156L6.39355 31H5.4707ZM8.46387 25.0918L7.36035 28.2363H9.64551L8.54199 25.0918H8.46387ZM13.4688 31L11.5205 25.7363H12.4189L13.8594 30.0723H13.9375L15.3779 25.7363H16.2764L14.3281 31H13.4688ZM19.3525 31.0928C17.8486 31.0928 16.9404 30.0381 16.9404 28.3877V28.3828C16.9404 26.7568 17.8682 25.6436 19.2988 25.6436C20.7295 25.6436 21.5986 26.708 21.5986 28.2803V28.6123H17.8096C17.834 29.7012 18.4346 30.3359 19.3721 30.3359C20.085 30.3359 20.5244 29.999 20.666 29.6816L20.6855 29.6377H21.5352L21.5254 29.6768C21.3447 30.3896 20.5928 31.0928 19.3525 31.0928ZM19.2939 26.4004C18.5127 26.4004 17.917 26.9326 17.8242 27.9336H20.7344C20.6465 26.8936 20.0703 26.4004 19.2939 26.4004ZM22.917 31V25.7363H23.7666V26.5176H23.8447C24.0449 25.9658 24.5381 25.6436 25.251 25.6436C25.4121 25.6436 25.5928 25.6631 25.6758 25.6777V26.5029C25.5 26.4736 25.3389 26.4541 25.1533 26.4541C24.3428 26.4541 23.7666 26.9668 23.7666 27.7383V31H22.917ZM28.1709 31.0928C27.1699 31.0928 26.4131 30.4873 26.4131 29.5303V29.5205C26.4131 28.583 27.1064 28.041 28.332 27.9678L29.8408 27.875V27.3965C29.8408 26.7471 29.4453 26.3955 28.6592 26.3955C28.0293 26.3955 27.6143 26.6299 27.4775 27.04L27.4727 27.0547H26.623L26.6279 27.0254C26.7646 26.2002 27.5654 25.6436 28.6885 25.6436C29.9727 25.6436 30.6904 26.3027 30.6904 27.3965V31H29.8408V30.2236H29.7627C29.4307 30.7852 28.8789 31.0928 28.1709 31.0928ZM27.2822 29.5107C27.2822 30.043 27.7363 30.3555 28.3467 30.3555C29.2109 30.3555 29.8408 29.7891 29.8408 29.0371V28.5586L28.4346 28.6465C27.6338 28.6953 27.2822 28.9785 27.2822 29.501V29.5107ZM32.2432 31V25.7363H33.0928V26.5273H33.1709C33.4346 25.9707 33.9277 25.6436 34.7041 25.6436C35.8857 25.6436 36.5449 26.3418 36.5449 27.5918V31H35.6953V27.7969C35.6953 26.8496 35.3047 26.3955 34.4648 26.3955C33.625 26.3955 33.0928 26.9619 33.0928 27.8848V31H32.2432ZM40.251 32.8555C38.9814 32.8555 38.1709 32.2842 38.0391 31.4199L38.0488 31.415H38.9277L38.9326 31.4199C39.0254 31.8203 39.4941 32.1035 40.251 32.1035C41.1934 32.1035 41.7549 31.6592 41.7549 30.8828V29.8184H41.6768C41.3447 30.3994 40.749 30.7266 40.0264 30.7266C38.6641 30.7266 37.8193 29.6719 37.8193 28.1973V28.1875C37.8193 26.7129 38.6689 25.6436 40.0459 25.6436C40.7881 25.6436 41.3643 26.0098 41.6865 26.6055H41.7451V25.7363H42.5947V30.9268C42.5947 32.1035 41.6865 32.8555 40.251 32.8555ZM40.2119 29.9746C41.1885 29.9746 41.7744 29.2422 41.7744 28.1973V28.1875C41.7744 27.1426 41.1836 26.3955 40.2119 26.3955C39.2354 26.3955 38.6885 27.1426 38.6885 28.1875V28.1973C38.6885 29.2422 39.2354 29.9746 40.2119 29.9746ZM46.3252 31.0928C44.8213 31.0928 43.9131 30.0381 43.9131 28.3877V28.3828C43.9131 26.7568 44.8408 25.6436 46.2715 25.6436C47.7021 25.6436 48.5713 26.708 48.5713 28.2803V28.6123H44.7822C44.8066 29.7012 45.4072 30.3359 46.3447 30.3359C47.0576 30.3359 47.4971 29.999 47.6387 29.6816L47.6582 29.6377H48.5078L48.498 29.6768C48.3174 30.3896 47.5654 31.0928 46.3252 31.0928ZM46.2666 26.4004C45.4854 26.4004 44.8896 26.9326 44.7969 27.9336H47.707C47.6191 26.8936 47.043 26.4004 46.2666 26.4004ZM54.5723 31.0391C53.4883 31.0391 53.0342 30.6387 53.0342 29.6328V26.4395H52.2041V25.7363H53.0342V24.374H53.9131V25.7363H55.0654V26.4395H53.9131V29.418C53.9131 30.0381 54.1279 30.2871 54.6748 30.2871C54.8262 30.2871 54.9092 30.2822 55.0654 30.2676V30.9902C54.8994 31.0195 54.7383 31.0391 54.5723 31.0391ZM57.7803 31.0928C56.7793 31.0928 56.0225 30.4873 56.0225 29.5303V29.5205C56.0225 28.583 56.7158 28.041 57.9414 27.9678L59.4502 27.875V27.3965C59.4502 26.7471 59.0547 26.3955 58.2686 26.3955C57.6387 26.3955 57.2236 26.6299 57.0869 27.04L57.082 27.0547H56.2324L56.2373 27.0254C56.374 26.2002 57.1748 25.6436 58.2979 25.6436C59.582 25.6436 60.2998 26.3027 60.2998 27.3965V31H59.4502V30.2236H59.3721C59.04 30.7852 58.4883 31.0928 57.7803 31.0928ZM56.8916 29.5107C56.8916 30.043 57.3457 30.3555 57.9561 30.3555C58.8203 30.3555 59.4502 29.7891 59.4502 29.0371V28.5586L58.0439 28.6465C57.2432 28.6953 56.8916 28.9785 56.8916 29.501V29.5107ZM64.0205 32.8555C62.751 32.8555 61.9404 32.2842 61.8086 31.4199L61.8184 31.415H62.6973L62.7021 31.4199C62.7949 31.8203 63.2637 32.1035 64.0205 32.1035C64.9629 32.1035 65.5244 31.6592 65.5244 30.8828V29.8184H65.4463C65.1143 30.3994 64.5186 30.7266 63.7959 30.7266C62.4336 30.7266 61.5889 29.6719 61.5889 28.1973V28.1875C61.5889 26.7129 62.4385 25.6436 63.8154 25.6436C64.5576 25.6436 65.1338 26.0098 65.4561 26.6055H65.5146V25.7363H66.3643V30.9268C66.3643 32.1035 65.4561 32.8555 64.0205 32.8555ZM63.9814 29.9746C64.958 29.9746 65.5439 29.2422 65.5439 28.1973V28.1875C65.5439 27.1426 64.9531 26.3955 63.9814 26.3955C63.0049 26.3955 62.458 27.1426 62.458 28.1875V28.1973C62.458 29.2422 63.0049 29.9746 63.9814 29.9746ZM72.5215 31.0928C71.3252 31.0928 70.71 30.3896 70.71 29.1445V25.7363H71.5596V28.9395C71.5596 29.8867 71.9014 30.3408 72.7412 30.3408C73.6689 30.3408 74.1621 29.7744 74.1621 28.8516V25.7363H75.0117V31H74.1621V30.2139H74.084C73.8252 30.7754 73.293 31.0928 72.5215 31.0928ZM78.4053 31.0928C77.2334 31.0928 76.4277 30.5264 76.3301 29.6572H77.1992C77.3408 30.0967 77.7607 30.3848 78.4346 30.3848C79.1426 30.3848 79.6455 30.0479 79.6455 29.5693V29.5596C79.6455 29.2031 79.377 28.9541 78.7275 28.7979L77.9121 28.6025C76.9258 28.3682 76.4814 27.9385 76.4814 27.1816V27.1768C76.4814 26.3027 77.3213 25.6436 78.4395 25.6436C79.543 25.6436 80.3096 26.1953 80.4268 27.0547H79.5918C79.4795 26.6396 79.0693 26.3516 78.4346 26.3516C77.8096 26.3516 77.3506 26.6738 77.3506 27.1377V27.1475C77.3506 27.5039 77.6143 27.7285 78.2344 27.8799L79.0449 28.0752C80.0361 28.3145 80.5146 28.7441 80.5146 29.4961V29.5059C80.5146 30.4434 79.6016 31.0928 78.4053 31.0928ZM83.2783 31.0928C82.2773 31.0928 81.5205 30.4873 81.5205 29.5303V29.5205C81.5205 28.583 82.2139 28.041 83.4395 27.9678L84.9482 27.875V27.3965C84.9482 26.7471 84.5527 26.3955 83.7666 26.3955C83.1367 26.3955 82.7217 26.6299 82.585 27.04L82.5801 27.0547H81.7305L81.7354 27.0254C81.8721 26.2002 82.6729 25.6436 83.7959 25.6436C85.0801 25.6436 85.7979 26.3027 85.7979 27.3965V31H84.9482V30.2236H84.8701C84.5381 30.7852 83.9863 31.0928 83.2783 31.0928ZM82.3896 29.5107C82.3896 30.043 82.8438 30.3555 83.4541 30.3555C84.3184 30.3555 84.9482 29.7891 84.9482 29.0371V28.5586L83.542 28.6465C82.7412 28.6953 82.3896 28.9785 82.3896 29.501V29.5107ZM89.5186 32.8555C88.249 32.8555 87.4385 32.2842 87.3066 31.4199L87.3164 31.415H88.1953L88.2002 31.4199C88.293 31.8203 88.7617 32.1035 89.5186 32.1035C90.4609 32.1035 91.0225 31.6592 91.0225 30.8828V29.8184H90.9443C90.6123 30.3994 90.0166 30.7266 89.2939 30.7266C87.9316 30.7266 87.0869 29.6719 87.0869 28.1973V28.1875C87.0869 26.7129 87.9365 25.6436 89.3135 25.6436C90.0557 25.6436 90.6318 26.0098 90.9541 26.6055H91.0127V25.7363H91.8623V30.9268C91.8623 32.1035 90.9541 32.8555 89.5186 32.8555ZM89.4795 29.9746C90.4561 29.9746 91.042 29.2422 91.042 28.1973V28.1875C91.042 27.1426 90.4512 26.3955 89.4795 26.3955C88.5029 26.3955 87.9561 27.1426 87.9561 28.1875V28.1973C87.9561 29.2422 88.5029 29.9746 89.4795 29.9746ZM95.5928 31.0928C94.0889 31.0928 93.1807 30.0381 93.1807 28.3877V28.3828C93.1807 26.7568 94.1084 25.6436 95.5391 25.6436C96.9697 25.6436 97.8389 26.708 97.8389 28.2803V28.6123H94.0498C94.0742 29.7012 94.6748 30.3359 95.6123 30.3359C96.3252 30.3359 96.7646 29.999 96.9062 29.6816L96.9258 29.6377H97.7754L97.7656 29.6768C97.585 30.3896 96.833 31.0928 95.5928 31.0928ZM95.5342 26.4004C94.7529 26.4004 94.1572 26.9326 94.0645 27.9336H96.9746C96.8867 26.8936 96.3105 26.4004 95.5342 26.4004ZM33.5469 44.7578C32.5947 43.4932 32.1602 42.0186 32.1602 40.2021C32.1602 38.3906 32.5898 36.9111 33.5469 35.6465H34.2598C33.5518 36.5498 33.0244 38.5078 33.0244 40.2021C33.0244 41.9111 33.5518 43.8545 34.2598 44.7578H33.5469ZM37.0332 43.0928C36.0322 43.0928 35.2754 42.4873 35.2754 41.5303V41.5205C35.2754 40.583 35.9688 40.041 37.1943 39.9678L38.7031 39.875V39.3965C38.7031 38.7471 38.3076 38.3955 37.5215 38.3955C36.8916 38.3955 36.4766 38.6299 36.3398 39.04L36.335 39.0547H35.4854L35.4902 39.0254C35.627 38.2002 36.4277 37.6436 37.5508 37.6436C38.835 37.6436 39.5527 38.3027 39.5527 39.3965V43H38.7031V42.2236H38.625C38.293 42.7852 37.7412 43.0928 37.0332 43.0928ZM36.1445 41.5107C36.1445 42.043 36.5986 42.3555 37.209 42.3555C38.0732 42.3555 38.7031 41.7891 38.7031 41.0371V40.5586L37.2969 40.6465C36.4961 40.6953 36.1445 40.9785 36.1445 41.501V41.5107ZM41.1543 43V35.6465H42.0039V43H41.1543ZM43.6836 43V35.6465H44.5332V43H43.6836ZM50.8467 43.0391C49.7627 43.0391 49.3086 42.6387 49.3086 41.6328V38.4395H48.4785V37.7363H49.3086V36.374H50.1875V37.7363H51.3398V38.4395H50.1875V41.418C50.1875 42.0381 50.4023 42.2871 50.9492 42.2871C51.1006 42.2871 51.1836 42.2822 51.3398 42.2676V42.9902C51.1738 43.0195 51.0127 43.0391 50.8467 43.0391ZM53.0586 36.7207C52.7363 36.7207 52.4727 36.457 52.4727 36.1348C52.4727 35.8125 52.7363 35.5488 53.0586 35.5488C53.3809 35.5488 53.6445 35.8125 53.6445 36.1348C53.6445 36.457 53.3809 36.7207 53.0586 36.7207ZM52.6289 43V37.7363H53.4785V43H52.6289ZM55.0801 43V37.7363H55.9297V38.5371H56.0078C56.2422 37.9707 56.7402 37.6436 57.4287 37.6436C58.1416 37.6436 58.6396 38.0195 58.8838 38.5664H58.9619C59.2451 38.0098 59.8457 37.6436 60.5732 37.6436C61.6475 37.6436 62.248 38.2588 62.248 39.3623V43H61.3984V39.5576C61.3984 38.7812 61.042 38.3955 60.2998 38.3955C59.5674 38.3955 59.084 38.9473 59.084 39.6162V43H58.2344V39.4258C58.2344 38.8008 57.8047 38.3955 57.1406 38.3955C56.4521 38.3955 55.9297 38.9961 55.9297 39.7383V43H55.0801ZM65.9297 43.0928C64.4258 43.0928 63.5176 42.0381 63.5176 40.3877V40.3828C63.5176 38.7568 64.4453 37.6436 65.876 37.6436C67.3066 37.6436 68.1758 38.708 68.1758 40.2803V40.6123H64.3867C64.4111 41.7012 65.0117 42.3359 65.9492 42.3359C66.6621 42.3359 67.1016 41.999 67.2432 41.6816L67.2627 41.6377H68.1123L68.1025 41.6768C67.9219 42.3896 67.1699 43.0928 65.9297 43.0928ZM65.8711 38.4004C65.0898 38.4004 64.4941 38.9326 64.4014 39.9336H67.3115C67.2236 38.8936 66.6475 38.4004 65.8711 38.4004ZM69.9531 44.7578H69.2402C69.9482 43.8545 70.4756 41.9111 70.4756 40.2021C70.4756 38.5078 69.9482 36.5498 69.2402 35.6465H69.9531C70.9102 36.9111 71.3398 38.3906 71.3398 40.2021C71.3398 42.0186 70.9053 43.4932 69.9531 44.7578Z" fill="#202020"/>
<path d="M120.429 29.5711L134.571 15.4289" stroke="#202020" stroke-linecap="round"/>
<path d="M120.429 15.4289L134.571 29.5711" stroke="#202020" stroke-linecap="round"/>
<path d="M165.047 10V2.9541H165.926V6.37695H166.004L169.09 2.9541H170.193L167.376 5.99609L170.452 10H169.314L166.771 6.60645L165.926 7.53906V10H165.047ZM173.289 10.0928C171.785 10.0928 170.877 9.03809 170.877 7.3877V7.38281C170.877 5.75684 171.805 4.64355 173.235 4.64355C174.666 4.64355 175.535 5.70801 175.535 7.28027V7.6123H171.746C171.771 8.70117 172.371 9.33594 173.309 9.33594C174.021 9.33594 174.461 8.99902 174.603 8.68164L174.622 8.6377H175.472L175.462 8.67676C175.281 9.38965 174.529 10.0928 173.289 10.0928ZM173.23 5.40039C172.449 5.40039 171.854 5.93262 171.761 6.93359H174.671C174.583 5.89355 174.007 5.40039 173.23 5.40039ZM177.205 11.8457C177.093 11.8457 176.946 11.8359 176.829 11.8164V11.1182C176.932 11.1377 177.063 11.1426 177.181 11.1426C177.664 11.1426 177.957 10.9229 178.147 10.3174L178.245 10.0049L176.297 4.73633H177.205L178.65 9.06738H178.729L180.169 4.73633H181.062L179.007 10.3223C178.572 11.5039 178.138 11.8457 177.205 11.8457ZM187.146 10.0928C185.643 10.0928 184.734 9.03809 184.734 7.3877V7.38281C184.734 5.75684 185.662 4.64355 187.093 4.64355C188.523 4.64355 189.393 5.70801 189.393 7.28027V7.6123H185.604C185.628 8.70117 186.229 9.33594 187.166 9.33594C187.879 9.33594 188.318 8.99902 188.46 8.68164L188.479 8.6377H189.329L189.319 8.67676C189.139 9.38965 188.387 10.0928 187.146 10.0928ZM187.088 5.40039C186.307 5.40039 185.711 5.93262 185.618 6.93359H188.528C188.44 5.89355 187.864 5.40039 187.088 5.40039ZM191.062 10V5.43945H190.188V4.73633H191.062V4.15039C191.062 3.10059 191.59 2.59766 192.591 2.59766C192.796 2.59766 192.981 2.6123 193.157 2.64648V3.3252C193.055 3.30566 192.913 3.30078 192.762 3.30078C192.156 3.30078 191.912 3.59863 191.912 4.1748V4.73633H193.108V5.43945H191.912V10H191.062ZM194.686 10V5.43945H193.812V4.73633H194.686V4.15039C194.686 3.10059 195.213 2.59766 196.214 2.59766C196.419 2.59766 196.604 2.6123 196.78 2.64648V3.3252C196.678 3.30566 196.536 3.30078 196.385 3.30078C195.779 3.30078 195.535 3.59863 195.535 4.1748V4.73633H196.731V5.43945H195.535V10H194.686ZM198.406 3.7207C198.084 3.7207 197.82 3.45703 197.82 3.13477C197.82 2.8125 198.084 2.54883 198.406 2.54883C198.729 2.54883 198.992 2.8125 198.992 3.13477C198.992 3.45703 198.729 3.7207 198.406 3.7207ZM197.977 10V4.73633H198.826V10H197.977ZM202.581 10.0928C201.106 10.0928 200.164 9.02344 200.164 7.35352V7.34375C200.164 5.70801 201.102 4.64355 202.576 4.64355C203.855 4.64355 204.622 5.38086 204.778 6.31836L204.783 6.34766H203.938L203.934 6.33301C203.802 5.81543 203.333 5.39551 202.576 5.39551C201.629 5.39551 201.033 6.15723 201.033 7.34375V7.35352C201.033 8.56445 201.639 9.34082 202.576 9.34082C203.284 9.34082 203.733 9.02832 203.929 8.44238L203.938 8.41309L204.778 8.4082L204.769 8.46191C204.554 9.41406 203.846 10.0928 202.581 10.0928ZM206.473 3.7207C206.15 3.7207 205.887 3.45703 205.887 3.13477C205.887 2.8125 206.15 2.54883 206.473 2.54883C206.795 2.54883 207.059 2.8125 207.059 3.13477C207.059 3.45703 206.795 3.7207 206.473 3.7207ZM206.043 10V4.73633H206.893V10H206.043ZM210.643 10.0928C209.139 10.0928 208.23 9.03809 208.23 7.3877V7.38281C208.23 5.75684 209.158 4.64355 210.589 4.64355C212.02 4.64355 212.889 5.70801 212.889 7.28027V7.6123H209.1C209.124 8.70117 209.725 9.33594 210.662 9.33594C211.375 9.33594 211.814 8.99902 211.956 8.68164L211.976 8.6377H212.825L212.815 8.67676C212.635 9.38965 211.883 10.0928 210.643 10.0928ZM210.584 5.40039C209.803 5.40039 209.207 5.93262 209.114 6.93359H212.024C211.937 5.89355 211.36 5.40039 210.584 5.40039ZM214.207 10V4.73633H215.057V5.52734H215.135C215.398 4.9707 215.892 4.64355 216.668 4.64355C217.85 4.64355 218.509 5.3418 218.509 6.5918V10H217.659V6.79688C217.659 5.84961 217.269 5.39551 216.429 5.39551C215.589 5.39551 215.057 5.96191 215.057 6.88477V10H214.207ZM222.2 10.0928C220.726 10.0928 219.783 9.02344 219.783 7.35352V7.34375C219.783 5.70801 220.721 4.64355 222.195 4.64355C223.475 4.64355 224.241 5.38086 224.397 6.31836L224.402 6.34766H223.558L223.553 6.33301C223.421 5.81543 222.952 5.39551 222.195 5.39551C221.248 5.39551 220.652 6.15723 220.652 7.34375V7.35352C220.652 8.56445 221.258 9.34082 222.195 9.34082C222.903 9.34082 223.353 9.02832 223.548 8.44238L223.558 8.41309L224.397 8.4082L224.388 8.46191C224.173 9.41406 223.465 10.0928 222.2 10.0928ZM226.092 11.8457C225.979 11.8457 225.833 11.8359 225.716 11.8164V11.1182C225.818 11.1377 225.95 11.1426 226.067 11.1426C226.551 11.1426 226.844 10.9229 227.034 10.3174L227.132 10.0049L225.184 4.73633H226.092L227.537 9.06738H227.615L229.056 4.73633H229.949L227.894 10.3223C227.459 11.5039 227.024 11.8457 226.092 11.8457ZM235.193 6.66016C234.295 6.66016 233.753 5.92773 233.753 4.76074V4.75586C233.753 3.58887 234.295 2.86133 235.193 2.86133C236.092 2.86133 236.639 3.58887 236.639 4.75586V4.76074C236.639 5.92773 236.092 6.66016 235.193 6.66016ZM235.721 10H234.93L239.725 2.9541H240.516L235.721 10ZM235.193 6.0791C235.677 6.0791 235.96 5.58594 235.96 4.76074V4.75586C235.96 3.93066 235.677 3.44238 235.193 3.44238C234.71 3.44238 234.432 3.93066 234.432 4.75586V4.76074C234.432 5.58594 234.71 6.0791 235.193 6.0791ZM240.242 10.0928C239.344 10.0928 238.802 9.36035 238.802 8.19336V8.18848C238.802 7.02148 239.344 6.29395 240.242 6.29395C241.141 6.29395 241.688 7.02148 241.688 8.18848V8.19336C241.688 9.36035 241.141 10.0928 240.242 10.0928ZM240.242 9.51172C240.726 9.51172 241.009 9.01855 241.009 8.19336V8.18848C241.009 7.36328 240.726 6.875 240.242 6.875C239.759 6.875 239.48 7.36328 239.48 8.18848V8.19336C239.48 9.01855 239.759 9.51172 240.242 9.51172Z" fill="#202020"/>
<rect x="151.5" y="16" width="103.5" height="1" fill="#202020"/>
<path d="M167.933 31V23.9541H170.35C172.439 23.9541 173.675 25.2578 173.675 27.4697V27.4795C173.675 29.6963 172.444 31 170.35 31H167.933ZM168.812 30.209H170.291C171.863 30.209 172.776 29.2031 172.776 27.4893V27.4795C172.776 25.7607 171.854 24.7451 170.291 24.7451H168.812V30.209ZM176.536 31.0928C175.535 31.0928 174.778 30.4873 174.778 29.5303V29.5205C174.778 28.583 175.472 28.041 176.697 27.9678L178.206 27.875V27.3965C178.206 26.7471 177.811 26.3955 177.024 26.3955C176.395 26.3955 175.979 26.6299 175.843 27.04L175.838 27.0547H174.988L174.993 27.0254C175.13 26.2002 175.931 25.6436 177.054 25.6436C178.338 25.6436 179.056 26.3027 179.056 27.3965V31H178.206V30.2236H178.128C177.796 30.7852 177.244 31.0928 176.536 31.0928ZM175.647 29.5107C175.647 30.043 176.102 30.3555 176.712 30.3555C177.576 30.3555 178.206 29.7891 178.206 29.0371V28.5586L176.8 28.6465C175.999 28.6953 175.647 28.9785 175.647 29.501V29.5107ZM181.058 24.7207C180.735 24.7207 180.472 24.457 180.472 24.1348C180.472 23.8125 180.735 23.5488 181.058 23.5488C181.38 23.5488 181.644 23.8125 181.644 24.1348C181.644 24.457 181.38 24.7207 181.058 24.7207ZM180.628 31V25.7363H181.478V31H180.628ZM183.128 31V23.6465H183.978V31H183.128ZM186.058 32.8457C185.945 32.8457 185.799 32.8359 185.682 32.8164V32.1182C185.784 32.1377 185.916 32.1426 186.033 32.1426C186.517 32.1426 186.81 31.9229 187 31.3174L187.098 31.0049L185.149 25.7363H186.058L187.503 30.0674H187.581L189.021 25.7363H189.915L187.859 31.3223C187.425 32.5039 186.99 32.8457 186.058 32.8457ZM193.899 31V23.6465H194.749V28.0361H194.827L197.103 25.7363H198.133L195.838 27.9482L198.284 31H197.215L195.242 28.5244L194.749 29.0029V31H193.899ZM201.185 31.0928C199.681 31.0928 198.772 30.0381 198.772 28.3877V28.3828C198.772 26.7568 199.7 25.6436 201.131 25.6436C202.562 25.6436 203.431 26.708 203.431 28.2803V28.6123H199.642C199.666 29.7012 200.267 30.3359 201.204 30.3359C201.917 30.3359 202.356 29.999 202.498 29.6816L202.518 29.6377H203.367L203.357 29.6768C203.177 30.3896 202.425 31.0928 201.185 31.0928ZM201.126 26.4004C200.345 26.4004 199.749 26.9326 199.656 27.9336H202.566C202.479 26.8936 201.902 26.4004 201.126 26.4004ZM205.101 32.8457C204.988 32.8457 204.842 32.8359 204.725 32.8164V32.1182C204.827 32.1377 204.959 32.1426 205.076 32.1426C205.56 32.1426 205.853 31.9229 206.043 31.3174L206.141 31.0049L204.192 25.7363H205.101L206.546 30.0674H206.624L208.064 25.7363H208.958L206.902 31.3223C206.468 32.5039 206.033 32.8457 205.101 32.8457ZM212.894 31V25.7363H213.743V26.5176H213.821C214.021 25.9658 214.515 25.6436 215.228 25.6436C215.389 25.6436 215.569 25.6631 215.652 25.6777V26.5029C215.477 26.4736 215.315 26.4541 215.13 26.4541C214.319 26.4541 213.743 26.9668 213.743 27.7383V31H212.894ZM218.147 31.0928C217.146 31.0928 216.39 30.4873 216.39 29.5303V29.5205C216.39 28.583 217.083 28.041 218.309 27.9678L219.817 27.875V27.3965C219.817 26.7471 219.422 26.3955 218.636 26.3955C218.006 26.3955 217.591 26.6299 217.454 27.04L217.449 27.0547H216.6L216.604 27.0254C216.741 26.2002 217.542 25.6436 218.665 25.6436C219.949 25.6436 220.667 26.3027 220.667 27.3965V31H219.817V30.2236H219.739C219.407 30.7852 218.855 31.0928 218.147 31.0928ZM217.259 29.5107C217.259 30.043 217.713 30.3555 218.323 30.3555C219.188 30.3555 219.817 29.7891 219.817 29.0371V28.5586L218.411 28.6465C217.61 28.6953 217.259 28.9785 217.259 29.501V29.5107ZM224.09 31.0391C223.006 31.0391 222.552 30.6387 222.552 29.6328V26.4395H221.722V25.7363H222.552V24.374H223.431V25.7363H224.583V26.4395H223.431V29.418C223.431 30.0381 223.646 30.2871 224.192 30.2871C224.344 30.2871 224.427 30.2822 224.583 30.2676V30.9902C224.417 31.0195 224.256 31.0391 224.09 31.0391ZM226.302 24.7207C225.979 24.7207 225.716 24.457 225.716 24.1348C225.716 23.8125 225.979 23.5488 226.302 23.5488C226.624 23.5488 226.888 23.8125 226.888 24.1348C226.888 24.457 226.624 24.7207 226.302 24.7207ZM225.872 31V25.7363H226.722V31H225.872ZM228.323 31V25.7363H229.173V26.5273H229.251C229.515 25.9707 230.008 25.6436 230.784 25.6436C231.966 25.6436 232.625 26.3418 232.625 27.5918V31H231.775V27.7969C231.775 26.8496 231.385 26.3955 230.545 26.3955C229.705 26.3955 229.173 26.9619 229.173 27.8848V31H228.323ZM236.331 32.8555C235.062 32.8555 234.251 32.2842 234.119 31.4199L234.129 31.415H235.008L235.013 31.4199C235.105 31.8203 235.574 32.1035 236.331 32.1035C237.273 32.1035 237.835 31.6592 237.835 30.8828V29.8184H237.757C237.425 30.3994 236.829 30.7266 236.106 30.7266C234.744 30.7266 233.899 29.6719 233.899 28.1973V28.1875C233.899 26.7129 234.749 25.6436 236.126 25.6436C236.868 25.6436 237.444 26.0098 237.767 26.6055H237.825V25.7363H238.675V30.9268C238.675 32.1035 237.767 32.8555 236.331 32.8555ZM236.292 29.9746C237.269 29.9746 237.854 29.2422 237.854 28.1973V28.1875C237.854 27.1426 237.264 26.3955 236.292 26.3955C235.315 26.3955 234.769 27.1426 234.769 28.1875V28.1973C234.769 29.2422 235.315 29.9746 236.292 29.9746ZM187.635 44.7578C186.683 43.4932 186.248 42.0186 186.248 40.2021C186.248 38.3906 186.678 36.9111 187.635 35.6465H188.348C187.64 36.5498 187.112 38.5078 187.112 40.2021C187.112 41.9111 187.64 43.8545 188.348 44.7578H187.635ZM191.121 43.0928C190.12 43.0928 189.363 42.4873 189.363 41.5303V41.5205C189.363 40.583 190.057 40.041 191.282 39.9678L192.791 39.875V39.3965C192.791 38.7471 192.396 38.3955 191.609 38.3955C190.979 38.3955 190.564 38.6299 190.428 39.04L190.423 39.0547H189.573L189.578 39.0254C189.715 38.2002 190.516 37.6436 191.639 37.6436C192.923 37.6436 193.641 38.3027 193.641 39.3965V43H192.791V42.2236H192.713C192.381 42.7852 191.829 43.0928 191.121 43.0928ZM190.232 41.5107C190.232 42.043 190.687 42.3555 191.297 42.3555C192.161 42.3555 192.791 41.7891 192.791 41.0371V40.5586L191.385 40.6465C190.584 40.6953 190.232 40.9785 190.232 41.501V41.5107ZM197.347 43.0928C195.872 43.0928 194.93 42.0234 194.93 40.3535V40.3438C194.93 38.708 195.867 37.6436 197.342 37.6436C198.621 37.6436 199.388 38.3809 199.544 39.3184L199.549 39.3477H198.704L198.699 39.333C198.567 38.8154 198.099 38.3955 197.342 38.3955C196.395 38.3955 195.799 39.1572 195.799 40.3438V40.3535C195.799 41.5645 196.404 42.3408 197.342 42.3408C198.05 42.3408 198.499 42.0283 198.694 41.4424L198.704 41.4131L199.544 41.4082L199.534 41.4619C199.319 42.4141 198.611 43.0928 197.347 43.0928ZM202.757 43.0391C201.673 43.0391 201.219 42.6387 201.219 41.6328V38.4395H200.389V37.7363H201.219V36.374H202.098V37.7363H203.25V38.4395H202.098V41.418C202.098 42.0381 202.312 42.2871 202.859 42.2871C203.011 42.2871 203.094 42.2822 203.25 42.2676V42.9902C203.084 43.0195 202.923 43.0391 202.757 43.0391ZM206.282 43.0928C205.086 43.0928 204.471 42.3896 204.471 41.1445V37.7363H205.32V40.9395C205.32 41.8867 205.662 42.3408 206.502 42.3408C207.43 42.3408 207.923 41.7744 207.923 40.8516V37.7363H208.772V43H207.923V42.2139H207.845C207.586 42.7754 207.054 43.0928 206.282 43.0928ZM211.805 43.0928C210.804 43.0928 210.047 42.4873 210.047 41.5303V41.5205C210.047 40.583 210.74 40.041 211.966 39.9678L213.475 39.875V39.3965C213.475 38.7471 213.079 38.3955 212.293 38.3955C211.663 38.3955 211.248 38.6299 211.111 39.04L211.106 39.0547H210.257L210.262 39.0254C210.398 38.2002 211.199 37.6436 212.322 37.6436C213.606 37.6436 214.324 38.3027 214.324 39.3965V43H213.475V42.2236H213.396C213.064 42.7852 212.513 43.0928 211.805 43.0928ZM210.916 41.5107C210.916 42.043 211.37 42.3555 211.98 42.3555C212.845 42.3555 213.475 41.7891 213.475 41.0371V40.5586L212.068 40.6465C211.268 40.6953 210.916 40.9785 210.916 41.501V41.5107ZM215.926 43V35.6465H216.775V43H215.926ZM218.865 44.7578H218.152C218.86 43.8545 219.388 41.9111 219.388 40.2021C219.388 38.5078 218.86 36.5498 218.152 35.6465H218.865C219.822 36.9111 220.252 38.3906 220.252 40.2021C220.252 42.0186 219.817 43.4932 218.865 44.7578Z" fill="#202020"/>
<path d="M271.929 29.5711L286.071 15.4289" stroke="#202020" stroke-linecap="round"/>
<path d="M271.929 15.4289L286.071 29.5711" stroke="#202020" stroke-linecap="round"/>
<path d="M4.92896 76.0711L19.0711 61.9289" stroke="#202020" stroke-linecap="round"/>
<path d="M4.92896 61.9289L19.0711 76.0711" stroke="#202020" stroke-linecap="round"/>
<path d="M39.4189 67V59.9541H40.4395L42.8516 65.833H42.9297L45.3418 59.9541H46.3623V67H45.542V61.6191H45.4883L43.2617 67H42.5195L40.293 61.6191H40.2393V67H39.4189ZM47.5977 67L50.1953 59.9541H51.0645L53.6621 67H52.7393L52.0312 64.9834H49.2285L48.5205 67H47.5977ZM50.5908 61.0918L49.4873 64.2363H51.7725L50.6689 61.0918H50.5908ZM54.4336 67L56.8359 63.46V63.4404L54.4629 59.9541H55.5225L57.4072 62.791H57.4365L59.3408 59.9541H60.3418L57.9053 63.4844V63.5039L60.2881 67H59.2334L57.3584 64.1875H57.3291L55.4297 67H54.4336ZM66.5381 67.0928C65.0342 67.0928 64.126 66.0381 64.126 64.3877V64.3828C64.126 62.7568 65.0537 61.6436 66.4844 61.6436C67.915 61.6436 68.7842 62.708 68.7842 64.2803V64.6123H64.9951C65.0195 65.7012 65.6201 66.3359 66.5576 66.3359C67.2705 66.3359 67.71 65.999 67.8516 65.6816L67.8711 65.6377H68.7207L68.7109 65.6768C68.5303 66.3896 67.7783 67.0928 66.5381 67.0928ZM66.4795 62.4004C65.6982 62.4004 65.1025 62.9326 65.0098 63.9336H67.9199C67.832 62.8936 67.2559 62.4004 66.4795 62.4004ZM70.1025 67V61.7363H70.9521V62.5273H71.0303C71.2939 61.9707 71.7871 61.6436 72.5635 61.6436C73.7451 61.6436 74.4043 62.3418 74.4043 63.5918V67H73.5547V63.7969C73.5547 62.8496 73.1641 62.3955 72.3242 62.3955C71.4844 62.3955 70.9521 62.9619 70.9521 63.8848V67H70.1025ZM77.8125 67.0391C76.7285 67.0391 76.2744 66.6387 76.2744 65.6328V62.4395H75.4443V61.7363H76.2744V60.374H77.1533V61.7363H78.3057V62.4395H77.1533V65.418C77.1533 66.0381 77.3682 66.2871 77.915 66.2871C78.0664 66.2871 78.1494 66.2822 78.3057 66.2676V66.9902C78.1396 67.0195 77.9785 67.0391 77.8125 67.0391ZM81.6455 67.0928C80.1416 67.0928 79.2334 66.0381 79.2334 64.3877V64.3828C79.2334 62.7568 80.1611 61.6436 81.5918 61.6436C83.0225 61.6436 83.8916 62.708 83.8916 64.2803V64.6123H80.1025C80.127 65.7012 80.7275 66.3359 81.665 66.3359C82.3779 66.3359 82.8174 65.999 82.959 65.6816L82.9785 65.6377H83.8281L83.8184 65.6768C83.6377 66.3896 82.8857 67.0928 81.6455 67.0928ZM81.5869 62.4004C80.8057 62.4004 80.21 62.9326 80.1172 63.9336H83.0273C82.9395 62.8936 82.3633 62.4004 81.5869 62.4004ZM85.21 67V61.7363H86.0596V62.5176H86.1377C86.3379 61.9658 86.8311 61.6436 87.5439 61.6436C87.7051 61.6436 87.8857 61.6631 87.9688 61.6777V62.5029C87.793 62.4736 87.6318 62.4541 87.4463 62.4541C86.6357 62.4541 86.0596 62.9668 86.0596 63.7383V67H85.21ZM91.0205 67.0928C89.5166 67.0928 88.6084 66.0381 88.6084 64.3877V64.3828C88.6084 62.7568 89.5361 61.6436 90.9668 61.6436C92.3975 61.6436 93.2666 62.708 93.2666 64.2803V64.6123H89.4775C89.502 65.7012 90.1025 66.3359 91.04 66.3359C91.7529 66.3359 92.1924 65.999 92.334 65.6816L92.3535 65.6377H93.2031L93.1934 65.6768C93.0127 66.3896 92.2607 67.0928 91.0205 67.0928ZM90.9619 62.4004C90.1807 62.4004 89.585 62.9326 89.4922 63.9336H92.4023C92.3145 62.8936 91.7383 62.4004 90.9619 62.4004ZM96.5283 67.0928C95.1953 67.0928 94.3213 66.0137 94.3213 64.373V64.3633C94.3213 62.7129 95.1904 61.6436 96.5283 61.6436C97.251 61.6436 97.8809 62.0049 98.1689 62.5664H98.2471V59.6465H99.0967V67H98.2471V66.1602H98.1689C97.8467 66.7461 97.2607 67.0928 96.5283 67.0928ZM96.7236 66.3408C97.6807 66.3408 98.2666 65.5889 98.2666 64.373V64.3633C98.2666 63.1475 97.6807 62.3955 96.7236 62.3955C95.7617 62.3955 95.1904 63.1377 95.1904 64.3633V64.373C95.1904 65.5986 95.7617 66.3408 96.7236 66.3408ZM103.589 67V59.6465H104.438V64.0361H104.517L106.792 61.7363H107.822L105.527 63.9482L107.974 67H106.904L104.932 64.5244L104.438 65.0029V67H103.589ZM110.874 67.0928C109.37 67.0928 108.462 66.0381 108.462 64.3877V64.3828C108.462 62.7568 109.39 61.6436 110.82 61.6436C112.251 61.6436 113.12 62.708 113.12 64.2803V64.6123H109.331C109.355 65.7012 109.956 66.3359 110.894 66.3359C111.606 66.3359 112.046 65.999 112.188 65.6816L112.207 65.6377H113.057L113.047 65.6768C112.866 66.3896 112.114 67.0928 110.874 67.0928ZM110.815 62.4004C110.034 62.4004 109.438 62.9326 109.346 63.9336H112.256C112.168 62.8936 111.592 62.4004 110.815 62.4004ZM114.79 68.8457C114.678 68.8457 114.531 68.8359 114.414 68.8164V68.1182C114.517 68.1377 114.648 68.1426 114.766 68.1426C115.249 68.1426 115.542 67.9229 115.732 67.3174L115.83 67.0049L113.882 61.7363H114.79L116.235 66.0674H116.313L117.754 61.7363H118.647L116.592 67.3223C116.157 68.5039 115.723 68.8457 114.79 68.8457ZM66.8896 79.0928C65.8887 79.0928 65.1318 78.4873 65.1318 77.5303V77.5205C65.1318 76.583 65.8252 76.041 67.0508 75.9678L68.5596 75.875V75.3965C68.5596 74.7471 68.1641 74.3955 67.3779 74.3955C66.748 74.3955 66.333 74.6299 66.1963 75.04L66.1914 75.0547H65.3418L65.3467 75.0254C65.4834 74.2002 66.2842 73.6436 67.4072 73.6436C68.6914 73.6436 69.4092 74.3027 69.4092 75.3965V79H68.5596V78.2236H68.4814C68.1494 78.7852 67.5977 79.0928 66.8896 79.0928ZM66.001 77.5107C66.001 78.043 66.4551 78.3555 67.0654 78.3555C67.9297 78.3555 68.5596 77.7891 68.5596 77.0371V76.5586L67.1533 76.6465C66.3525 76.6953 66.001 76.9785 66.001 77.501V77.5107ZM73.5791 79.0928C72.8467 79.0928 72.2607 78.7461 71.9385 78.1602H71.8604V79H71.0107V71.6465H71.8604V74.5664H71.9385C72.2266 74.0049 72.8564 73.6436 73.5791 73.6436C74.917 73.6436 75.7861 74.7129 75.7861 76.3633V76.373C75.7861 78.0137 74.9121 79.0928 73.5791 79.0928ZM73.3838 78.3408C74.3457 78.3408 74.917 77.5986 74.917 76.373V76.3633C74.917 75.1377 74.3457 74.3955 73.3838 74.3955C72.4268 74.3955 71.8408 75.1475 71.8408 76.3633V76.373C71.8408 77.5889 72.4268 78.3408 73.3838 78.3408ZM77.5537 72.7207C77.2314 72.7207 76.9678 72.457 76.9678 72.1348C76.9678 71.8125 77.2314 71.5488 77.5537 71.5488C77.876 71.5488 78.1396 71.8125 78.1396 72.1348C78.1396 72.457 77.876 72.7207 77.5537 72.7207ZM77.124 79V73.7363H77.9736V79H77.124ZM79.624 79V71.6465H80.4736V79H79.624ZM82.5537 72.7207C82.2314 72.7207 81.9678 72.457 81.9678 72.1348C81.9678 71.8125 82.2314 71.5488 82.5537 71.5488C82.876 71.5488 83.1396 71.8125 83.1396 72.1348C83.1396 72.457 82.876 72.7207 82.5537 72.7207ZM82.124 79V73.7363H82.9736V79H82.124ZM86.4453 79.0391C85.3613 79.0391 84.9072 78.6387 84.9072 77.6328V74.4395H84.0771V73.7363H84.9072V72.374H85.7861V73.7363H86.9385V74.4395H85.7861V77.418C85.7861 78.0381 86.001 78.2871 86.5479 78.2871C86.6992 78.2871 86.7822 78.2822 86.9385 78.2676V78.9902C86.7725 79.0195 86.6113 79.0391 86.4453 79.0391ZM88.6572 80.8457C88.5449 80.8457 88.3984 80.8359 88.2812 80.8164V80.1182C88.3838 80.1377 88.5156 80.1426 88.6328 80.1426C89.1162 80.1426 89.4092 79.9229 89.5996 79.3174L89.6973 79.0049L87.749 73.7363H88.6572L90.1025 78.0674H90.1807L91.6211 73.7363H92.5146L90.459 79.3223C90.0244 80.5039 89.5898 80.8457 88.6572 80.8457Z" fill="#202020"/>
<path d="M138.429 76.0711L152.571 61.9289" stroke="#202020" stroke-linecap="round"/>
<path d="M138.429 61.9289L152.571 76.0711" stroke="#202020" stroke-linecap="round"/>
<path d="M172.724 68.7578C171.771 67.4932 171.337 66.0186 171.337 64.2021C171.337 62.3906 171.767 60.9111 172.724 59.6465H173.437C172.729 60.5498 172.201 62.5078 172.201 64.2021C172.201 65.9111 172.729 67.8545 173.437 68.7578H172.724ZM176.61 67.0928C175.277 67.0928 174.403 66.0137 174.403 64.373V64.3633C174.403 62.7129 175.272 61.6436 176.61 61.6436C177.333 61.6436 177.963 62.0049 178.251 62.5664H178.329V59.6465H179.179V67H178.329V66.1602H178.251C177.929 66.7461 177.343 67.0928 176.61 67.0928ZM176.806 66.3408C177.763 66.3408 178.349 65.5889 178.349 64.373V64.3633C178.349 63.1475 177.763 62.3955 176.806 62.3955C175.844 62.3955 175.272 63.1377 175.272 64.3633V64.373C175.272 65.5986 175.844 66.3408 176.806 66.3408ZM182.255 67.0928C181.254 67.0928 180.497 66.4873 180.497 65.5303V65.5205C180.497 64.583 181.19 64.041 182.416 63.9678L183.925 63.875V63.3965C183.925 62.7471 183.529 62.3955 182.743 62.3955C182.113 62.3955 181.698 62.6299 181.562 63.04L181.557 63.0547H180.707L180.712 63.0254C180.849 62.2002 181.649 61.6436 182.772 61.6436C184.057 61.6436 184.774 62.3027 184.774 63.3965V67H183.925V66.2236H183.847C183.515 66.7852 182.963 67.0928 182.255 67.0928ZM181.366 65.5107C181.366 66.043 181.82 66.3555 182.431 66.3555C183.295 66.3555 183.925 65.7891 183.925 65.0371V64.5586L182.519 64.6465C181.718 64.6953 181.366 64.9785 181.366 65.501V65.5107ZM186.776 60.7207C186.454 60.7207 186.19 60.457 186.19 60.1348C186.19 59.8125 186.454 59.5488 186.776 59.5488C187.099 59.5488 187.362 59.8125 187.362 60.1348C187.362 60.457 187.099 60.7207 186.776 60.7207ZM186.347 67V61.7363H187.196V67H186.347ZM188.847 67V59.6465H189.696V67H188.847ZM191.776 68.8457C191.664 68.8457 191.518 68.8359 191.4 68.8164V68.1182C191.503 68.1377 191.635 68.1426 191.752 68.1426C192.235 68.1426 192.528 67.9229 192.719 67.3174L192.816 67.0049L190.868 61.7363H191.776L193.222 66.0674H193.3L194.74 61.7363H195.634L193.578 67.3223C193.144 68.5039 192.709 68.8457 191.776 68.8457ZM201.439 67.0391C200.355 67.0391 199.901 66.6387 199.901 65.6328V62.4395H199.071V61.7363H199.901V60.374H200.78V61.7363H201.933V62.4395H200.78V65.418C200.78 66.0381 200.995 66.2871 201.542 66.2871C201.693 66.2871 201.776 66.2822 201.933 66.2676V66.9902C201.767 67.0195 201.605 67.0391 201.439 67.0391ZM204.647 67.0928C203.646 67.0928 202.89 66.4873 202.89 65.5303V65.5205C202.89 64.583 203.583 64.041 204.809 63.9678L206.317 63.875V63.3965C206.317 62.7471 205.922 62.3955 205.136 62.3955C204.506 62.3955 204.091 62.6299 203.954 63.04L203.949 63.0547H203.1L203.104 63.0254C203.241 62.2002 204.042 61.6436 205.165 61.6436C206.449 61.6436 207.167 62.3027 207.167 63.3965V67H206.317V66.2236H206.239C205.907 66.7852 205.355 67.0928 204.647 67.0928ZM203.759 65.5107C203.759 66.043 204.213 66.3555 204.823 66.3555C205.688 66.3555 206.317 65.7891 206.317 65.0371V64.5586L204.911 64.6465C204.11 64.6953 203.759 64.9785 203.759 65.501V65.5107ZM210.888 68.8555C209.618 68.8555 208.808 68.2842 208.676 67.4199L208.686 67.415H209.564L209.569 67.4199C209.662 67.8203 210.131 68.1035 210.888 68.1035C211.83 68.1035 212.392 67.6592 212.392 66.8828V65.8184H212.313C211.981 66.3994 211.386 66.7266 210.663 66.7266C209.301 66.7266 208.456 65.6719 208.456 64.1973V64.1875C208.456 62.7129 209.306 61.6436 210.683 61.6436C211.425 61.6436 212.001 62.0098 212.323 62.6055H212.382V61.7363H213.231V66.9268C213.231 68.1035 212.323 68.8555 210.888 68.8555ZM210.849 65.9746C211.825 65.9746 212.411 65.2422 212.411 64.1973V64.1875C212.411 63.1426 211.82 62.3955 210.849 62.3955C209.872 62.3955 209.325 63.1426 209.325 64.1875V64.1973C209.325 65.2422 209.872 65.9746 210.849 65.9746ZM219.389 67.0928C218.192 67.0928 217.577 66.3896 217.577 65.1445V61.7363H218.427V64.9395C218.427 65.8867 218.769 66.3408 219.608 66.3408C220.536 66.3408 221.029 65.7744 221.029 64.8516V61.7363H221.879V67H221.029V66.2139H220.951C220.692 66.7754 220.16 67.0928 219.389 67.0928ZM225.272 67.0928C224.101 67.0928 223.295 66.5264 223.197 65.6572H224.066C224.208 66.0967 224.628 66.3848 225.302 66.3848C226.01 66.3848 226.513 66.0479 226.513 65.5693V65.5596C226.513 65.2031 226.244 64.9541 225.595 64.7979L224.779 64.6025C223.793 64.3682 223.349 63.9385 223.349 63.1816V63.1768C223.349 62.3027 224.188 61.6436 225.307 61.6436C226.41 61.6436 227.177 62.1953 227.294 63.0547H226.459C226.347 62.6396 225.937 62.3516 225.302 62.3516C224.677 62.3516 224.218 62.6738 224.218 63.1377V63.1475C224.218 63.5039 224.481 63.7285 225.102 63.8799L225.912 64.0752C226.903 64.3145 227.382 64.7441 227.382 65.4961V65.5059C227.382 66.4434 226.469 67.0928 225.272 67.0928ZM230.146 67.0928C229.145 67.0928 228.388 66.4873 228.388 65.5303V65.5205C228.388 64.583 229.081 64.041 230.307 63.9678L231.815 63.875V63.3965C231.815 62.7471 231.42 62.3955 230.634 62.3955C230.004 62.3955 229.589 62.6299 229.452 63.04L229.447 63.0547H228.598L228.603 63.0254C228.739 62.2002 229.54 61.6436 230.663 61.6436C231.947 61.6436 232.665 62.3027 232.665 63.3965V67H231.815V66.2236H231.737C231.405 66.7852 230.854 67.0928 230.146 67.0928ZM229.257 65.5107C229.257 66.043 229.711 66.3555 230.321 66.3555C231.186 66.3555 231.815 65.7891 231.815 65.0371V64.5586L230.409 64.6465C229.608 64.6953 229.257 64.9785 229.257 65.501V65.5107ZM236.386 68.8555C235.116 68.8555 234.306 68.2842 234.174 67.4199L234.184 67.415H235.062L235.067 67.4199C235.16 67.8203 235.629 68.1035 236.386 68.1035C237.328 68.1035 237.89 67.6592 237.89 66.8828V65.8184H237.812C237.479 66.3994 236.884 66.7266 236.161 66.7266C234.799 66.7266 233.954 65.6719 233.954 64.1973V64.1875C233.954 62.7129 234.804 61.6436 236.181 61.6436C236.923 61.6436 237.499 62.0098 237.821 62.6055H237.88V61.7363H238.729V66.9268C238.729 68.1035 237.821 68.8555 236.386 68.8555ZM236.347 65.9746C237.323 65.9746 237.909 65.2422 237.909 64.1973V64.1875C237.909 63.1426 237.318 62.3955 236.347 62.3955C235.37 62.3955 234.823 63.1426 234.823 64.1875V64.1973C234.823 65.2422 235.37 65.9746 236.347 65.9746ZM242.46 67.0928C240.956 67.0928 240.048 66.0381 240.048 64.3877V64.3828C240.048 62.7568 240.976 61.6436 242.406 61.6436C243.837 61.6436 244.706 62.708 244.706 64.2803V64.6123H240.917C240.941 65.7012 241.542 66.3359 242.479 66.3359C243.192 66.3359 243.632 65.999 243.773 65.6816L243.793 65.6377H244.643L244.633 65.6768C244.452 66.3896 243.7 67.0928 242.46 67.0928ZM242.401 62.4004C241.62 62.4004 241.024 62.9326 240.932 63.9336H243.842C243.754 62.8936 243.178 62.4004 242.401 62.4004ZM248.861 62.3223L249.394 61.7998L251.195 63.6309L252.992 61.7998L253.524 62.3223L251.718 64.1631L253.524 66.0088L252.992 66.5312L251.195 64.7002L249.394 66.5312L248.861 66.0088L250.668 64.1631L248.861 62.3223ZM177.948 74.3223L178.48 73.7998L180.282 75.6309L182.079 73.7998L182.611 74.3223L180.805 76.1631L182.611 78.0088L182.079 78.5312L180.282 76.7002L178.48 78.5312L177.948 78.0088L179.755 76.1631L177.948 74.3223ZM188.974 79V72.7451H186.703V71.9541H192.123V72.7451H189.853V79H188.974ZM193.793 79.0928C192.792 79.0928 192.035 78.4873 192.035 77.5303V77.5205C192.035 76.583 192.729 76.041 193.954 75.9678L195.463 75.875V75.3965C195.463 74.7471 195.067 74.3955 194.281 74.3955C193.651 74.3955 193.236 74.6299 193.1 75.04L193.095 75.0547H192.245L192.25 75.0254C192.387 74.2002 193.188 73.6436 194.311 73.6436C195.595 73.6436 196.312 74.3027 196.312 75.3965V79H195.463V78.2236H195.385C195.053 78.7852 194.501 79.0928 193.793 79.0928ZM192.904 77.5107C192.904 78.043 193.358 78.3555 193.969 78.3555C194.833 78.3555 195.463 77.7891 195.463 77.0371V76.5586L194.057 76.6465C193.256 76.6953 192.904 76.9785 192.904 77.501V77.5107ZM200.033 80.8555C198.764 80.8555 197.953 80.2842 197.821 79.4199L197.831 79.415H198.71L198.715 79.4199C198.808 79.8203 199.276 80.1035 200.033 80.1035C200.976 80.1035 201.537 79.6592 201.537 78.8828V77.8184H201.459C201.127 78.3994 200.531 78.7266 199.809 78.7266C198.446 78.7266 197.602 77.6719 197.602 76.1973V76.1875C197.602 74.7129 198.451 73.6436 199.828 73.6436C200.57 73.6436 201.146 74.0098 201.469 74.6055H201.527V73.7363H202.377V78.9268C202.377 80.1035 201.469 80.8555 200.033 80.8555ZM199.994 77.9746C200.971 77.9746 201.557 77.2422 201.557 76.1973V76.1875C201.557 75.1426 200.966 74.3955 199.994 74.3955C199.018 74.3955 198.471 75.1426 198.471 76.1875V76.1973C198.471 77.2422 199.018 77.9746 199.994 77.9746ZM206.771 80.7578V73.7363H207.621V74.5762H207.699C208.021 73.9902 208.607 73.6436 209.34 73.6436C210.673 73.6436 211.547 74.7227 211.547 76.3633V76.373C211.547 78.0234 210.678 79.0928 209.34 79.0928C208.617 79.0928 207.987 78.7314 207.699 78.1699H207.621V80.7578H206.771ZM209.145 78.3408C210.106 78.3408 210.678 77.5986 210.678 76.373V76.3633C210.678 75.1377 210.106 74.3955 209.145 74.3955C208.188 74.3955 207.602 75.1475 207.602 76.3633V76.373C207.602 77.5889 208.188 78.3408 209.145 78.3408ZM215.038 79.0928C213.539 79.0928 212.611 78.0576 212.611 76.373V76.3633C212.611 74.6738 213.539 73.6436 215.038 73.6436C216.537 73.6436 217.465 74.6738 217.465 76.3633V76.373C217.465 78.0576 216.537 79.0928 215.038 79.0928ZM215.038 78.3408C216.034 78.3408 216.596 77.6133 216.596 76.373V76.3633C216.596 75.1182 216.034 74.3955 215.038 74.3955C214.042 74.3955 213.48 75.1182 213.48 76.3633V76.373C213.48 77.6133 214.042 78.3408 215.038 78.3408ZM220.59 79.0928C219.418 79.0928 218.612 78.5264 218.515 77.6572H219.384C219.525 78.0967 219.945 78.3848 220.619 78.3848C221.327 78.3848 221.83 78.0479 221.83 77.5693V77.5596C221.83 77.2031 221.562 76.9541 220.912 76.7979L220.097 76.6025C219.11 76.3682 218.666 75.9385 218.666 75.1816V75.1768C218.666 74.3027 219.506 73.6436 220.624 73.6436C221.728 73.6436 222.494 74.1953 222.611 75.0547H221.776C221.664 74.6396 221.254 74.3516 220.619 74.3516C219.994 74.3516 219.535 74.6738 219.535 75.1377V75.1475C219.535 75.5039 219.799 75.7285 220.419 75.8799L221.229 76.0752C222.221 76.3145 222.699 76.7441 222.699 77.4961V77.5059C222.699 78.4434 221.786 79.0928 220.59 79.0928ZM224.467 72.7207C224.145 72.7207 223.881 72.457 223.881 72.1348C223.881 71.8125 224.145 71.5488 224.467 71.5488C224.789 71.5488 225.053 71.8125 225.053 72.1348C225.053 72.457 224.789 72.7207 224.467 72.7207ZM224.037 79V73.7363H224.887V79H224.037ZM228.358 79.0391C227.274 79.0391 226.82 78.6387 226.82 77.6328V74.4395H225.99V73.7363H226.82V72.374H227.699V73.7363H228.852V74.4395H227.699V77.418C227.699 78.0381 227.914 78.2871 228.461 78.2871C228.612 78.2871 228.695 78.2822 228.852 78.2676V78.9902C228.686 79.0195 228.524 79.0391 228.358 79.0391ZM230.57 72.7207C230.248 72.7207 229.984 72.457 229.984 72.1348C229.984 71.8125 230.248 71.5488 230.57 71.5488C230.893 71.5488 231.156 71.8125 231.156 72.1348C231.156 72.457 230.893 72.7207 230.57 72.7207ZM230.141 79V73.7363H230.99V79H230.141ZM234.755 79.0928C233.256 79.0928 232.328 78.0576 232.328 76.373V76.3633C232.328 74.6738 233.256 73.6436 234.755 73.6436C236.254 73.6436 237.182 74.6738 237.182 76.3633V76.373C237.182 78.0576 236.254 79.0928 234.755 79.0928ZM234.755 78.3408C235.751 78.3408 236.312 77.6133 236.312 76.373V76.3633C236.312 75.1182 235.751 74.3955 234.755 74.3955C233.759 74.3955 233.197 75.1182 233.197 76.3633V76.373C233.197 77.6133 233.759 78.3408 234.755 78.3408ZM238.5 79V73.7363H239.35V74.5273H239.428C239.691 73.9707 240.185 73.6436 240.961 73.6436C242.143 73.6436 242.802 74.3418 242.802 75.5918V79H241.952V75.7969C241.952 74.8496 241.562 74.3955 240.722 74.3955C239.882 74.3955 239.35 74.9619 239.35 75.8848V79H238.5ZM244.799 80.7578H244.086C244.794 79.8545 245.321 77.9111 245.321 76.2021C245.321 74.5078 244.794 72.5498 244.086 71.6465H244.799C245.756 72.9111 246.186 74.3906 246.186 76.2021C246.186 78.0186 245.751 79.4932 244.799 80.7578Z" fill="#202020"/>
<path d="M271.929 76.0711L286.071 61.9289" stroke="#202020" stroke-linecap="round"/>
<path d="M271.929 61.9289L286.071 76.0711" stroke="#202020" stroke-linecap="round"/>
<path d="M4.92896 116.571L19.0711 102.429" stroke="#202020" stroke-linecap="round"/>
<path d="M4.92896 102.429L19.0711 116.571" stroke="#202020" stroke-linecap="round"/>
<path d="M96.8887 103.166C95.3457 103.166 94.3496 102.355 94.2471 101.208L94.2422 101.154H95.1211L95.126 101.208C95.1895 101.911 95.9219 102.355 96.9375 102.355C97.8945 102.355 98.5928 101.862 98.5928 101.145V101.14C98.5928 100.554 98.1875 100.153 97.2207 99.9385L96.4395 99.7676C95.0283 99.4551 94.418 98.8057 94.418 97.7852V97.7803C94.4229 96.6133 95.4434 95.7881 96.8984 95.7881C98.3047 95.7881 99.2861 96.6182 99.3594 97.668L99.3643 97.7363H98.4854L98.4756 97.6729C98.3779 97.0527 97.792 96.5938 96.874 96.5986C95.9951 96.6035 95.3164 97.0186 95.3164 97.7559V97.7607C95.3164 98.3223 95.7021 98.7031 96.6592 98.9131L97.4404 99.0889C98.9102 99.416 99.4912 100.007 99.4912 101.022V101.027C99.4912 102.346 98.4609 103.166 96.8887 103.166ZM102.611 103.093C101.415 103.093 100.8 102.39 100.8 101.145V97.7363H101.649V100.939C101.649 101.887 101.991 102.341 102.831 102.341C103.759 102.341 104.252 101.774 104.252 100.852V97.7363H105.102V103H104.252V102.214H104.174C103.915 102.775 103.383 103.093 102.611 103.093ZM108.842 103.093C107.367 103.093 106.425 102.023 106.425 100.354V100.344C106.425 98.708 107.362 97.6436 108.837 97.6436C110.116 97.6436 110.883 98.3809 111.039 99.3184L111.044 99.3477H110.199L110.194 99.333C110.062 98.8154 109.594 98.3955 108.837 98.3955C107.89 98.3955 107.294 99.1572 107.294 100.344V100.354C107.294 101.564 107.899 102.341 108.837 102.341C109.545 102.341 109.994 102.028 110.189 101.442L110.199 101.413L111.039 101.408L111.029 101.462C110.814 102.414 110.106 103.093 108.842 103.093ZM114.438 103.093C112.963 103.093 112.021 102.023 112.021 100.354V100.344C112.021 98.708 112.958 97.6436 114.433 97.6436C115.712 97.6436 116.479 98.3809 116.635 99.3184L116.64 99.3477H115.795L115.79 99.333C115.658 98.8154 115.189 98.3955 114.433 98.3955C113.485 98.3955 112.89 99.1572 112.89 100.344V100.354C112.89 101.564 113.495 102.341 114.433 102.341C115.141 102.341 115.59 102.028 115.785 101.442L115.795 101.413L116.635 101.408L116.625 101.462C116.41 102.414 115.702 103.093 114.438 103.093ZM120.028 103.093C118.524 103.093 117.616 102.038 117.616 100.388V100.383C117.616 98.7568 118.544 97.6436 119.975 97.6436C121.405 97.6436 122.274 98.708 122.274 100.28V100.612H118.485C118.51 101.701 119.11 102.336 120.048 102.336C120.761 102.336 121.2 101.999 121.342 101.682L121.361 101.638H122.211L122.201 101.677C122.021 102.39 121.269 103.093 120.028 103.093ZM119.97 98.4004C119.188 98.4004 118.593 98.9326 118.5 99.9336H121.41C121.322 98.8936 120.746 98.4004 119.97 98.4004ZM125.399 103.093C124.228 103.093 123.422 102.526 123.324 101.657H124.193C124.335 102.097 124.755 102.385 125.429 102.385C126.137 102.385 126.64 102.048 126.64 101.569V101.56C126.64 101.203 126.371 100.954 125.722 100.798L124.906 100.603C123.92 100.368 123.476 99.9385 123.476 99.1816V99.1768C123.476 98.3027 124.315 97.6436 125.434 97.6436C126.537 97.6436 127.304 98.1953 127.421 99.0547H126.586C126.474 98.6396 126.063 98.3516 125.429 98.3516C124.804 98.3516 124.345 98.6738 124.345 99.1377V99.1475C124.345 99.5039 124.608 99.7285 125.229 99.8799L126.039 100.075C127.03 100.314 127.509 100.744 127.509 101.496V101.506C127.509 102.443 126.596 103.093 125.399 103.093ZM130.536 103.093C129.364 103.093 128.559 102.526 128.461 101.657H129.33C129.472 102.097 129.892 102.385 130.565 102.385C131.273 102.385 131.776 102.048 131.776 101.569V101.56C131.776 101.203 131.508 100.954 130.858 100.798L130.043 100.603C129.057 100.368 128.612 99.9385 128.612 99.1816V99.1768C128.612 98.3027 129.452 97.6436 130.57 97.6436C131.674 97.6436 132.44 98.1953 132.558 99.0547H131.723C131.61 98.6396 131.2 98.3516 130.565 98.3516C129.94 98.3516 129.481 98.6738 129.481 99.1377V99.1475C129.481 99.5039 129.745 99.7285 130.365 99.8799L131.176 100.075C132.167 100.314 132.646 100.744 132.646 101.496V101.506C132.646 102.443 131.732 103.093 130.536 103.093ZM136.776 103V97.7363H137.626V98.5176H137.704C137.904 97.9658 138.397 97.6436 139.11 97.6436C139.271 97.6436 139.452 97.6631 139.535 97.6777V98.5029C139.359 98.4736 139.198 98.4541 139.013 98.4541C138.202 98.4541 137.626 98.9668 137.626 99.7383V103H136.776ZM142.03 103.093C141.029 103.093 140.272 102.487 140.272 101.53V101.521C140.272 100.583 140.966 100.041 142.191 99.9678L143.7 99.875V99.3965C143.7 98.7471 143.305 98.3955 142.519 98.3955C141.889 98.3955 141.474 98.6299 141.337 99.04L141.332 99.0547H140.482L140.487 99.0254C140.624 98.2002 141.425 97.6436 142.548 97.6436C143.832 97.6436 144.55 98.3027 144.55 99.3965V103H143.7V102.224H143.622C143.29 102.785 142.738 103.093 142.03 103.093ZM141.142 101.511C141.142 102.043 141.596 102.355 142.206 102.355C143.07 102.355 143.7 101.789 143.7 101.037V100.559L142.294 100.646C141.493 100.695 141.142 100.979 141.142 101.501V101.511ZM147.973 103.039C146.889 103.039 146.435 102.639 146.435 101.633V98.4395H145.604V97.7363H146.435V96.374H147.313V97.7363H148.466V98.4395H147.313V101.418C147.313 102.038 147.528 102.287 148.075 102.287C148.227 102.287 148.31 102.282 148.466 102.268V102.99C148.3 103.02 148.139 103.039 147.973 103.039ZM151.806 103.093C150.302 103.093 149.394 102.038 149.394 100.388V100.383C149.394 98.7568 150.321 97.6436 151.752 97.6436C153.183 97.6436 154.052 98.708 154.052 100.28V100.612H150.263C150.287 101.701 150.888 102.336 151.825 102.336C152.538 102.336 152.978 101.999 153.119 101.682L153.139 101.638H153.988L153.979 101.677C153.798 102.39 153.046 103.093 151.806 103.093ZM151.747 98.4004C150.966 98.4004 150.37 98.9326 150.277 99.9336H153.188C153.1 98.8936 152.523 98.4004 151.747 98.4004ZM160.346 103.093C158.847 103.093 157.919 102.058 157.919 100.373V100.363C157.919 98.6738 158.847 97.6436 160.346 97.6436C161.845 97.6436 162.772 98.6738 162.772 100.363V100.373C162.772 102.058 161.845 103.093 160.346 103.093ZM160.346 102.341C161.342 102.341 161.903 101.613 161.903 100.373V100.363C161.903 99.1182 161.342 98.3955 160.346 98.3955C159.35 98.3955 158.788 99.1182 158.788 100.363V100.373C158.788 101.613 159.35 102.341 160.346 102.341ZM164.442 103V98.4395H163.568V97.7363H164.442V97.1504C164.442 96.1006 164.97 95.5977 165.971 95.5977C166.176 95.5977 166.361 95.6123 166.537 95.6465V96.3252C166.435 96.3057 166.293 96.3008 166.142 96.3008C165.536 96.3008 165.292 96.5986 165.292 97.1748V97.7363H166.488V98.4395H165.292V103H164.442ZM172.333 103.093C171.161 103.093 170.355 102.526 170.258 101.657H171.127C171.269 102.097 171.688 102.385 172.362 102.385C173.07 102.385 173.573 102.048 173.573 101.569V101.56C173.573 101.203 173.305 100.954 172.655 100.798L171.84 100.603C170.854 100.368 170.409 99.9385 170.409 99.1816V99.1768C170.409 98.3027 171.249 97.6436 172.367 97.6436C173.471 97.6436 174.237 98.1953 174.354 99.0547H173.52C173.407 98.6396 172.997 98.3516 172.362 98.3516C171.737 98.3516 171.278 98.6738 171.278 99.1377V99.1475C171.278 99.5039 171.542 99.7285 172.162 99.8799L172.973 100.075C173.964 100.314 174.442 100.744 174.442 101.496V101.506C174.442 102.443 173.529 103.093 172.333 103.093ZM177.909 103.093C176.405 103.093 175.497 102.038 175.497 100.388V100.383C175.497 98.7568 176.425 97.6436 177.855 97.6436C179.286 97.6436 180.155 98.708 180.155 100.28V100.612H176.366C176.391 101.701 176.991 102.336 177.929 102.336C178.642 102.336 179.081 101.999 179.223 101.682L179.242 101.638H180.092L180.082 101.677C179.901 102.39 179.149 103.093 177.909 103.093ZM177.851 98.4004C177.069 98.4004 176.474 98.9326 176.381 99.9336H179.291C179.203 98.8936 178.627 98.4004 177.851 98.4004ZM181.522 103V95.6465H182.372V103H181.522ZM186.151 103.093C184.647 103.093 183.739 102.038 183.739 100.388V100.383C183.739 98.7568 184.667 97.6436 186.098 97.6436C187.528 97.6436 188.397 98.708 188.397 100.28V100.612H184.608C184.633 101.701 185.233 102.336 186.171 102.336C186.884 102.336 187.323 101.999 187.465 101.682L187.484 101.638H188.334L188.324 101.677C188.144 102.39 187.392 103.093 186.151 103.093ZM186.093 98.4004C185.312 98.4004 184.716 98.9326 184.623 99.9336H187.533C187.445 98.8936 186.869 98.4004 186.093 98.4004ZM191.869 103.093C190.395 103.093 189.452 102.023 189.452 100.354V100.344C189.452 98.708 190.39 97.6436 191.864 97.6436C193.144 97.6436 193.91 98.3809 194.066 99.3184L194.071 99.3477H193.227L193.222 99.333C193.09 98.8154 192.621 98.3955 191.864 98.3955C190.917 98.3955 190.321 99.1572 190.321 100.344V100.354C190.321 101.564 190.927 102.341 191.864 102.341C192.572 102.341 193.021 102.028 193.217 101.442L193.227 101.413L194.066 101.408L194.057 101.462C193.842 102.414 193.134 103.093 191.869 103.093ZM197.279 103.039C196.195 103.039 195.741 102.639 195.741 101.633V98.4395H194.911V97.7363H195.741V96.374H196.62V97.7363H197.772V98.4395H196.62V101.418C196.62 102.038 196.835 102.287 197.382 102.287C197.533 102.287 197.616 102.282 197.772 102.268V102.99C197.606 103.02 197.445 103.039 197.279 103.039ZM201.112 103.093C199.608 103.093 198.7 102.038 198.7 100.388V100.383C198.7 98.7568 199.628 97.6436 201.059 97.6436C202.489 97.6436 203.358 98.708 203.358 100.28V100.612H199.569C199.594 101.701 200.194 102.336 201.132 102.336C201.845 102.336 202.284 101.999 202.426 101.682L202.445 101.638H203.295L203.285 101.677C203.104 102.39 202.353 103.093 201.112 103.093ZM201.054 98.4004C200.272 98.4004 199.677 98.9326 199.584 99.9336H202.494C202.406 98.8936 201.83 98.4004 201.054 98.4004ZM206.62 103.093C205.287 103.093 204.413 102.014 204.413 100.373V100.363C204.413 98.7129 205.282 97.6436 206.62 97.6436C207.343 97.6436 207.973 98.0049 208.261 98.5664H208.339V95.6465H209.188V103H208.339V102.16H208.261C207.938 102.746 207.353 103.093 206.62 103.093ZM206.815 102.341C207.772 102.341 208.358 101.589 208.358 100.373V100.363C208.358 99.1475 207.772 98.3955 206.815 98.3955C205.854 98.3955 205.282 99.1377 205.282 100.363V100.373C205.282 101.599 205.854 102.341 206.815 102.341ZM215.502 103.039C214.418 103.039 213.964 102.639 213.964 101.633V98.4395H213.134V97.7363H213.964V96.374H214.843V97.7363H215.995V98.4395H214.843V101.418C214.843 102.038 215.058 102.287 215.604 102.287C215.756 102.287 215.839 102.282 215.995 102.268V102.99C215.829 103.02 215.668 103.039 215.502 103.039ZM218.71 103.093C217.709 103.093 216.952 102.487 216.952 101.53V101.521C216.952 100.583 217.646 100.041 218.871 99.9678L220.38 99.875V99.3965C220.38 98.7471 219.984 98.3955 219.198 98.3955C218.568 98.3955 218.153 98.6299 218.017 99.04L218.012 99.0547H217.162L217.167 99.0254C217.304 98.2002 218.104 97.6436 219.228 97.6436C220.512 97.6436 221.229 98.3027 221.229 99.3965V103H220.38V102.224H220.302C219.97 102.785 219.418 103.093 218.71 103.093ZM217.821 101.511C217.821 102.043 218.275 102.355 218.886 102.355C219.75 102.355 220.38 101.789 220.38 101.037V100.559L218.974 100.646C218.173 100.695 217.821 100.979 217.821 101.501V101.511ZM224.95 104.855C223.681 104.855 222.87 104.284 222.738 103.42L222.748 103.415H223.627L223.632 103.42C223.725 103.82 224.193 104.104 224.95 104.104C225.893 104.104 226.454 103.659 226.454 102.883V101.818H226.376C226.044 102.399 225.448 102.727 224.726 102.727C223.363 102.727 222.519 101.672 222.519 100.197V100.188C222.519 98.7129 223.368 97.6436 224.745 97.6436C225.487 97.6436 226.063 98.0098 226.386 98.6055H226.444V97.7363H227.294V102.927C227.294 104.104 226.386 104.855 224.95 104.855ZM224.911 101.975C225.888 101.975 226.474 101.242 226.474 100.197V100.188C226.474 99.1426 225.883 98.3955 224.911 98.3955C223.935 98.3955 223.388 99.1426 223.388 100.188V100.197C223.388 101.242 223.935 101.975 224.911 101.975ZM230.683 103.093C229.511 103.093 228.705 102.526 228.607 101.657H229.477C229.618 102.097 230.038 102.385 230.712 102.385C231.42 102.385 231.923 102.048 231.923 101.569V101.56C231.923 101.203 231.654 100.954 231.005 100.798L230.189 100.603C229.203 100.368 228.759 99.9385 228.759 99.1816V99.1768C228.759 98.3027 229.599 97.6436 230.717 97.6436C231.82 97.6436 232.587 98.1953 232.704 99.0547H231.869C231.757 98.6396 231.347 98.3516 230.712 98.3516C230.087 98.3516 229.628 98.6738 229.628 99.1377V99.1475C229.628 99.5039 229.892 99.7285 230.512 99.8799L231.322 100.075C232.313 100.314 232.792 100.744 232.792 101.496V101.506C232.792 102.443 231.879 103.093 230.683 103.093Z" fill="#202020"/>
<rect x="36" y="109" width="255" height="1" fill="#202020"/>
<path d="M81.3711 124V116.954H84.0615C85.4189 116.954 86.3076 117.784 86.3076 119.049V119.059C86.3076 120.035 85.7754 120.797 84.8916 121.075L86.5225 124H85.4922L83.9834 121.212H82.25V124H81.3711ZM82.25 120.431H83.9834C84.8867 120.431 85.3994 119.947 85.3994 119.088V119.078C85.3994 118.238 84.8525 117.735 83.9443 117.735H82.25V120.431ZM89.7988 124.093C88.2949 124.093 87.3867 123.038 87.3867 121.388V121.383C87.3867 119.757 88.3145 118.644 89.7451 118.644C91.1758 118.644 92.0449 119.708 92.0449 121.28V121.612H88.2559C88.2803 122.701 88.8809 123.336 89.8184 123.336C90.5312 123.336 90.9707 122.999 91.1123 122.682L91.1318 122.638H91.9814L91.9717 122.677C91.791 123.39 91.0391 124.093 89.7988 124.093ZM89.7402 119.4C88.959 119.4 88.3633 119.933 88.2705 120.934H91.1807C91.0928 119.894 90.5166 119.4 89.7402 119.4ZM93.4121 124V116.646H94.2617V124H93.4121ZM98.041 124.093C96.5371 124.093 95.6289 123.038 95.6289 121.388V121.383C95.6289 119.757 96.5566 118.644 97.9873 118.644C99.418 118.644 100.287 119.708 100.287 121.28V121.612H96.498C96.5225 122.701 97.123 123.336 98.0605 123.336C98.7734 123.336 99.2129 122.999 99.3545 122.682L99.374 122.638H100.224L100.214 122.677C100.033 123.39 99.2812 124.093 98.041 124.093ZM97.9824 119.4C97.2012 119.4 96.6055 119.933 96.5127 120.934H99.4229C99.335 119.894 98.7588 119.4 97.9824 119.4ZM102.997 124L101.049 118.736H101.947L103.388 123.072H103.466L104.906 118.736H105.805L103.856 124H102.997ZM108.178 124.093C107.177 124.093 106.42 123.487 106.42 122.53V122.521C106.42 121.583 107.113 121.041 108.339 120.968L109.848 120.875V120.396C109.848 119.747 109.452 119.396 108.666 119.396C108.036 119.396 107.621 119.63 107.484 120.04L107.479 120.055H106.63L106.635 120.025C106.771 119.2 107.572 118.644 108.695 118.644C109.979 118.644 110.697 119.303 110.697 120.396V124H109.848V123.224H109.77C109.438 123.785 108.886 124.093 108.178 124.093ZM107.289 122.511C107.289 123.043 107.743 123.355 108.354 123.355C109.218 123.355 109.848 122.789 109.848 122.037V121.559L108.441 121.646C107.641 121.695 107.289 121.979 107.289 122.501V122.511ZM112.25 124V118.736H113.1V119.527H113.178C113.441 118.971 113.935 118.644 114.711 118.644C115.893 118.644 116.552 119.342 116.552 120.592V124H115.702V120.797C115.702 119.85 115.312 119.396 114.472 119.396C113.632 119.396 113.1 119.962 113.1 120.885V124H112.25ZM120.243 124.093C118.769 124.093 117.826 123.023 117.826 121.354V121.344C117.826 119.708 118.764 118.644 120.238 118.644C121.518 118.644 122.284 119.381 122.44 120.318L122.445 120.348H121.601L121.596 120.333C121.464 119.815 120.995 119.396 120.238 119.396C119.291 119.396 118.695 120.157 118.695 121.344V121.354C118.695 122.564 119.301 123.341 120.238 123.341C120.946 123.341 121.396 123.028 121.591 122.442L121.601 122.413L122.44 122.408L122.431 122.462C122.216 123.414 121.508 124.093 120.243 124.093ZM125.834 124.093C124.33 124.093 123.422 123.038 123.422 121.388V121.383C123.422 119.757 124.35 118.644 125.78 118.644C127.211 118.644 128.08 119.708 128.08 121.28V121.612H124.291C124.315 122.701 124.916 123.336 125.854 123.336C126.566 123.336 127.006 122.999 127.147 122.682L127.167 122.638H128.017L128.007 122.677C127.826 123.39 127.074 124.093 125.834 124.093ZM125.775 119.4C124.994 119.4 124.398 119.933 124.306 120.934H127.216C127.128 119.894 126.552 119.4 125.775 119.4ZM134.374 124.093C132.875 124.093 131.947 123.058 131.947 121.373V121.363C131.947 119.674 132.875 118.644 134.374 118.644C135.873 118.644 136.801 119.674 136.801 121.363V121.373C136.801 123.058 135.873 124.093 134.374 124.093ZM134.374 123.341C135.37 123.341 135.932 122.613 135.932 121.373V121.363C135.932 120.118 135.37 119.396 134.374 119.396C133.378 119.396 132.816 120.118 132.816 121.363V121.373C132.816 122.613 133.378 123.341 134.374 123.341ZM138.471 124V119.439H137.597V118.736H138.471V118.15C138.471 117.101 138.998 116.598 139.999 116.598C140.204 116.598 140.39 116.612 140.565 116.646V117.325C140.463 117.306 140.321 117.301 140.17 117.301C139.564 117.301 139.32 117.599 139.32 118.175V118.736H140.517V119.439H139.32V124H138.471ZM146.361 124.093C145.189 124.093 144.384 123.526 144.286 122.657H145.155C145.297 123.097 145.717 123.385 146.391 123.385C147.099 123.385 147.602 123.048 147.602 122.569V122.56C147.602 122.203 147.333 121.954 146.684 121.798L145.868 121.603C144.882 121.368 144.438 120.938 144.438 120.182V120.177C144.438 119.303 145.277 118.644 146.396 118.644C147.499 118.644 148.266 119.195 148.383 120.055H147.548C147.436 119.64 147.025 119.352 146.391 119.352C145.766 119.352 145.307 119.674 145.307 120.138V120.147C145.307 120.504 145.57 120.729 146.19 120.88L147.001 121.075C147.992 121.314 148.471 121.744 148.471 122.496V122.506C148.471 123.443 147.558 124.093 146.361 124.093ZM151.938 124.093C150.434 124.093 149.525 123.038 149.525 121.388V121.383C149.525 119.757 150.453 118.644 151.884 118.644C153.314 118.644 154.184 119.708 154.184 121.28V121.612H150.395C150.419 122.701 151.02 123.336 151.957 123.336C152.67 123.336 153.109 122.999 153.251 122.682L153.271 122.638H154.12L154.11 122.677C153.93 123.39 153.178 124.093 151.938 124.093ZM151.879 119.4C151.098 119.4 150.502 119.933 150.409 120.934H153.319C153.231 119.894 152.655 119.4 151.879 119.4ZM155.551 124V116.646H156.4V124H155.551ZM160.18 124.093C158.676 124.093 157.768 123.038 157.768 121.388V121.383C157.768 119.757 158.695 118.644 160.126 118.644C161.557 118.644 162.426 119.708 162.426 121.28V121.612H158.637C158.661 122.701 159.262 123.336 160.199 123.336C160.912 123.336 161.352 122.999 161.493 122.682L161.513 122.638H162.362L162.353 122.677C162.172 123.39 161.42 124.093 160.18 124.093ZM160.121 119.4C159.34 119.4 158.744 119.933 158.651 120.934H161.562C161.474 119.894 160.897 119.4 160.121 119.4ZM165.897 124.093C164.423 124.093 163.48 123.023 163.48 121.354V121.344C163.48 119.708 164.418 118.644 165.893 118.644C167.172 118.644 167.938 119.381 168.095 120.318L168.1 120.348H167.255L167.25 120.333C167.118 119.815 166.649 119.396 165.893 119.396C164.945 119.396 164.35 120.157 164.35 121.344V121.354C164.35 122.564 164.955 123.341 165.893 123.341C166.601 123.341 167.05 123.028 167.245 122.442L167.255 122.413L168.095 122.408L168.085 122.462C167.87 123.414 167.162 124.093 165.897 124.093ZM171.308 124.039C170.224 124.039 169.77 123.639 169.77 122.633V119.439H168.939V118.736H169.77V117.374H170.648V118.736H171.801V119.439H170.648V122.418C170.648 123.038 170.863 123.287 171.41 123.287C171.562 123.287 171.645 123.282 171.801 123.268V123.99C171.635 124.02 171.474 124.039 171.308 124.039ZM175.141 124.093C173.637 124.093 172.729 123.038 172.729 121.388V121.383C172.729 119.757 173.656 118.644 175.087 118.644C176.518 118.644 177.387 119.708 177.387 121.28V121.612H173.598C173.622 122.701 174.223 123.336 175.16 123.336C175.873 123.336 176.312 122.999 176.454 122.682L176.474 122.638H177.323L177.313 122.677C177.133 123.39 176.381 124.093 175.141 124.093ZM175.082 119.4C174.301 119.4 173.705 119.933 173.612 120.934H176.522C176.435 119.894 175.858 119.4 175.082 119.4ZM180.648 124.093C179.315 124.093 178.441 123.014 178.441 121.373V121.363C178.441 119.713 179.311 118.644 180.648 118.644C181.371 118.644 182.001 119.005 182.289 119.566H182.367V116.646H183.217V124H182.367V123.16H182.289C181.967 123.746 181.381 124.093 180.648 124.093ZM180.844 123.341C181.801 123.341 182.387 122.589 182.387 121.373V121.363C182.387 120.147 181.801 119.396 180.844 119.396C179.882 119.396 179.311 120.138 179.311 121.363V121.373C179.311 122.599 179.882 123.341 180.844 123.341ZM189.53 124.039C188.446 124.039 187.992 123.639 187.992 122.633V119.439H187.162V118.736H187.992V117.374H188.871V118.736H190.023V119.439H188.871V122.418C188.871 123.038 189.086 123.287 189.633 123.287C189.784 123.287 189.867 123.282 190.023 123.268V123.99C189.857 124.02 189.696 124.039 189.53 124.039ZM192.738 124.093C191.737 124.093 190.98 123.487 190.98 122.53V122.521C190.98 121.583 191.674 121.041 192.899 120.968L194.408 120.875V120.396C194.408 119.747 194.013 119.396 193.227 119.396C192.597 119.396 192.182 119.63 192.045 120.04L192.04 120.055H191.19L191.195 120.025C191.332 119.2 192.133 118.644 193.256 118.644C194.54 118.644 195.258 119.303 195.258 120.396V124H194.408V123.224H194.33C193.998 123.785 193.446 124.093 192.738 124.093ZM191.85 122.511C191.85 123.043 192.304 123.355 192.914 123.355C193.778 123.355 194.408 122.789 194.408 122.037V121.559L193.002 121.646C192.201 121.695 191.85 121.979 191.85 122.501V122.511ZM198.979 125.855C197.709 125.855 196.898 125.284 196.767 124.42L196.776 124.415H197.655L197.66 124.42C197.753 124.82 198.222 125.104 198.979 125.104C199.921 125.104 200.482 124.659 200.482 123.883V122.818H200.404C200.072 123.399 199.477 123.727 198.754 123.727C197.392 123.727 196.547 122.672 196.547 121.197V121.188C196.547 119.713 197.396 118.644 198.773 118.644C199.516 118.644 200.092 119.01 200.414 119.605H200.473V118.736H201.322V123.927C201.322 125.104 200.414 125.855 198.979 125.855ZM198.939 122.975C199.916 122.975 200.502 122.242 200.502 121.197V121.188C200.502 120.143 199.911 119.396 198.939 119.396C197.963 119.396 197.416 120.143 197.416 121.188V121.197C197.416 122.242 197.963 122.975 198.939 122.975ZM204.711 124.093C203.539 124.093 202.733 123.526 202.636 122.657H203.505C203.646 123.097 204.066 123.385 204.74 123.385C205.448 123.385 205.951 123.048 205.951 122.569V122.56C205.951 122.203 205.683 121.954 205.033 121.798L204.218 121.603C203.231 121.368 202.787 120.938 202.787 120.182V120.177C202.787 119.303 203.627 118.644 204.745 118.644C205.849 118.644 206.615 119.195 206.732 120.055H205.897C205.785 119.64 205.375 119.352 204.74 119.352C204.115 119.352 203.656 119.674 203.656 120.138V120.147C203.656 120.504 203.92 120.729 204.54 120.88L205.351 121.075C206.342 121.314 206.82 121.744 206.82 122.496V122.506C206.82 123.443 205.907 124.093 204.711 124.093ZM212.729 125.758C211.776 124.493 211.342 123.019 211.342 121.202C211.342 119.391 211.771 117.911 212.729 116.646H213.441C212.733 117.55 212.206 119.508 212.206 121.202C212.206 122.911 212.733 124.854 213.441 125.758H212.729ZM216.215 124.093C215.214 124.093 214.457 123.487 214.457 122.53V122.521C214.457 121.583 215.15 121.041 216.376 120.968L217.885 120.875V120.396C217.885 119.747 217.489 119.396 216.703 119.396C216.073 119.396 215.658 119.63 215.521 120.04L215.517 120.055H214.667L214.672 120.025C214.809 119.2 215.609 118.644 216.732 118.644C218.017 118.644 218.734 119.303 218.734 120.396V124H217.885V123.224H217.807C217.475 123.785 216.923 124.093 216.215 124.093ZM215.326 122.511C215.326 123.043 215.78 123.355 216.391 123.355C217.255 123.355 217.885 122.789 217.885 122.037V121.559L216.479 121.646C215.678 121.695 215.326 121.979 215.326 122.501V122.511ZM222.44 124.093C220.966 124.093 220.023 123.023 220.023 121.354V121.344C220.023 119.708 220.961 118.644 222.436 118.644C223.715 118.644 224.481 119.381 224.638 120.318L224.643 120.348H223.798L223.793 120.333C223.661 119.815 223.192 119.396 222.436 119.396C221.488 119.396 220.893 120.157 220.893 121.344V121.354C220.893 122.564 221.498 123.341 222.436 123.341C223.144 123.341 223.593 123.028 223.788 122.442L223.798 122.413L224.638 122.408L224.628 122.462C224.413 123.414 223.705 124.093 222.44 124.093ZM227.851 124.039C226.767 124.039 226.312 123.639 226.312 122.633V119.439H225.482V118.736H226.312V117.374H227.191V118.736H228.344V119.439H227.191V122.418C227.191 123.038 227.406 123.287 227.953 123.287C228.104 123.287 228.188 123.282 228.344 123.268V123.99C228.178 124.02 228.017 124.039 227.851 124.039ZM231.376 124.093C230.18 124.093 229.564 123.39 229.564 122.145V118.736H230.414V121.939C230.414 122.887 230.756 123.341 231.596 123.341C232.523 123.341 233.017 122.774 233.017 121.852V118.736H233.866V124H233.017V123.214H232.938C232.68 123.775 232.147 124.093 231.376 124.093ZM236.898 124.093C235.897 124.093 235.141 123.487 235.141 122.53V122.521C235.141 121.583 235.834 121.041 237.06 120.968L238.568 120.875V120.396C238.568 119.747 238.173 119.396 237.387 119.396C236.757 119.396 236.342 119.63 236.205 120.04L236.2 120.055H235.351L235.355 120.025C235.492 119.2 236.293 118.644 237.416 118.644C238.7 118.644 239.418 119.303 239.418 120.396V124H238.568V123.224H238.49C238.158 123.785 237.606 124.093 236.898 124.093ZM236.01 122.511C236.01 123.043 236.464 123.355 237.074 123.355C237.938 123.355 238.568 122.789 238.568 122.037V121.559L237.162 121.646C236.361 121.695 236.01 121.979 236.01 122.501V122.511ZM241.02 124V116.646H241.869V124H241.02ZM243.959 125.758H243.246C243.954 124.854 244.481 122.911 244.481 121.202C244.481 119.508 243.954 117.55 243.246 116.646H243.959C244.916 117.911 245.346 119.391 245.346 121.202C245.346 123.019 244.911 124.493 243.959 125.758Z" fill="#202020"/>
<rect y="138" width="291" height="2" fill="#202020"/>
<path d="M113.273 162.199C111.42 162.199 110.25 161.312 110.158 159.938L110.153 159.852H111.716L111.721 159.905C111.78 160.485 112.409 160.877 113.316 160.877C114.181 160.877 114.777 160.464 114.777 159.868V159.862C114.777 159.352 114.396 159.067 113.435 158.869L112.618 158.702C111.007 158.375 110.314 157.623 110.314 156.446V156.441C110.314 155.001 111.549 154.051 113.268 154.051C115.078 154.051 116.142 155.007 116.244 156.301L116.249 156.371H114.724L114.713 156.307C114.622 155.753 114.084 155.367 113.268 155.367C112.468 155.372 111.936 155.737 111.936 156.317V156.323C111.936 156.828 112.312 157.128 113.225 157.316L114.047 157.483C115.685 157.821 116.399 158.477 116.399 159.685V159.69C116.399 161.227 115.207 162.199 113.273 162.199ZM120.379 162.124C118.58 162.124 117.49 160.947 117.49 159.051V159.046C117.49 157.166 118.591 155.958 120.315 155.958C122.039 155.958 123.113 157.139 123.113 158.928V159.417H119.042C119.058 160.389 119.579 160.953 120.412 160.953C121.099 160.953 121.48 160.587 121.588 160.362L121.604 160.33H123.065L123.054 160.383C122.872 161.125 122.109 162.124 120.379 162.124ZM120.342 157.134C119.66 157.134 119.155 157.596 119.058 158.434H121.609C121.513 157.574 121.024 157.134 120.342 157.134ZM127.002 162.124C125.154 162.124 124.107 161.001 124.107 159.035V159.024C124.107 157.08 125.149 155.958 127.002 155.958C128.57 155.958 129.5 156.812 129.639 158.133V158.149H128.178L128.173 158.138C128.071 157.563 127.679 157.188 127.007 157.188C126.164 157.188 125.702 157.843 125.702 159.024V159.035C125.702 160.233 126.169 160.894 127.007 160.894C127.652 160.894 128.033 160.587 128.173 159.997L128.184 159.975H129.634L129.628 160.007C129.467 161.296 128.543 162.124 127.002 162.124ZM130.864 162V156.086H132.432V157.005H132.529C132.717 156.366 133.254 155.99 134.022 155.99C134.231 155.99 134.452 156.022 134.607 156.065V157.435C134.371 157.381 134.129 157.343 133.888 157.343C132.996 157.343 132.432 157.854 132.432 158.691V162H130.864ZM138.115 162.124C136.315 162.124 135.225 160.947 135.225 159.051V159.046C135.225 157.166 136.326 155.958 138.05 155.958C139.774 155.958 140.849 157.139 140.849 158.928V159.417H136.777C136.793 160.389 137.314 160.953 138.147 160.953C138.834 160.953 139.216 160.587 139.323 160.362L139.339 160.33H140.8L140.79 160.383C140.607 161.125 139.844 162.124 138.115 162.124ZM138.077 157.134C137.395 157.134 136.89 157.596 136.793 158.434H139.345C139.248 157.574 138.759 157.134 138.077 157.134ZM144.587 162.021C143.147 162.021 142.567 161.554 142.567 160.405V157.268H141.654V156.086H142.567V154.674H144.152V156.086H145.371V157.268H144.152V160.045C144.152 160.577 144.377 160.813 144.909 160.813C145.113 160.813 145.221 160.802 145.371 160.786V161.952C145.178 161.989 144.888 162.021 144.587 162.021ZM151.865 162.124C150.259 162.124 149.346 161.404 149.233 160.389L149.228 160.367H150.769L150.78 160.389C150.903 160.754 151.263 161.017 151.881 161.017C152.482 161.017 152.891 160.759 152.891 160.367V160.356C152.891 160.04 152.654 159.841 152.053 159.707L151.064 159.497C149.937 159.255 149.378 158.702 149.378 157.816V157.811C149.378 156.699 150.366 155.958 151.843 155.958C153.396 155.958 154.255 156.731 154.319 157.682V157.703H152.864L152.858 157.676C152.772 157.359 152.423 157.064 151.838 157.064C151.295 157.064 150.909 157.316 150.909 157.714V157.719C150.909 158.036 151.129 158.219 151.741 158.353L152.724 158.562C153.906 158.815 154.459 159.309 154.459 160.185V160.19C154.459 161.361 153.379 162.124 151.865 162.124ZM157.354 162.091C156.226 162.091 155.426 161.393 155.426 160.319V160.308C155.426 159.245 156.248 158.622 157.719 158.536L159.148 158.45V157.961C159.148 157.451 158.799 157.161 158.154 157.161C157.59 157.161 157.23 157.359 157.107 157.708L157.096 157.73H155.646L155.651 157.682C155.775 156.645 156.752 155.958 158.24 155.958C159.809 155.958 160.695 156.699 160.695 157.961V162H159.148V161.216H159.051C158.75 161.764 158.127 162.091 157.354 162.091ZM156.957 160.222C156.957 160.673 157.338 160.947 157.88 160.947C158.605 160.947 159.148 160.469 159.148 159.846V159.411L157.956 159.486C157.284 159.529 156.957 159.782 156.957 160.211V160.222ZM164.186 162.124C162.859 162.124 162.177 161.318 162.177 159.911V156.086H163.746V159.551C163.746 160.389 164.062 160.824 164.804 160.824C165.577 160.824 165.996 160.303 165.996 159.502V156.086H167.564V162H165.996V161.087H165.899C165.631 161.731 165.029 162.124 164.186 162.124ZM171.743 162.124C169.896 162.124 168.848 161.001 168.848 159.035V159.024C168.848 157.08 169.89 155.958 171.743 155.958C173.312 155.958 174.241 156.812 174.38 158.133V158.149H172.919L172.914 158.138C172.812 157.563 172.42 157.188 171.749 157.188C170.905 157.188 170.443 157.843 170.443 159.024V159.035C170.443 160.233 170.911 160.894 171.749 160.894C172.393 160.894 172.774 160.587 172.914 159.997L172.925 159.975H174.375L174.37 160.007C174.208 161.296 173.285 162.124 171.743 162.124ZM178.205 162.124C176.405 162.124 175.315 160.947 175.315 159.051V159.046C175.315 157.166 176.416 155.958 178.14 155.958C179.864 155.958 180.938 157.139 180.938 158.928V159.417H176.867C176.883 160.389 177.404 160.953 178.237 160.953C178.924 160.953 179.306 160.587 179.413 160.362L179.429 160.33H180.89L180.879 160.383C180.697 161.125 179.934 162.124 178.205 162.124ZM178.167 157.134C177.485 157.134 176.98 157.596 176.883 158.434H179.435C179.338 157.574 178.849 157.134 178.167 157.134Z" fill="#202020"/>
</svg>
