<svg width="1224" height="72" viewBox="0 0 1224 72" fill="none" xmlns="http://www.w3.org/2000/svg">
<path d="M92.0303 10.166C90.2822 10.166 89.2275 9.11133 89.2275 7.57812V2.9541H90.1064V7.51953C90.1064 8.60352 90.8096 9.35547 92.0303 9.35547C93.251 9.35547 93.9443 8.60352 93.9443 7.51953V2.9541H94.8232V7.57812C94.8232 9.11133 93.7783 10.166 92.0303 10.166ZM98.3096 10.0928C97.1377 10.0928 96.332 9.52637 96.2344 8.65723H97.1035C97.2451 9.09668 97.665 9.38477 98.3389 9.38477C99.0469 9.38477 99.5498 9.04785 99.5498 8.56934V8.55957C99.5498 8.20312 99.2812 7.9541 98.6318 7.79785L97.8164 7.60254C96.8301 7.36816 96.3857 6.93848 96.3857 6.18164V6.17676C96.3857 5.30273 97.2256 4.64355 98.3438 4.64355C99.4473 4.64355 100.214 5.19531 100.331 6.05469H99.4961C99.3838 5.63965 98.9736 5.35156 98.3389 5.35156C97.7139 5.35156 97.2549 5.67383 97.2549 6.1377V6.14746C97.2549 6.50391 97.5186 6.72852 98.1387 6.87988L98.9492 7.0752C99.9404 7.31445 100.419 7.74414 100.419 8.49609V8.50586C100.419 9.44336 99.5059 10.0928 98.3096 10.0928ZM103.886 10.0928C102.382 10.0928 101.474 9.03809 101.474 7.3877V7.38281C101.474 5.75684 102.401 4.64355 103.832 4.64355C105.263 4.64355 106.132 5.70801 106.132 7.28027V7.6123H102.343C102.367 8.70117 102.968 9.33594 103.905 9.33594C104.618 9.33594 105.058 8.99902 105.199 8.68164L105.219 8.6377H106.068L106.059 8.67676C105.878 9.38965 105.126 10.0928 103.886 10.0928ZM103.827 5.40039C103.046 5.40039 102.45 5.93262 102.357 6.93359H105.268C105.18 5.89355 104.604 5.40039 103.827 5.40039ZM107.45 10V4.73633H108.3V5.51758H108.378C108.578 4.96582 109.071 4.64355 109.784 4.64355C109.945 4.64355 110.126 4.66309 110.209 4.67773V5.50293C110.033 5.47363 109.872 5.4541 109.687 5.4541C108.876 5.4541 108.3 5.9668 108.3 6.73828V10H107.45ZM116.22 10.0928C114.716 10.0928 113.808 9.03809 113.808 7.3877V7.38281C113.808 5.75684 114.735 4.64355 116.166 4.64355C117.597 4.64355 118.466 5.70801 118.466 7.28027V7.6123H114.677C114.701 8.70117 115.302 9.33594 116.239 9.33594C116.952 9.33594 117.392 8.99902 117.533 8.68164L117.553 8.6377H118.402L118.393 8.67676C118.212 9.38965 117.46 10.0928 116.22 10.0928ZM116.161 5.40039C115.38 5.40039 114.784 5.93262 114.691 6.93359H117.602C117.514 5.89355 116.938 5.40039 116.161 5.40039ZM119.784 10V4.73633H120.634V5.52734H120.712C120.976 4.9707 121.469 4.64355 122.245 4.64355C123.427 4.64355 124.086 5.3418 124.086 6.5918V10H123.236V6.79688C123.236 5.84961 122.846 5.39551 122.006 5.39551C121.166 5.39551 120.634 5.96191 120.634 6.88477V10H119.784ZM127.494 10.0391C126.41 10.0391 125.956 9.63867 125.956 8.63281V5.43945H125.126V4.73633H125.956V3.37402H126.835V4.73633H127.987V5.43945H126.835V8.41797C126.835 9.03809 127.05 9.28711 127.597 9.28711C127.748 9.28711 127.831 9.28223 127.987 9.26758V9.99023C127.821 10.0195 127.66 10.0391 127.494 10.0391ZM131.327 10.0928C129.823 10.0928 128.915 9.03809 128.915 7.3877V7.38281C128.915 5.75684 129.843 4.64355 131.273 4.64355C132.704 4.64355 133.573 5.70801 133.573 7.28027V7.6123H129.784C129.809 8.70117 130.409 9.33594 131.347 9.33594C132.06 9.33594 132.499 8.99902 132.641 8.68164L132.66 8.6377H133.51L133.5 8.67676C133.319 9.38965 132.567 10.0928 131.327 10.0928ZM131.269 5.40039C130.487 5.40039 129.892 5.93262 129.799 6.93359H132.709C132.621 5.89355 132.045 5.40039 131.269 5.40039ZM134.892 10V4.73633H135.741V5.51758H135.819C136.02 4.96582 136.513 4.64355 137.226 4.64355C137.387 4.64355 137.567 4.66309 137.65 4.67773V5.50293C137.475 5.47363 137.313 5.4541 137.128 5.4541C136.317 5.4541 135.741 5.9668 135.741 6.73828V10H134.892ZM140.702 10.0928C139.198 10.0928 138.29 9.03809 138.29 7.3877V7.38281C138.29 5.75684 139.218 4.64355 140.648 4.64355C142.079 4.64355 142.948 5.70801 142.948 7.28027V7.6123H139.159C139.184 8.70117 139.784 9.33594 140.722 9.33594C141.435 9.33594 141.874 8.99902 142.016 8.68164L142.035 8.6377H142.885L142.875 8.67676C142.694 9.38965 141.942 10.0928 140.702 10.0928ZM140.644 5.40039C139.862 5.40039 139.267 5.93262 139.174 6.93359H142.084C141.996 5.89355 141.42 5.40039 140.644 5.40039ZM146.21 10.0928C144.877 10.0928 144.003 9.01367 144.003 7.37305V7.36328C144.003 5.71289 144.872 4.64355 146.21 4.64355C146.933 4.64355 147.562 5.00488 147.851 5.56641H147.929V2.64648H148.778V10H147.929V9.16016H147.851C147.528 9.74609 146.942 10.0928 146.21 10.0928ZM146.405 9.34082C147.362 9.34082 147.948 8.58887 147.948 7.37305V7.36328C147.948 6.14746 147.362 5.39551 146.405 5.39551C145.443 5.39551 144.872 6.1377 144.872 7.36328V7.37305C144.872 8.59863 145.443 9.34082 146.405 9.34082ZM153.271 10V2.64648H154.12V7.03613H154.198L156.474 4.73633H157.504L155.209 6.94824L157.655 10H156.586L154.613 7.52441L154.12 8.00293V10H153.271ZM160.556 10.0928C159.052 10.0928 158.144 9.03809 158.144 7.3877V7.38281C158.144 5.75684 159.071 4.64355 160.502 4.64355C161.933 4.64355 162.802 5.70801 162.802 7.28027V7.6123H159.013C159.037 8.70117 159.638 9.33594 160.575 9.33594C161.288 9.33594 161.728 8.99902 161.869 8.68164L161.889 8.6377H162.738L162.729 8.67676C162.548 9.38965 161.796 10.0928 160.556 10.0928ZM160.497 5.40039C159.716 5.40039 159.12 5.93262 159.027 6.93359H161.938C161.85 5.89355 161.273 5.40039 160.497 5.40039ZM164.472 11.8457C164.359 11.8457 164.213 11.8359 164.096 11.8164V11.1182C164.198 11.1377 164.33 11.1426 164.447 11.1426C164.931 11.1426 165.224 10.9229 165.414 10.3174L165.512 10.0049L163.563 4.73633H164.472L165.917 9.06738H165.995L167.436 4.73633H168.329L166.273 10.3223C165.839 11.5039 165.404 11.8457 164.472 11.8457Z" fill="#202020"/>
<rect y="16" width="257" height="1" fill="#202020"/>
<path d="M60.043 31L62.6406 23.9541H63.5098L66.1074 31H65.1846L64.4766 28.9834H61.6738L60.9658 31H60.043ZM63.0361 25.0918L61.9326 28.2363H64.2178L63.1143 25.0918H63.0361ZM68.041 31L66.0928 25.7363H66.9912L68.4316 30.0723H68.5098L69.9502 25.7363H70.8486L68.9004 31H68.041ZM73.9248 31.0928C72.4209 31.0928 71.5127 30.0381 71.5127 28.3877V28.3828C71.5127 26.7568 72.4404 25.6436 73.8711 25.6436C75.3018 25.6436 76.1709 26.708 76.1709 28.2803V28.6123H72.3818C72.4062 29.7012 73.0068 30.3359 73.9443 30.3359C74.6572 30.3359 75.0967 29.999 75.2383 29.6816L75.2578 29.6377H76.1074L76.0977 29.6768C75.917 30.3896 75.165 31.0928 73.9248 31.0928ZM73.8662 26.4004C73.085 26.4004 72.4893 26.9326 72.3965 27.9336H75.3066C75.2188 26.8936 74.6426 26.4004 73.8662 26.4004ZM77.4893 31V25.7363H78.3389V26.5176H78.417C78.6172 25.9658 79.1104 25.6436 79.8232 25.6436C79.9844 25.6436 80.165 25.6631 80.248 25.6777V26.5029C80.0723 26.4736 79.9111 26.4541 79.7256 26.4541C78.915 26.4541 78.3389 26.9668 78.3389 27.7383V31H77.4893ZM82.7432 31.0928C81.7422 31.0928 80.9854 30.4873 80.9854 29.5303V29.5205C80.9854 28.583 81.6787 28.041 82.9043 27.9678L84.4131 27.875V27.3965C84.4131 26.7471 84.0176 26.3955 83.2314 26.3955C82.6016 26.3955 82.1865 26.6299 82.0498 27.04L82.0449 27.0547H81.1953L81.2002 27.0254C81.3369 26.2002 82.1377 25.6436 83.2607 25.6436C84.5449 25.6436 85.2627 26.3027 85.2627 27.3965V31H84.4131V30.2236H84.335C84.0029 30.7852 83.4512 31.0928 82.7432 31.0928ZM81.8545 29.5107C81.8545 30.043 82.3086 30.3555 82.9189 30.3555C83.7832 30.3555 84.4131 29.7891 84.4131 29.0371V28.5586L83.0068 28.6465C82.2061 28.6953 81.8545 28.9785 81.8545 29.501V29.5107ZM86.8154 31V25.7363H87.665V26.5273H87.7432C88.0068 25.9707 88.5 25.6436 89.2764 25.6436C90.458 25.6436 91.1172 26.3418 91.1172 27.5918V31H90.2676V27.7969C90.2676 26.8496 89.877 26.3955 89.0371 26.3955C88.1973 26.3955 87.665 26.9619 87.665 27.8848V31H86.8154ZM94.8232 32.8555C93.5537 32.8555 92.7432 32.2842 92.6113 31.4199L92.6211 31.415H93.5L93.5049 31.4199C93.5977 31.8203 94.0664 32.1035 94.8232 32.1035C95.7656 32.1035 96.3271 31.6592 96.3271 30.8828V29.8184H96.249C95.917 30.3994 95.3213 30.7266 94.5986 30.7266C93.2363 30.7266 92.3916 29.6719 92.3916 28.1973V28.1875C92.3916 26.7129 93.2412 25.6436 94.6182 25.6436C95.3604 25.6436 95.9365 26.0098 96.2588 26.6055H96.3174V25.7363H97.167V30.9268C97.167 32.1035 96.2588 32.8555 94.8232 32.8555ZM94.7842 29.9746C95.7607 29.9746 96.3467 29.2422 96.3467 28.1973V28.1875C96.3467 27.1426 95.7559 26.3955 94.7842 26.3955C93.8076 26.3955 93.2607 27.1426 93.2607 28.1875V28.1973C93.2607 29.2422 93.8076 29.9746 94.7842 29.9746ZM100.897 31.0928C99.3936 31.0928 98.4854 30.0381 98.4854 28.3877V28.3828C98.4854 26.7568 99.4131 25.6436 100.844 25.6436C102.274 25.6436 103.144 26.708 103.144 28.2803V28.6123H99.3545C99.3789 29.7012 99.9795 30.3359 100.917 30.3359C101.63 30.3359 102.069 29.999 102.211 29.6816L102.23 29.6377H103.08L103.07 29.6768C102.89 30.3896 102.138 31.0928 100.897 31.0928ZM100.839 26.4004C100.058 26.4004 99.4619 26.9326 99.3691 27.9336H102.279C102.191 26.8936 101.615 26.4004 100.839 26.4004ZM109.145 31.0391C108.061 31.0391 107.606 30.6387 107.606 29.6328V26.4395H106.776V25.7363H107.606V24.374H108.485V25.7363H109.638V26.4395H108.485V29.418C108.485 30.0381 108.7 30.2871 109.247 30.2871C109.398 30.2871 109.481 30.2822 109.638 30.2676V30.9902C109.472 31.0195 109.311 31.0391 109.145 31.0391ZM112.353 31.0928C111.352 31.0928 110.595 30.4873 110.595 29.5303V29.5205C110.595 28.583 111.288 28.041 112.514 27.9678L114.022 27.875V27.3965C114.022 26.7471 113.627 26.3955 112.841 26.3955C112.211 26.3955 111.796 26.6299 111.659 27.04L111.654 27.0547H110.805L110.81 27.0254C110.946 26.2002 111.747 25.6436 112.87 25.6436C114.154 25.6436 114.872 26.3027 114.872 27.3965V31H114.022V30.2236H113.944C113.612 30.7852 113.061 31.0928 112.353 31.0928ZM111.464 29.5107C111.464 30.043 111.918 30.3555 112.528 30.3555C113.393 30.3555 114.022 29.7891 114.022 29.0371V28.5586L112.616 28.6465C111.815 28.6953 111.464 28.9785 111.464 29.501V29.5107ZM118.593 32.8555C117.323 32.8555 116.513 32.2842 116.381 31.4199L116.391 31.415H117.27L117.274 31.4199C117.367 31.8203 117.836 32.1035 118.593 32.1035C119.535 32.1035 120.097 31.6592 120.097 30.8828V29.8184H120.019C119.687 30.3994 119.091 30.7266 118.368 30.7266C117.006 30.7266 116.161 29.6719 116.161 28.1973V28.1875C116.161 26.7129 117.011 25.6436 118.388 25.6436C119.13 25.6436 119.706 26.0098 120.028 26.6055H120.087V25.7363H120.937V30.9268C120.937 32.1035 120.028 32.8555 118.593 32.8555ZM118.554 29.9746C119.53 29.9746 120.116 29.2422 120.116 28.1973V28.1875C120.116 27.1426 119.525 26.3955 118.554 26.3955C117.577 26.3955 117.03 27.1426 117.03 28.1875V28.1973C117.03 29.2422 117.577 29.9746 118.554 29.9746ZM127.094 31.0928C125.897 31.0928 125.282 30.3896 125.282 29.1445V25.7363H126.132V28.9395C126.132 29.8867 126.474 30.3408 127.313 30.3408C128.241 30.3408 128.734 29.7744 128.734 28.8516V25.7363H129.584V31H128.734V30.2139H128.656C128.397 30.7754 127.865 31.0928 127.094 31.0928ZM132.978 31.0928C131.806 31.0928 131 30.5264 130.902 29.6572H131.771C131.913 30.0967 132.333 30.3848 133.007 30.3848C133.715 30.3848 134.218 30.0479 134.218 29.5693V29.5596C134.218 29.2031 133.949 28.9541 133.3 28.7979L132.484 28.6025C131.498 28.3682 131.054 27.9385 131.054 27.1816V27.1768C131.054 26.3027 131.894 25.6436 133.012 25.6436C134.115 25.6436 134.882 26.1953 134.999 27.0547H134.164C134.052 26.6396 133.642 26.3516 133.007 26.3516C132.382 26.3516 131.923 26.6738 131.923 27.1377V27.1475C131.923 27.5039 132.187 27.7285 132.807 27.8799L133.617 28.0752C134.608 28.3145 135.087 28.7441 135.087 29.4961V29.5059C135.087 30.4434 134.174 31.0928 132.978 31.0928ZM137.851 31.0928C136.85 31.0928 136.093 30.4873 136.093 29.5303V29.5205C136.093 28.583 136.786 28.041 138.012 27.9678L139.521 27.875V27.3965C139.521 26.7471 139.125 26.3955 138.339 26.3955C137.709 26.3955 137.294 26.6299 137.157 27.04L137.152 27.0547H136.303L136.308 27.0254C136.444 26.2002 137.245 25.6436 138.368 25.6436C139.652 25.6436 140.37 26.3027 140.37 27.3965V31H139.521V30.2236H139.442C139.11 30.7852 138.559 31.0928 137.851 31.0928ZM136.962 29.5107C136.962 30.043 137.416 30.3555 138.026 30.3555C138.891 30.3555 139.521 29.7891 139.521 29.0371V28.5586L138.114 28.6465C137.313 28.6953 136.962 28.9785 136.962 29.501V29.5107ZM144.091 32.8555C142.821 32.8555 142.011 32.2842 141.879 31.4199L141.889 31.415H142.768L142.772 31.4199C142.865 31.8203 143.334 32.1035 144.091 32.1035C145.033 32.1035 145.595 31.6592 145.595 30.8828V29.8184H145.517C145.185 30.3994 144.589 30.7266 143.866 30.7266C142.504 30.7266 141.659 29.6719 141.659 28.1973V28.1875C141.659 26.7129 142.509 25.6436 143.886 25.6436C144.628 25.6436 145.204 26.0098 145.526 26.6055H145.585V25.7363H146.435V30.9268C146.435 32.1035 145.526 32.8555 144.091 32.8555ZM144.052 29.9746C145.028 29.9746 145.614 29.2422 145.614 28.1973V28.1875C145.614 27.1426 145.023 26.3955 144.052 26.3955C143.075 26.3955 142.528 27.1426 142.528 28.1875V28.1973C142.528 29.2422 143.075 29.9746 144.052 29.9746ZM150.165 31.0928C148.661 31.0928 147.753 30.0381 147.753 28.3877V28.3828C147.753 26.7568 148.681 25.6436 150.111 25.6436C151.542 25.6436 152.411 26.708 152.411 28.2803V28.6123H148.622C148.646 29.7012 149.247 30.3359 150.185 30.3359C150.897 30.3359 151.337 29.999 151.479 29.6816L151.498 29.6377H152.348L152.338 29.6768C152.157 30.3896 151.405 31.0928 150.165 31.0928ZM150.106 26.4004C149.325 26.4004 148.729 26.9326 148.637 27.9336H151.547C151.459 26.8936 150.883 26.4004 150.106 26.4004ZM158.319 32.7578C157.367 31.4932 156.933 30.0186 156.933 28.2021C156.933 26.3906 157.362 24.9111 158.319 23.6465H159.032C158.324 24.5498 157.797 26.5078 157.797 28.2021C157.797 29.9111 158.324 31.8545 159.032 32.7578H158.319ZM161.806 31.0928C160.805 31.0928 160.048 30.4873 160.048 29.5303V29.5205C160.048 28.583 160.741 28.041 161.967 27.9678L163.476 27.875V27.3965C163.476 26.7471 163.08 26.3955 162.294 26.3955C161.664 26.3955 161.249 26.6299 161.112 27.04L161.107 27.0547H160.258L160.263 27.0254C160.399 26.2002 161.2 25.6436 162.323 25.6436C163.607 25.6436 164.325 26.3027 164.325 27.3965V31H163.476V30.2236H163.397C163.065 30.7852 162.514 31.0928 161.806 31.0928ZM160.917 29.5107C160.917 30.043 161.371 30.3555 161.981 30.3555C162.846 30.3555 163.476 29.7891 163.476 29.0371V28.5586L162.069 28.6465C161.269 28.6953 160.917 28.9785 160.917 29.501V29.5107ZM165.927 31V23.6465H166.776V31H165.927ZM168.456 31V23.6465H169.306V31H168.456ZM175.619 31.0391C174.535 31.0391 174.081 30.6387 174.081 29.6328V26.4395H173.251V25.7363H174.081V24.374H174.96V25.7363H176.112V26.4395H174.96V29.418C174.96 30.0381 175.175 30.2871 175.722 30.2871C175.873 30.2871 175.956 30.2822 176.112 30.2676V30.9902C175.946 31.0195 175.785 31.0391 175.619 31.0391ZM177.831 24.7207C177.509 24.7207 177.245 24.457 177.245 24.1348C177.245 23.8125 177.509 23.5488 177.831 23.5488C178.153 23.5488 178.417 23.8125 178.417 24.1348C178.417 24.457 178.153 24.7207 177.831 24.7207ZM177.401 31V25.7363H178.251V31H177.401ZM179.853 31V25.7363H180.702V26.5371H180.78C181.015 25.9707 181.513 25.6436 182.201 25.6436C182.914 25.6436 183.412 26.0195 183.656 26.5664H183.734C184.018 26.0098 184.618 25.6436 185.346 25.6436C186.42 25.6436 187.021 26.2588 187.021 27.3623V31H186.171V27.5576C186.171 26.7812 185.814 26.3955 185.072 26.3955C184.34 26.3955 183.856 26.9473 183.856 27.6162V31H183.007V27.4258C183.007 26.8008 182.577 26.3955 181.913 26.3955C181.225 26.3955 180.702 26.9961 180.702 27.7383V31H179.853ZM190.702 31.0928C189.198 31.0928 188.29 30.0381 188.29 28.3877V28.3828C188.29 26.7568 189.218 25.6436 190.648 25.6436C192.079 25.6436 192.948 26.708 192.948 28.2803V28.6123H189.159C189.184 29.7012 189.784 30.3359 190.722 30.3359C191.435 30.3359 191.874 29.999 192.016 29.6816L192.035 29.6377H192.885L192.875 29.6768C192.694 30.3896 191.942 31.0928 190.702 31.0928ZM190.644 26.4004C189.862 26.4004 189.267 26.9326 189.174 27.9336H192.084C191.996 26.8936 191.42 26.4004 190.644 26.4004ZM194.726 32.7578H194.013C194.721 31.8545 195.248 29.9111 195.248 28.2021C195.248 26.5078 194.721 24.5498 194.013 23.6465H194.726C195.683 24.9111 196.112 26.3906 196.112 28.2021C196.112 30.0186 195.678 31.4932 194.726 32.7578Z" fill="#202020"/>
<path d="M273.929 23.571L288.071 9.42891" stroke="#202020" stroke-linecap="round"/>
<path d="M273.929 9.42896L288.071 23.5711" stroke="#202020" stroke-linecap="round"/>
<path d="M395.297 10V2.9541H396.176V6.37695H396.254L399.34 2.9541H400.443L397.626 5.99609L400.702 10H399.564L397.021 6.60645L396.176 7.53906V10H395.297ZM403.539 10.0928C402.035 10.0928 401.127 9.03809 401.127 7.3877V7.38281C401.127 5.75684 402.055 4.64355 403.485 4.64355C404.916 4.64355 405.785 5.70801 405.785 7.28027V7.6123H401.996C402.021 8.70117 402.621 9.33594 403.559 9.33594C404.271 9.33594 404.711 8.99902 404.853 8.68164L404.872 8.6377H405.722L405.712 8.67676C405.531 9.38965 404.779 10.0928 403.539 10.0928ZM403.48 5.40039C402.699 5.40039 402.104 5.93262 402.011 6.93359H404.921C404.833 5.89355 404.257 5.40039 403.48 5.40039ZM407.455 11.8457C407.343 11.8457 407.196 11.8359 407.079 11.8164V11.1182C407.182 11.1377 407.313 11.1426 407.431 11.1426C407.914 11.1426 408.207 10.9229 408.397 10.3174L408.495 10.0049L406.547 4.73633H407.455L408.9 9.06738H408.979L410.419 4.73633H411.312L409.257 10.3223C408.822 11.5039 408.388 11.8457 407.455 11.8457ZM417.396 10.0928C415.893 10.0928 414.984 9.03809 414.984 7.3877V7.38281C414.984 5.75684 415.912 4.64355 417.343 4.64355C418.773 4.64355 419.643 5.70801 419.643 7.28027V7.6123H415.854C415.878 8.70117 416.479 9.33594 417.416 9.33594C418.129 9.33594 418.568 8.99902 418.71 8.68164L418.729 8.6377H419.579L419.569 8.67676C419.389 9.38965 418.637 10.0928 417.396 10.0928ZM417.338 5.40039C416.557 5.40039 415.961 5.93262 415.868 6.93359H418.778C418.69 5.89355 418.114 5.40039 417.338 5.40039ZM421.312 10V5.43945H420.438V4.73633H421.312V4.15039C421.312 3.10059 421.84 2.59766 422.841 2.59766C423.046 2.59766 423.231 2.6123 423.407 2.64648V3.3252C423.305 3.30566 423.163 3.30078 423.012 3.30078C422.406 3.30078 422.162 3.59863 422.162 4.1748V4.73633H423.358V5.43945H422.162V10H421.312ZM424.936 10V5.43945H424.062V4.73633H424.936V4.15039C424.936 3.10059 425.463 2.59766 426.464 2.59766C426.669 2.59766 426.854 2.6123 427.03 2.64648V3.3252C426.928 3.30566 426.786 3.30078 426.635 3.30078C426.029 3.30078 425.785 3.59863 425.785 4.1748V4.73633H426.981V5.43945H425.785V10H424.936ZM428.656 3.7207C428.334 3.7207 428.07 3.45703 428.07 3.13477C428.07 2.8125 428.334 2.54883 428.656 2.54883C428.979 2.54883 429.242 2.8125 429.242 3.13477C429.242 3.45703 428.979 3.7207 428.656 3.7207ZM428.227 10V4.73633H429.076V10H428.227ZM432.831 10.0928C431.356 10.0928 430.414 9.02344 430.414 7.35352V7.34375C430.414 5.70801 431.352 4.64355 432.826 4.64355C434.105 4.64355 434.872 5.38086 435.028 6.31836L435.033 6.34766H434.188L434.184 6.33301C434.052 5.81543 433.583 5.39551 432.826 5.39551C431.879 5.39551 431.283 6.15723 431.283 7.34375V7.35352C431.283 8.56445 431.889 9.34082 432.826 9.34082C433.534 9.34082 433.983 9.02832 434.179 8.44238L434.188 8.41309L435.028 8.4082L435.019 8.46191C434.804 9.41406 434.096 10.0928 432.831 10.0928ZM436.723 3.7207C436.4 3.7207 436.137 3.45703 436.137 3.13477C436.137 2.8125 436.4 2.54883 436.723 2.54883C437.045 2.54883 437.309 2.8125 437.309 3.13477C437.309 3.45703 437.045 3.7207 436.723 3.7207ZM436.293 10V4.73633H437.143V10H436.293ZM440.893 10.0928C439.389 10.0928 438.48 9.03809 438.48 7.3877V7.38281C438.48 5.75684 439.408 4.64355 440.839 4.64355C442.27 4.64355 443.139 5.70801 443.139 7.28027V7.6123H439.35C439.374 8.70117 439.975 9.33594 440.912 9.33594C441.625 9.33594 442.064 8.99902 442.206 8.68164L442.226 8.6377H443.075L443.065 8.67676C442.885 9.38965 442.133 10.0928 440.893 10.0928ZM440.834 5.40039C440.053 5.40039 439.457 5.93262 439.364 6.93359H442.274C442.187 5.89355 441.61 5.40039 440.834 5.40039ZM444.457 10V4.73633H445.307V5.52734H445.385C445.648 4.9707 446.142 4.64355 446.918 4.64355C448.1 4.64355 448.759 5.3418 448.759 6.5918V10H447.909V6.79688C447.909 5.84961 447.519 5.39551 446.679 5.39551C445.839 5.39551 445.307 5.96191 445.307 6.88477V10H444.457ZM452.45 10.0928C450.976 10.0928 450.033 9.02344 450.033 7.35352V7.34375C450.033 5.70801 450.971 4.64355 452.445 4.64355C453.725 4.64355 454.491 5.38086 454.647 6.31836L454.652 6.34766H453.808L453.803 6.33301C453.671 5.81543 453.202 5.39551 452.445 5.39551C451.498 5.39551 450.902 6.15723 450.902 7.34375V7.35352C450.902 8.56445 451.508 9.34082 452.445 9.34082C453.153 9.34082 453.603 9.02832 453.798 8.44238L453.808 8.41309L454.647 8.4082L454.638 8.46191C454.423 9.41406 453.715 10.0928 452.45 10.0928ZM456.342 11.8457C456.229 11.8457 456.083 11.8359 455.966 11.8164V11.1182C456.068 11.1377 456.2 11.1426 456.317 11.1426C456.801 11.1426 457.094 10.9229 457.284 10.3174L457.382 10.0049L455.434 4.73633H456.342L457.787 9.06738H457.865L459.306 4.73633H460.199L458.144 10.3223C457.709 11.5039 457.274 11.8457 456.342 11.8457ZM465.443 6.66016C464.545 6.66016 464.003 5.92773 464.003 4.76074V4.75586C464.003 3.58887 464.545 2.86133 465.443 2.86133C466.342 2.86133 466.889 3.58887 466.889 4.75586V4.76074C466.889 5.92773 466.342 6.66016 465.443 6.66016ZM465.971 10H465.18L469.975 2.9541H470.766L465.971 10ZM465.443 6.0791C465.927 6.0791 466.21 5.58594 466.21 4.76074V4.75586C466.21 3.93066 465.927 3.44238 465.443 3.44238C464.96 3.44238 464.682 3.93066 464.682 4.75586V4.76074C464.682 5.58594 464.96 6.0791 465.443 6.0791ZM470.492 10.0928C469.594 10.0928 469.052 9.36035 469.052 8.19336V8.18848C469.052 7.02148 469.594 6.29395 470.492 6.29395C471.391 6.29395 471.938 7.02148 471.938 8.18848V8.19336C471.938 9.36035 471.391 10.0928 470.492 10.0928ZM470.492 9.51172C470.976 9.51172 471.259 9.01855 471.259 8.19336V8.18848C471.259 7.36328 470.976 6.875 470.492 6.875C470.009 6.875 469.73 7.36328 469.73 8.18848V8.19336C469.73 9.01855 470.009 9.51172 470.492 9.51172Z" fill="#202020"/>
<rect x="305" y="16" width="257" height="1" fill="#202020"/>
<path d="M378.593 31V23.9541H381.01C383.1 23.9541 384.335 25.2578 384.335 27.4697V27.4795C384.335 29.6963 383.104 31 381.01 31H378.593ZM379.472 30.209H380.951C382.523 30.209 383.437 29.2031 383.437 27.4893V27.4795C383.437 25.7607 382.514 24.7451 380.951 24.7451H379.472V30.209ZM387.196 31.0928C386.195 31.0928 385.438 30.4873 385.438 29.5303V29.5205C385.438 28.583 386.132 28.041 387.357 27.9678L388.866 27.875V27.3965C388.866 26.7471 388.471 26.3955 387.685 26.3955C387.055 26.3955 386.64 26.6299 386.503 27.04L386.498 27.0547H385.648L385.653 27.0254C385.79 26.2002 386.591 25.6436 387.714 25.6436C388.998 25.6436 389.716 26.3027 389.716 27.3965V31H388.866V30.2236H388.788C388.456 30.7852 387.904 31.0928 387.196 31.0928ZM386.308 29.5107C386.308 30.043 386.762 30.3555 387.372 30.3555C388.236 30.3555 388.866 29.7891 388.866 29.0371V28.5586L387.46 28.6465C386.659 28.6953 386.308 28.9785 386.308 29.501V29.5107ZM391.718 24.7207C391.396 24.7207 391.132 24.457 391.132 24.1348C391.132 23.8125 391.396 23.5488 391.718 23.5488C392.04 23.5488 392.304 23.8125 392.304 24.1348C392.304 24.457 392.04 24.7207 391.718 24.7207ZM391.288 31V25.7363H392.138V31H391.288ZM393.788 31V23.6465H394.638V31H393.788ZM396.718 32.8457C396.605 32.8457 396.459 32.8359 396.342 32.8164V32.1182C396.444 32.1377 396.576 32.1426 396.693 32.1426C397.177 32.1426 397.47 31.9229 397.66 31.3174L397.758 31.0049L395.81 25.7363H396.718L398.163 30.0674H398.241L399.682 25.7363H400.575L398.52 31.3223C398.085 32.5039 397.65 32.8457 396.718 32.8457ZM404.56 31V23.6465H405.409V28.0361H405.487L407.763 25.7363H408.793L406.498 27.9482L408.944 31H407.875L405.902 28.5244L405.409 29.0029V31H404.56ZM411.845 31.0928C410.341 31.0928 409.433 30.0381 409.433 28.3877V28.3828C409.433 26.7568 410.36 25.6436 411.791 25.6436C413.222 25.6436 414.091 26.708 414.091 28.2803V28.6123H410.302C410.326 29.7012 410.927 30.3359 411.864 30.3359C412.577 30.3359 413.017 29.999 413.158 29.6816L413.178 29.6377H414.027L414.018 29.6768C413.837 30.3896 413.085 31.0928 411.845 31.0928ZM411.786 26.4004C411.005 26.4004 410.409 26.9326 410.316 27.9336H413.227C413.139 26.8936 412.562 26.4004 411.786 26.4004ZM415.761 32.8457C415.648 32.8457 415.502 32.8359 415.385 32.8164V32.1182C415.487 32.1377 415.619 32.1426 415.736 32.1426C416.22 32.1426 416.513 31.9229 416.703 31.3174L416.801 31.0049L414.853 25.7363H415.761L417.206 30.0674H417.284L418.725 25.7363H419.618L417.562 31.3223C417.128 32.5039 416.693 32.8457 415.761 32.8457ZM423.554 31V25.7363H424.403V26.5176H424.481C424.682 25.9658 425.175 25.6436 425.888 25.6436C426.049 25.6436 426.229 25.6631 426.312 25.6777V26.5029C426.137 26.4736 425.976 26.4541 425.79 26.4541C424.979 26.4541 424.403 26.9668 424.403 27.7383V31H423.554ZM428.808 31.0928C427.807 31.0928 427.05 30.4873 427.05 29.5303V29.5205C427.05 28.583 427.743 28.041 428.969 27.9678L430.478 27.875V27.3965C430.478 26.7471 430.082 26.3955 429.296 26.3955C428.666 26.3955 428.251 26.6299 428.114 27.04L428.109 27.0547H427.26L427.265 27.0254C427.401 26.2002 428.202 25.6436 429.325 25.6436C430.609 25.6436 431.327 26.3027 431.327 27.3965V31H430.478V30.2236H430.399C430.067 30.7852 429.516 31.0928 428.808 31.0928ZM427.919 29.5107C427.919 30.043 428.373 30.3555 428.983 30.3555C429.848 30.3555 430.478 29.7891 430.478 29.0371V28.5586L429.071 28.6465C428.271 28.6953 427.919 28.9785 427.919 29.501V29.5107ZM434.75 31.0391C433.666 31.0391 433.212 30.6387 433.212 29.6328V26.4395H432.382V25.7363H433.212V24.374H434.091V25.7363H435.243V26.4395H434.091V29.418C434.091 30.0381 434.306 30.2871 434.853 30.2871C435.004 30.2871 435.087 30.2822 435.243 30.2676V30.9902C435.077 31.0195 434.916 31.0391 434.75 31.0391ZM436.962 24.7207C436.64 24.7207 436.376 24.457 436.376 24.1348C436.376 23.8125 436.64 23.5488 436.962 23.5488C437.284 23.5488 437.548 23.8125 437.548 24.1348C437.548 24.457 437.284 24.7207 436.962 24.7207ZM436.532 31V25.7363H437.382V31H436.532ZM438.983 31V25.7363H439.833V26.5273H439.911C440.175 25.9707 440.668 25.6436 441.444 25.6436C442.626 25.6436 443.285 26.3418 443.285 27.5918V31H442.436V27.7969C442.436 26.8496 442.045 26.3955 441.205 26.3955C440.365 26.3955 439.833 26.9619 439.833 27.8848V31H438.983ZM446.991 32.8555C445.722 32.8555 444.911 32.2842 444.779 31.4199L444.789 31.415H445.668L445.673 31.4199C445.766 31.8203 446.234 32.1035 446.991 32.1035C447.934 32.1035 448.495 31.6592 448.495 30.8828V29.8184H448.417C448.085 30.3994 447.489 30.7266 446.767 30.7266C445.404 30.7266 444.56 29.6719 444.56 28.1973V28.1875C444.56 26.7129 445.409 25.6436 446.786 25.6436C447.528 25.6436 448.104 26.0098 448.427 26.6055H448.485V25.7363H449.335V30.9268C449.335 32.1035 448.427 32.8555 446.991 32.8555ZM446.952 29.9746C447.929 29.9746 448.515 29.2422 448.515 28.1973V28.1875C448.515 27.1426 447.924 26.3955 446.952 26.3955C445.976 26.3955 445.429 27.1426 445.429 28.1875V28.1973C445.429 29.2422 445.976 29.9746 446.952 29.9746ZM455.507 32.7578C454.555 31.4932 454.12 30.0186 454.12 28.2021C454.12 26.3906 454.55 24.9111 455.507 23.6465H456.22C455.512 24.5498 454.984 26.5078 454.984 28.2021C454.984 29.9111 455.512 31.8545 456.22 32.7578H455.507ZM458.993 31.0928C457.992 31.0928 457.235 30.4873 457.235 29.5303V29.5205C457.235 28.583 457.929 28.041 459.154 27.9678L460.663 27.875V27.3965C460.663 26.7471 460.268 26.3955 459.481 26.3955C458.852 26.3955 458.437 26.6299 458.3 27.04L458.295 27.0547H457.445L457.45 27.0254C457.587 26.2002 458.388 25.6436 459.511 25.6436C460.795 25.6436 461.513 26.3027 461.513 27.3965V31H460.663V30.2236H460.585C460.253 30.7852 459.701 31.0928 458.993 31.0928ZM458.104 29.5107C458.104 30.043 458.559 30.3555 459.169 30.3555C460.033 30.3555 460.663 29.7891 460.663 29.0371V28.5586L459.257 28.6465C458.456 28.6953 458.104 28.9785 458.104 29.501V29.5107ZM465.219 31.0928C463.744 31.0928 462.802 30.0234 462.802 28.3535V28.3438C462.802 26.708 463.739 25.6436 465.214 25.6436C466.493 25.6436 467.26 26.3809 467.416 27.3184L467.421 27.3477H466.576L466.571 27.333C466.439 26.8154 465.971 26.3955 465.214 26.3955C464.267 26.3955 463.671 27.1572 463.671 28.3438V28.3535C463.671 29.5645 464.276 30.3408 465.214 30.3408C465.922 30.3408 466.371 30.0283 466.566 29.4424L466.576 29.4131L467.416 29.4082L467.406 29.4619C467.191 30.4141 466.483 31.0928 465.219 31.0928ZM470.629 31.0391C469.545 31.0391 469.091 30.6387 469.091 29.6328V26.4395H468.261V25.7363H469.091V24.374H469.97V25.7363H471.122V26.4395H469.97V29.418C469.97 30.0381 470.185 30.2871 470.731 30.2871C470.883 30.2871 470.966 30.2822 471.122 30.2676V30.9902C470.956 31.0195 470.795 31.0391 470.629 31.0391ZM474.154 31.0928C472.958 31.0928 472.343 30.3896 472.343 29.1445V25.7363H473.192V28.9395C473.192 29.8867 473.534 30.3408 474.374 30.3408C475.302 30.3408 475.795 29.7744 475.795 28.8516V25.7363H476.645V31H475.795V30.2139H475.717C475.458 30.7754 474.926 31.0928 474.154 31.0928ZM479.677 31.0928C478.676 31.0928 477.919 30.4873 477.919 29.5303V29.5205C477.919 28.583 478.612 28.041 479.838 27.9678L481.347 27.875V27.3965C481.347 26.7471 480.951 26.3955 480.165 26.3955C479.535 26.3955 479.12 26.6299 478.983 27.04L478.979 27.0547H478.129L478.134 27.0254C478.271 26.2002 479.071 25.6436 480.194 25.6436C481.479 25.6436 482.196 26.3027 482.196 27.3965V31H481.347V30.2236H481.269C480.937 30.7852 480.385 31.0928 479.677 31.0928ZM478.788 29.5107C478.788 30.043 479.242 30.3555 479.853 30.3555C480.717 30.3555 481.347 29.7891 481.347 29.0371V28.5586L479.94 28.6465C479.14 28.6953 478.788 28.9785 478.788 29.501V29.5107ZM483.798 31V23.6465H484.647V31H483.798ZM486.737 32.7578H486.024C486.732 31.8545 487.26 29.9111 487.26 28.2021C487.26 26.5078 486.732 24.5498 486.024 23.6465H486.737C487.694 24.9111 488.124 26.3906 488.124 28.2021C488.124 30.0186 487.689 31.4932 486.737 32.7578Z" fill="#202020"/>
<path d="M578.929 23.571L593.071 9.42891" stroke="#202020" stroke-linecap="round"/>
<path d="M578.929 9.42896L593.071 23.5711" stroke="#202020" stroke-linecap="round"/>
<path d="M611.166 20.5V13.4541H612.187L614.599 19.333H614.677L617.089 13.4541H618.109V20.5H617.289V15.1191H617.235L615.009 20.5H614.267L612.04 15.1191H611.986V20.5H611.166ZM619.345 20.5L621.942 13.4541H622.812L625.409 20.5H624.486L623.778 18.4834H620.976L620.268 20.5H619.345ZM622.338 14.5918L621.234 17.7363H623.52L622.416 14.5918H622.338ZM626.181 20.5L628.583 16.96V16.9404L626.21 13.4541H627.27L629.154 16.291H629.184L631.088 13.4541H632.089L629.652 16.9844V17.0039L632.035 20.5H630.98L629.105 17.6875H629.076L627.177 20.5H626.181ZM638.285 20.5928C636.781 20.5928 635.873 19.5381 635.873 17.8877V17.8828C635.873 16.2568 636.801 15.1436 638.231 15.1436C639.662 15.1436 640.531 16.208 640.531 17.7803V18.1123H636.742C636.767 19.2012 637.367 19.8359 638.305 19.8359C639.018 19.8359 639.457 19.499 639.599 19.1816L639.618 19.1377H640.468L640.458 19.1768C640.277 19.8896 639.525 20.5928 638.285 20.5928ZM638.227 15.9004C637.445 15.9004 636.85 16.4326 636.757 17.4336H639.667C639.579 16.3936 639.003 15.9004 638.227 15.9004ZM641.85 20.5V15.2363H642.699V16.0273H642.777C643.041 15.4707 643.534 15.1436 644.311 15.1436C645.492 15.1436 646.151 15.8418 646.151 17.0918V20.5H645.302V17.2969C645.302 16.3496 644.911 15.8955 644.071 15.8955C643.231 15.8955 642.699 16.4619 642.699 17.3848V20.5H641.85ZM649.56 20.5391C648.476 20.5391 648.021 20.1387 648.021 19.1328V15.9395H647.191V15.2363H648.021V13.874H648.9V15.2363H650.053V15.9395H648.9V18.918C648.9 19.5381 649.115 19.7871 649.662 19.7871C649.813 19.7871 649.896 19.7822 650.053 19.7676V20.4902C649.887 20.5195 649.726 20.5391 649.56 20.5391ZM653.393 20.5928C651.889 20.5928 650.98 19.5381 650.98 17.8877V17.8828C650.98 16.2568 651.908 15.1436 653.339 15.1436C654.77 15.1436 655.639 16.208 655.639 17.7803V18.1123H651.85C651.874 19.2012 652.475 19.8359 653.412 19.8359C654.125 19.8359 654.564 19.499 654.706 19.1816L654.726 19.1377H655.575L655.565 19.1768C655.385 19.8896 654.633 20.5928 653.393 20.5928ZM653.334 15.9004C652.553 15.9004 651.957 16.4326 651.864 17.4336H654.774C654.687 16.3936 654.11 15.9004 653.334 15.9004ZM656.957 20.5V15.2363H657.807V16.0176H657.885C658.085 15.4658 658.578 15.1436 659.291 15.1436C659.452 15.1436 659.633 15.1631 659.716 15.1777V16.0029C659.54 15.9736 659.379 15.9541 659.193 15.9541C658.383 15.9541 657.807 16.4668 657.807 17.2383V20.5H656.957ZM662.768 20.5928C661.264 20.5928 660.355 19.5381 660.355 17.8877V17.8828C660.355 16.2568 661.283 15.1436 662.714 15.1436C664.145 15.1436 665.014 16.208 665.014 17.7803V18.1123H661.225C661.249 19.2012 661.85 19.8359 662.787 19.8359C663.5 19.8359 663.939 19.499 664.081 19.1816L664.101 19.1377H664.95L664.94 19.1768C664.76 19.8896 664.008 20.5928 662.768 20.5928ZM662.709 15.9004C661.928 15.9004 661.332 16.4326 661.239 17.4336H664.149C664.062 16.3936 663.485 15.9004 662.709 15.9004ZM668.275 20.5928C666.942 20.5928 666.068 19.5137 666.068 17.873V17.8633C666.068 16.2129 666.938 15.1436 668.275 15.1436C668.998 15.1436 669.628 15.5049 669.916 16.0664H669.994V13.1465H670.844V20.5H669.994V19.6602H669.916C669.594 20.2461 669.008 20.5928 668.275 20.5928ZM668.471 19.8408C669.428 19.8408 670.014 19.0889 670.014 17.873V17.8633C670.014 16.6475 669.428 15.8955 668.471 15.8955C667.509 15.8955 666.938 16.6377 666.938 17.8633V17.873C666.938 19.0986 667.509 19.8408 668.471 19.8408ZM675.336 20.5V13.1465H676.186V17.5361H676.264L678.539 15.2363H679.569L677.274 17.4482L679.721 20.5H678.651L676.679 18.0244L676.186 18.5029V20.5H675.336ZM682.621 20.5928C681.117 20.5928 680.209 19.5381 680.209 17.8877V17.8828C680.209 16.2568 681.137 15.1436 682.567 15.1436C683.998 15.1436 684.867 16.208 684.867 17.7803V18.1123H681.078C681.103 19.2012 681.703 19.8359 682.641 19.8359C683.354 19.8359 683.793 19.499 683.935 19.1816L683.954 19.1377H684.804L684.794 19.1768C684.613 19.8896 683.861 20.5928 682.621 20.5928ZM682.562 15.9004C681.781 15.9004 681.186 16.4326 681.093 17.4336H684.003C683.915 16.3936 683.339 15.9004 682.562 15.9004ZM686.537 22.3457C686.425 22.3457 686.278 22.3359 686.161 22.3164V21.6182C686.264 21.6377 686.396 21.6426 686.513 21.6426C686.996 21.6426 687.289 21.4229 687.479 20.8174L687.577 20.5049L685.629 15.2363H686.537L687.982 19.5674H688.061L689.501 15.2363H690.395L688.339 20.8223C687.904 22.0039 687.47 22.3457 686.537 22.3457ZM695.775 20.5928C694.774 20.5928 694.018 19.9873 694.018 19.0303V19.0205C694.018 18.083 694.711 17.541 695.937 17.4678L697.445 17.375V16.8965C697.445 16.2471 697.05 15.8955 696.264 15.8955C695.634 15.8955 695.219 16.1299 695.082 16.54L695.077 16.5547H694.228L694.232 16.5254C694.369 15.7002 695.17 15.1436 696.293 15.1436C697.577 15.1436 698.295 15.8027 698.295 16.8965V20.5H697.445V19.7236H697.367C697.035 20.2852 696.483 20.5928 695.775 20.5928ZM694.887 19.0107C694.887 19.543 695.341 19.8555 695.951 19.8555C696.815 19.8555 697.445 19.2891 697.445 18.5371V18.0586L696.039 18.1465C695.238 18.1953 694.887 18.4785 694.887 19.001V19.0107ZM702.465 20.5928C701.732 20.5928 701.146 20.2461 700.824 19.6602H700.746V20.5H699.896V13.1465H700.746V16.0664H700.824C701.112 15.5049 701.742 15.1436 702.465 15.1436C703.803 15.1436 704.672 16.2129 704.672 17.8633V17.873C704.672 19.5137 703.798 20.5928 702.465 20.5928ZM702.27 19.8408C703.231 19.8408 703.803 19.0986 703.803 17.873V17.8633C703.803 16.6377 703.231 15.8955 702.27 15.8955C701.312 15.8955 700.727 16.6475 700.727 17.8633V17.873C700.727 19.0889 701.312 19.8408 702.27 19.8408ZM706.439 14.2207C706.117 14.2207 705.854 13.957 705.854 13.6348C705.854 13.3125 706.117 13.0488 706.439 13.0488C706.762 13.0488 707.025 13.3125 707.025 13.6348C707.025 13.957 706.762 14.2207 706.439 14.2207ZM706.01 20.5V15.2363H706.859V20.5H706.01ZM708.51 20.5V13.1465H709.359V20.5H708.51ZM711.439 14.2207C711.117 14.2207 710.854 13.957 710.854 13.6348C710.854 13.3125 711.117 13.0488 711.439 13.0488C711.762 13.0488 712.025 13.3125 712.025 13.6348C712.025 13.957 711.762 14.2207 711.439 14.2207ZM711.01 20.5V15.2363H711.859V20.5H711.01ZM715.331 20.5391C714.247 20.5391 713.793 20.1387 713.793 19.1328V15.9395H712.963V15.2363H713.793V13.874H714.672V15.2363H715.824V15.9395H714.672V18.918C714.672 19.5381 714.887 19.7871 715.434 19.7871C715.585 19.7871 715.668 19.7822 715.824 19.7676V20.4902C715.658 20.5195 715.497 20.5391 715.331 20.5391ZM717.543 22.3457C717.431 22.3457 717.284 22.3359 717.167 22.3164V21.6182C717.27 21.6377 717.401 21.6426 717.519 21.6426C718.002 21.6426 718.295 21.4229 718.485 20.8174L718.583 20.5049L716.635 15.2363H717.543L718.988 19.5674H719.066L720.507 15.2363H721.4L719.345 20.8223C718.91 22.0039 718.476 22.3457 717.543 22.3457Z" fill="#202020"/>
<path d="M738.929 23.571L753.071 9.42891" stroke="#202020" stroke-linecap="round"/>
<path d="M738.929 9.42896L753.071 23.5711" stroke="#202020" stroke-linecap="round"/>
<path d="M773.006 22.2578C772.054 20.9932 771.619 19.5186 771.619 17.7021C771.619 15.8906 772.049 14.4111 773.006 13.1465H773.719C773.011 14.0498 772.483 16.0078 772.483 17.7021C772.483 19.4111 773.011 21.3545 773.719 22.2578H773.006ZM776.893 20.5928C775.56 20.5928 774.686 19.5137 774.686 17.873V17.8633C774.686 16.2129 775.555 15.1436 776.893 15.1436C777.615 15.1436 778.245 15.5049 778.533 16.0664H778.611V13.1465H779.461V20.5H778.611V19.6602H778.533C778.211 20.2461 777.625 20.5928 776.893 20.5928ZM777.088 19.8408C778.045 19.8408 778.631 19.0889 778.631 17.873V17.8633C778.631 16.6475 778.045 15.8955 777.088 15.8955C776.126 15.8955 775.555 16.6377 775.555 17.8633V17.873C775.555 19.0986 776.126 19.8408 777.088 19.8408ZM782.537 20.5928C781.536 20.5928 780.779 19.9873 780.779 19.0303V19.0205C780.779 18.083 781.473 17.541 782.698 17.4678L784.207 17.375V16.8965C784.207 16.2471 783.812 15.8955 783.025 15.8955C782.396 15.8955 781.98 16.1299 781.844 16.54L781.839 16.5547H780.989L780.994 16.5254C781.131 15.7002 781.932 15.1436 783.055 15.1436C784.339 15.1436 785.057 15.8027 785.057 16.8965V20.5H784.207V19.7236H784.129C783.797 20.2852 783.245 20.5928 782.537 20.5928ZM781.648 19.0107C781.648 19.543 782.103 19.8555 782.713 19.8555C783.577 19.8555 784.207 19.2891 784.207 18.5371V18.0586L782.801 18.1465C782 18.1953 781.648 18.4785 781.648 19.001V19.0107ZM787.059 14.2207C786.736 14.2207 786.473 13.957 786.473 13.6348C786.473 13.3125 786.736 13.0488 787.059 13.0488C787.381 13.0488 787.645 13.3125 787.645 13.6348C787.645 13.957 787.381 14.2207 787.059 14.2207ZM786.629 20.5V15.2363H787.479V20.5H786.629ZM789.129 20.5V13.1465H789.979V20.5H789.129ZM792.059 22.3457C791.946 22.3457 791.8 22.3359 791.683 22.3164V21.6182C791.785 21.6377 791.917 21.6426 792.034 21.6426C792.518 21.6426 792.811 21.4229 793.001 20.8174L793.099 20.5049L791.15 15.2363H792.059L793.504 19.5674H793.582L795.022 15.2363H795.916L793.86 20.8223C793.426 22.0039 792.991 22.3457 792.059 22.3457ZM801.722 20.5391C800.638 20.5391 800.184 20.1387 800.184 19.1328V15.9395H799.354V15.2363H800.184V13.874H801.062V15.2363H802.215V15.9395H801.062V18.918C801.062 19.5381 801.277 19.7871 801.824 19.7871C801.976 19.7871 802.059 19.7822 802.215 19.7676V20.4902C802.049 20.5195 801.888 20.5391 801.722 20.5391ZM804.93 20.5928C803.929 20.5928 803.172 19.9873 803.172 19.0303V19.0205C803.172 18.083 803.865 17.541 805.091 17.4678L806.6 17.375V16.8965C806.6 16.2471 806.204 15.8955 805.418 15.8955C804.788 15.8955 804.373 16.1299 804.236 16.54L804.231 16.5547H803.382L803.387 16.5254C803.523 15.7002 804.324 15.1436 805.447 15.1436C806.731 15.1436 807.449 15.8027 807.449 16.8965V20.5H806.6V19.7236H806.521C806.189 20.2852 805.638 20.5928 804.93 20.5928ZM804.041 19.0107C804.041 19.543 804.495 19.8555 805.105 19.8555C805.97 19.8555 806.6 19.2891 806.6 18.5371V18.0586L805.193 18.1465C804.393 18.1953 804.041 18.4785 804.041 19.001V19.0107ZM811.17 22.3555C809.9 22.3555 809.09 21.7842 808.958 20.9199L808.968 20.915H809.847L809.852 20.9199C809.944 21.3203 810.413 21.6035 811.17 21.6035C812.112 21.6035 812.674 21.1592 812.674 20.3828V19.3184H812.596C812.264 19.8994 811.668 20.2266 810.945 20.2266C809.583 20.2266 808.738 19.1719 808.738 17.6973V17.6875C808.738 16.2129 809.588 15.1436 810.965 15.1436C811.707 15.1436 812.283 15.5098 812.605 16.1055H812.664V15.2363H813.514V20.4268C813.514 21.6035 812.605 22.3555 811.17 22.3555ZM811.131 19.4746C812.107 19.4746 812.693 18.7422 812.693 17.6973V17.6875C812.693 16.6426 812.103 15.8955 811.131 15.8955C810.154 15.8955 809.607 16.6426 809.607 17.6875V17.6973C809.607 18.7422 810.154 19.4746 811.131 19.4746ZM819.671 20.5928C818.475 20.5928 817.859 19.8896 817.859 18.6445V15.2363H818.709V18.4395C818.709 19.3867 819.051 19.8408 819.891 19.8408C820.818 19.8408 821.312 19.2744 821.312 18.3516V15.2363H822.161V20.5H821.312V19.7139H821.233C820.975 20.2754 820.442 20.5928 819.671 20.5928ZM825.555 20.5928C824.383 20.5928 823.577 20.0264 823.479 19.1572H824.349C824.49 19.5967 824.91 19.8848 825.584 19.8848C826.292 19.8848 826.795 19.5479 826.795 19.0693V19.0596C826.795 18.7031 826.526 18.4541 825.877 18.2979L825.062 18.1025C824.075 17.8682 823.631 17.4385 823.631 16.6816V16.6768C823.631 15.8027 824.471 15.1436 825.589 15.1436C826.692 15.1436 827.459 15.6953 827.576 16.5547H826.741C826.629 16.1396 826.219 15.8516 825.584 15.8516C824.959 15.8516 824.5 16.1738 824.5 16.6377V16.6475C824.5 17.0039 824.764 17.2285 825.384 17.3799L826.194 17.5752C827.186 17.8145 827.664 18.2441 827.664 18.9961V19.0059C827.664 19.9434 826.751 20.5928 825.555 20.5928ZM830.428 20.5928C829.427 20.5928 828.67 19.9873 828.67 19.0303V19.0205C828.67 18.083 829.363 17.541 830.589 17.4678L832.098 17.375V16.8965C832.098 16.2471 831.702 15.8955 830.916 15.8955C830.286 15.8955 829.871 16.1299 829.734 16.54L829.729 16.5547H828.88L828.885 16.5254C829.021 15.7002 829.822 15.1436 830.945 15.1436C832.229 15.1436 832.947 15.8027 832.947 16.8965V20.5H832.098V19.7236H832.02C831.688 20.2852 831.136 20.5928 830.428 20.5928ZM829.539 19.0107C829.539 19.543 829.993 19.8555 830.604 19.8555C831.468 19.8555 832.098 19.2891 832.098 18.5371V18.0586L830.691 18.1465C829.891 18.1953 829.539 18.4785 829.539 19.001V19.0107ZM836.668 22.3555C835.398 22.3555 834.588 21.7842 834.456 20.9199L834.466 20.915H835.345L835.35 20.9199C835.442 21.3203 835.911 21.6035 836.668 21.6035C837.61 21.6035 838.172 21.1592 838.172 20.3828V19.3184H838.094C837.762 19.8994 837.166 20.2266 836.443 20.2266C835.081 20.2266 834.236 19.1719 834.236 17.6973V17.6875C834.236 16.2129 835.086 15.1436 836.463 15.1436C837.205 15.1436 837.781 15.5098 838.104 16.1055H838.162V15.2363H839.012V20.4268C839.012 21.6035 838.104 22.3555 836.668 22.3555ZM836.629 19.4746C837.605 19.4746 838.191 18.7422 838.191 17.6973V17.6875C838.191 16.6426 837.601 15.8955 836.629 15.8955C835.652 15.8955 835.105 16.6426 835.105 17.6875V17.6973C835.105 18.7422 835.652 19.4746 836.629 19.4746ZM842.742 20.5928C841.238 20.5928 840.33 19.5381 840.33 17.8877V17.8828C840.33 16.2568 841.258 15.1436 842.688 15.1436C844.119 15.1436 844.988 16.208 844.988 17.7803V18.1123H841.199C841.224 19.2012 841.824 19.8359 842.762 19.8359C843.475 19.8359 843.914 19.499 844.056 19.1816L844.075 19.1377H844.925L844.915 19.1768C844.734 19.8896 843.982 20.5928 842.742 20.5928ZM842.684 15.9004C841.902 15.9004 841.307 16.4326 841.214 17.4336H844.124C844.036 16.3936 843.46 15.9004 842.684 15.9004ZM849.144 15.8223L849.676 15.2998L851.478 17.1309L853.274 15.2998L853.807 15.8223L852 17.6631L853.807 19.5088L853.274 20.0312L851.478 18.2002L849.676 20.0312L849.144 19.5088L850.95 17.6631L849.144 15.8223ZM860.169 20.5V14.2451H857.898V13.4541H863.318V14.2451H861.048V20.5H860.169ZM864.988 20.5928C863.987 20.5928 863.23 19.9873 863.23 19.0303V19.0205C863.23 18.083 863.924 17.541 865.149 17.4678L866.658 17.375V16.8965C866.658 16.2471 866.263 15.8955 865.477 15.8955C864.847 15.8955 864.432 16.1299 864.295 16.54L864.29 16.5547H863.44L863.445 16.5254C863.582 15.7002 864.383 15.1436 865.506 15.1436C866.79 15.1436 867.508 15.8027 867.508 16.8965V20.5H866.658V19.7236H866.58C866.248 20.2852 865.696 20.5928 864.988 20.5928ZM864.1 19.0107C864.1 19.543 864.554 19.8555 865.164 19.8555C866.028 19.8555 866.658 19.2891 866.658 18.5371V18.0586L865.252 18.1465C864.451 18.1953 864.1 18.4785 864.1 19.001V19.0107ZM871.229 22.3555C869.959 22.3555 869.148 21.7842 869.017 20.9199L869.026 20.915H869.905L869.91 20.9199C870.003 21.3203 870.472 21.6035 871.229 21.6035C872.171 21.6035 872.732 21.1592 872.732 20.3828V19.3184H872.654C872.322 19.8994 871.727 20.2266 871.004 20.2266C869.642 20.2266 868.797 19.1719 868.797 17.6973V17.6875C868.797 16.2129 869.646 15.1436 871.023 15.1436C871.766 15.1436 872.342 15.5098 872.664 16.1055H872.723V15.2363H873.572V20.4268C873.572 21.6035 872.664 22.3555 871.229 22.3555ZM871.189 19.4746C872.166 19.4746 872.752 18.7422 872.752 17.6973V17.6875C872.752 16.6426 872.161 15.8955 871.189 15.8955C870.213 15.8955 869.666 16.6426 869.666 17.6875V17.6973C869.666 18.7422 870.213 19.4746 871.189 19.4746ZM877.967 22.2578V15.2363H878.816V16.0762H878.895C879.217 15.4902 879.803 15.1436 880.535 15.1436C881.868 15.1436 882.742 16.2227 882.742 17.8633V17.873C882.742 19.5234 881.873 20.5928 880.535 20.5928C879.812 20.5928 879.183 20.2314 878.895 19.6699H878.816V22.2578H877.967ZM880.34 19.8408C881.302 19.8408 881.873 19.0986 881.873 17.873V17.8633C881.873 16.6377 881.302 15.8955 880.34 15.8955C879.383 15.8955 878.797 16.6475 878.797 17.8633V17.873C878.797 19.0889 879.383 19.8408 880.34 19.8408ZM886.233 20.5928C884.734 20.5928 883.807 19.5576 883.807 17.873V17.8633C883.807 16.1738 884.734 15.1436 886.233 15.1436C887.732 15.1436 888.66 16.1738 888.66 17.8633V17.873C888.66 19.5576 887.732 20.5928 886.233 20.5928ZM886.233 19.8408C887.229 19.8408 887.791 19.1133 887.791 17.873V17.8633C887.791 16.6182 887.229 15.8955 886.233 15.8955C885.237 15.8955 884.676 16.6182 884.676 17.8633V17.873C884.676 19.1133 885.237 19.8408 886.233 19.8408ZM891.785 20.5928C890.613 20.5928 889.808 20.0264 889.71 19.1572H890.579C890.721 19.5967 891.141 19.8848 891.814 19.8848C892.522 19.8848 893.025 19.5479 893.025 19.0693V19.0596C893.025 18.7031 892.757 18.4541 892.107 18.2979L891.292 18.1025C890.306 17.8682 889.861 17.4385 889.861 16.6816V16.6768C889.861 15.8027 890.701 15.1436 891.819 15.1436C892.923 15.1436 893.689 15.6953 893.807 16.5547H892.972C892.859 16.1396 892.449 15.8516 891.814 15.8516C891.189 15.8516 890.73 16.1738 890.73 16.6377V16.6475C890.73 17.0039 890.994 17.2285 891.614 17.3799L892.425 17.5752C893.416 17.8145 893.895 18.2441 893.895 18.9961V19.0059C893.895 19.9434 892.981 20.5928 891.785 20.5928ZM895.662 14.2207C895.34 14.2207 895.076 13.957 895.076 13.6348C895.076 13.3125 895.34 13.0488 895.662 13.0488C895.984 13.0488 896.248 13.3125 896.248 13.6348C896.248 13.957 895.984 14.2207 895.662 14.2207ZM895.232 20.5V15.2363H896.082V20.5H895.232ZM899.554 20.5391C898.47 20.5391 898.016 20.1387 898.016 19.1328V15.9395H897.186V15.2363H898.016V13.874H898.895V15.2363H900.047V15.9395H898.895V18.918C898.895 19.5381 899.109 19.7871 899.656 19.7871C899.808 19.7871 899.891 19.7822 900.047 19.7676V20.4902C899.881 20.5195 899.72 20.5391 899.554 20.5391ZM901.766 14.2207C901.443 14.2207 901.18 13.957 901.18 13.6348C901.18 13.3125 901.443 13.0488 901.766 13.0488C902.088 13.0488 902.352 13.3125 902.352 13.6348C902.352 13.957 902.088 14.2207 901.766 14.2207ZM901.336 20.5V15.2363H902.186V20.5H901.336ZM905.95 20.5928C904.451 20.5928 903.523 19.5576 903.523 17.873V17.8633C903.523 16.1738 904.451 15.1436 905.95 15.1436C907.449 15.1436 908.377 16.1738 908.377 17.8633V17.873C908.377 19.5576 907.449 20.5928 905.95 20.5928ZM905.95 19.8408C906.946 19.8408 907.508 19.1133 907.508 17.873V17.8633C907.508 16.6182 906.946 15.8955 905.95 15.8955C904.954 15.8955 904.393 16.6182 904.393 17.8633V17.873C904.393 19.1133 904.954 19.8408 905.95 19.8408ZM909.695 20.5V15.2363H910.545V16.0273H910.623C910.887 15.4707 911.38 15.1436 912.156 15.1436C913.338 15.1436 913.997 15.8418 913.997 17.0918V20.5H913.147V17.2969C913.147 16.3496 912.757 15.8955 911.917 15.8955C911.077 15.8955 910.545 16.4619 910.545 17.3848V20.5H909.695ZM915.994 22.2578H915.281C915.989 21.3545 916.517 19.4111 916.517 17.7021C916.517 16.0078 915.989 14.0498 915.281 13.1465H915.994C916.951 14.4111 917.381 15.8906 917.381 17.7021C917.381 19.5186 916.946 20.9932 915.994 22.2578Z" fill="#202020"/>
<path d="M935.929 23.571L950.071 9.42891" stroke="#202020" stroke-linecap="round"/>
<path d="M935.929 9.42896L950.071 23.5711" stroke="#202020" stroke-linecap="round"/>
<path d="M1028.89 10.166C1027.35 10.166 1026.35 9.35547 1026.25 8.20801L1026.24 8.1543H1027.12L1027.13 8.20801C1027.19 8.91113 1027.92 9.35547 1028.94 9.35547C1029.89 9.35547 1030.59 8.8623 1030.59 8.14453V8.13965C1030.59 7.55371 1030.19 7.15332 1029.22 6.93848L1028.44 6.76758C1027.03 6.45508 1026.42 5.80566 1026.42 4.78516V4.78027C1026.42 3.61328 1027.44 2.78809 1028.9 2.78809C1030.3 2.78809 1031.29 3.61816 1031.36 4.66797L1031.36 4.73633H1030.49L1030.48 4.67285C1030.38 4.05273 1029.79 3.59375 1028.87 3.59863C1028 3.60352 1027.32 4.01855 1027.32 4.75586V4.76074C1027.32 5.32227 1027.7 5.70312 1028.66 5.91309L1029.44 6.08887C1030.91 6.41602 1031.49 7.00684 1031.49 8.02246V8.02734C1031.49 9.3457 1030.46 10.166 1028.89 10.166ZM1034.61 10.0928C1033.42 10.0928 1032.8 9.38965 1032.8 8.14453V4.73633H1033.65V7.93945C1033.65 8.88672 1033.99 9.34082 1034.83 9.34082C1035.76 9.34082 1036.25 8.77441 1036.25 7.85156V4.73633H1037.1V10H1036.25V9.21387H1036.17C1035.92 9.77539 1035.38 10.0928 1034.61 10.0928ZM1040.84 10.0928C1039.37 10.0928 1038.42 9.02344 1038.42 7.35352V7.34375C1038.42 5.70801 1039.36 4.64355 1040.84 4.64355C1042.12 4.64355 1042.88 5.38086 1043.04 6.31836L1043.04 6.34766H1042.2L1042.19 6.33301C1042.06 5.81543 1041.59 5.39551 1040.84 5.39551C1039.89 5.39551 1039.29 6.15723 1039.29 7.34375V7.35352C1039.29 8.56445 1039.9 9.34082 1040.84 9.34082C1041.54 9.34082 1041.99 9.02832 1042.19 8.44238L1042.2 8.41309L1043.04 8.4082L1043.03 8.46191C1042.81 9.41406 1042.11 10.0928 1040.84 10.0928ZM1046.44 10.0928C1044.96 10.0928 1044.02 9.02344 1044.02 7.35352V7.34375C1044.02 5.70801 1044.96 4.64355 1046.43 4.64355C1047.71 4.64355 1048.48 5.38086 1048.63 6.31836L1048.64 6.34766H1047.79L1047.79 6.33301C1047.66 5.81543 1047.19 5.39551 1046.43 5.39551C1045.49 5.39551 1044.89 6.15723 1044.89 7.34375V7.35352C1044.89 8.56445 1045.5 9.34082 1046.43 9.34082C1047.14 9.34082 1047.59 9.02832 1047.79 8.44238L1047.79 8.41309L1048.63 8.4082L1048.62 8.46191C1048.41 9.41406 1047.7 10.0928 1046.44 10.0928ZM1052.03 10.0928C1050.52 10.0928 1049.62 9.03809 1049.62 7.3877V7.38281C1049.62 5.75684 1050.54 4.64355 1051.97 4.64355C1053.41 4.64355 1054.27 5.70801 1054.27 7.28027V7.6123H1050.49C1050.51 8.70117 1051.11 9.33594 1052.05 9.33594C1052.76 9.33594 1053.2 8.99902 1053.34 8.68164L1053.36 8.6377H1054.21L1054.2 8.67676C1054.02 9.38965 1053.27 10.0928 1052.03 10.0928ZM1051.97 5.40039C1051.19 5.40039 1050.59 5.93262 1050.5 6.93359H1053.41C1053.32 5.89355 1052.75 5.40039 1051.97 5.40039ZM1057.4 10.0928C1056.23 10.0928 1055.42 9.52637 1055.32 8.65723H1056.19C1056.33 9.09668 1056.75 9.38477 1057.43 9.38477C1058.14 9.38477 1058.64 9.04785 1058.64 8.56934V8.55957C1058.64 8.20312 1058.37 7.9541 1057.72 7.79785L1056.91 7.60254C1055.92 7.36816 1055.48 6.93848 1055.48 6.18164V6.17676C1055.48 5.30273 1056.32 4.64355 1057.43 4.64355C1058.54 4.64355 1059.3 5.19531 1059.42 6.05469H1058.59C1058.47 5.63965 1058.06 5.35156 1057.43 5.35156C1056.8 5.35156 1056.34 5.67383 1056.34 6.1377V6.14746C1056.34 6.50391 1056.61 6.72852 1057.23 6.87988L1058.04 7.0752C1059.03 7.31445 1059.51 7.74414 1059.51 8.49609V8.50586C1059.51 9.44336 1058.6 10.0928 1057.4 10.0928ZM1062.54 10.0928C1061.36 10.0928 1060.56 9.52637 1060.46 8.65723H1061.33C1061.47 9.09668 1061.89 9.38477 1062.57 9.38477C1063.27 9.38477 1063.78 9.04785 1063.78 8.56934V8.55957C1063.78 8.20312 1063.51 7.9541 1062.86 7.79785L1062.04 7.60254C1061.06 7.36816 1060.61 6.93848 1060.61 6.18164V6.17676C1060.61 5.30273 1061.45 4.64355 1062.57 4.64355C1063.67 4.64355 1064.44 5.19531 1064.56 6.05469H1063.72C1063.61 5.63965 1063.2 5.35156 1062.57 5.35156C1061.94 5.35156 1061.48 5.67383 1061.48 6.1377V6.14746C1061.48 6.50391 1061.75 6.72852 1062.37 6.87988L1063.18 7.0752C1064.17 7.31445 1064.65 7.74414 1064.65 8.49609V8.50586C1064.65 9.44336 1063.73 10.0928 1062.54 10.0928ZM1068.78 10V4.73633H1069.63V5.51758H1069.7C1069.9 4.96582 1070.4 4.64355 1071.11 4.64355C1071.27 4.64355 1071.45 4.66309 1071.54 4.67773V5.50293C1071.36 5.47363 1071.2 5.4541 1071.01 5.4541C1070.2 5.4541 1069.63 5.9668 1069.63 6.73828V10H1068.78ZM1074.03 10.0928C1073.03 10.0928 1072.27 9.4873 1072.27 8.53027V8.52051C1072.27 7.58301 1072.97 7.04102 1074.19 6.96777L1075.7 6.875V6.39648C1075.7 5.74707 1075.3 5.39551 1074.52 5.39551C1073.89 5.39551 1073.47 5.62988 1073.34 6.04004L1073.33 6.05469H1072.48L1072.49 6.02539C1072.62 5.2002 1073.42 4.64355 1074.55 4.64355C1075.83 4.64355 1076.55 5.30273 1076.55 6.39648V10H1075.7V9.22363H1075.62C1075.29 9.78516 1074.74 10.0928 1074.03 10.0928ZM1073.14 8.51074C1073.14 9.04297 1073.6 9.35547 1074.21 9.35547C1075.07 9.35547 1075.7 8.78906 1075.7 8.03711V7.55859L1074.29 7.64648C1073.49 7.69531 1073.14 7.97852 1073.14 8.50098V8.51074ZM1079.97 10.0391C1078.89 10.0391 1078.43 9.63867 1078.43 8.63281V5.43945H1077.6V4.73633H1078.43V3.37402H1079.31V4.73633H1080.47V5.43945H1079.31V8.41797C1079.31 9.03809 1079.53 9.28711 1080.08 9.28711C1080.23 9.28711 1080.31 9.28223 1080.47 9.26758V9.99023C1080.3 10.0195 1080.14 10.0391 1079.97 10.0391ZM1083.81 10.0928C1082.3 10.0928 1081.39 9.03809 1081.39 7.3877V7.38281C1081.39 5.75684 1082.32 4.64355 1083.75 4.64355C1085.18 4.64355 1086.05 5.70801 1086.05 7.28027V7.6123H1082.26C1082.29 8.70117 1082.89 9.33594 1083.83 9.33594C1084.54 9.33594 1084.98 8.99902 1085.12 8.68164L1085.14 8.6377H1085.99L1085.98 8.67676C1085.8 9.38965 1085.05 10.0928 1083.81 10.0928ZM1083.75 5.40039C1082.97 5.40039 1082.37 5.93262 1082.28 6.93359H1085.19C1085.1 5.89355 1084.52 5.40039 1083.75 5.40039ZM1092.35 10.0928C1090.85 10.0928 1089.92 9.05762 1089.92 7.37305V7.36328C1089.92 5.67383 1090.85 4.64355 1092.35 4.64355C1093.84 4.64355 1094.77 5.67383 1094.77 7.36328V7.37305C1094.77 9.05762 1093.84 10.0928 1092.35 10.0928ZM1092.35 9.34082C1093.34 9.34082 1093.9 8.61328 1093.9 7.37305V7.36328C1093.9 6.11816 1093.34 5.39551 1092.35 5.39551C1091.35 5.39551 1090.79 6.11816 1090.79 7.36328V7.37305C1090.79 8.61328 1091.35 9.34082 1092.35 9.34082ZM1096.44 10V5.43945H1095.57V4.73633H1096.44V4.15039C1096.44 3.10059 1096.97 2.59766 1097.97 2.59766C1098.18 2.59766 1098.36 2.6123 1098.54 2.64648V3.3252C1098.43 3.30566 1098.29 3.30078 1098.14 3.30078C1097.54 3.30078 1097.29 3.59863 1097.29 4.1748V4.73633H1098.49V5.43945H1097.29V10H1096.44ZM1104.33 10.0928C1103.16 10.0928 1102.36 9.52637 1102.26 8.65723H1103.13C1103.27 9.09668 1103.69 9.38477 1104.36 9.38477C1105.07 9.38477 1105.57 9.04785 1105.57 8.56934V8.55957C1105.57 8.20312 1105.3 7.9541 1104.66 7.79785L1103.84 7.60254C1102.85 7.36816 1102.41 6.93848 1102.41 6.18164V6.17676C1102.41 5.30273 1103.25 4.64355 1104.37 4.64355C1105.47 4.64355 1106.24 5.19531 1106.35 6.05469H1105.52C1105.41 5.63965 1105 5.35156 1104.36 5.35156C1103.74 5.35156 1103.28 5.67383 1103.28 6.1377V6.14746C1103.28 6.50391 1103.54 6.72852 1104.16 6.87988L1104.97 7.0752C1105.96 7.31445 1106.44 7.74414 1106.44 8.49609V8.50586C1106.44 9.44336 1105.53 10.0928 1104.33 10.0928ZM1109.91 10.0928C1108.41 10.0928 1107.5 9.03809 1107.5 7.3877V7.38281C1107.5 5.75684 1108.42 4.64355 1109.86 4.64355C1111.29 4.64355 1112.16 5.70801 1112.16 7.28027V7.6123H1108.37C1108.39 8.70117 1108.99 9.33594 1109.93 9.33594C1110.64 9.33594 1111.08 8.99902 1111.22 8.68164L1111.24 8.6377H1112.09L1112.08 8.67676C1111.9 9.38965 1111.15 10.0928 1109.91 10.0928ZM1109.85 5.40039C1109.07 5.40039 1108.47 5.93262 1108.38 6.93359H1111.29C1111.2 5.89355 1110.63 5.40039 1109.85 5.40039ZM1113.52 10V2.64648H1114.37V10H1113.52ZM1118.15 10.0928C1116.65 10.0928 1115.74 9.03809 1115.74 7.3877V7.38281C1115.74 5.75684 1116.67 4.64355 1118.1 4.64355C1119.53 4.64355 1120.4 5.70801 1120.4 7.28027V7.6123H1116.61C1116.63 8.70117 1117.23 9.33594 1118.17 9.33594C1118.88 9.33594 1119.32 8.99902 1119.46 8.68164L1119.48 8.6377H1120.33L1120.32 8.67676C1120.14 9.38965 1119.39 10.0928 1118.15 10.0928ZM1118.09 5.40039C1117.31 5.40039 1116.72 5.93262 1116.62 6.93359H1119.53C1119.45 5.89355 1118.87 5.40039 1118.09 5.40039ZM1123.87 10.0928C1122.39 10.0928 1121.45 9.02344 1121.45 7.35352V7.34375C1121.45 5.70801 1122.39 4.64355 1123.86 4.64355C1125.14 4.64355 1125.91 5.38086 1126.07 6.31836L1126.07 6.34766H1125.23L1125.22 6.33301C1125.09 5.81543 1124.62 5.39551 1123.86 5.39551C1122.92 5.39551 1122.32 6.15723 1122.32 7.34375V7.35352C1122.32 8.56445 1122.93 9.34082 1123.86 9.34082C1124.57 9.34082 1125.02 9.02832 1125.22 8.44238L1125.23 8.41309L1126.07 8.4082L1126.06 8.46191C1125.84 9.41406 1125.13 10.0928 1123.87 10.0928ZM1129.28 10.0391C1128.2 10.0391 1127.74 9.63867 1127.74 8.63281V5.43945H1126.91V4.73633H1127.74V3.37402H1128.62V4.73633H1129.77V5.43945H1128.62V8.41797C1128.62 9.03809 1128.83 9.28711 1129.38 9.28711C1129.53 9.28711 1129.62 9.28223 1129.77 9.26758V9.99023C1129.61 10.0195 1129.45 10.0391 1129.28 10.0391ZM1133.11 10.0928C1131.61 10.0928 1130.7 9.03809 1130.7 7.3877V7.38281C1130.7 5.75684 1131.63 4.64355 1133.06 4.64355C1134.49 4.64355 1135.36 5.70801 1135.36 7.28027V7.6123H1131.57C1131.59 8.70117 1132.19 9.33594 1133.13 9.33594C1133.84 9.33594 1134.28 8.99902 1134.43 8.68164L1134.45 8.6377H1135.29L1135.29 8.67676C1135.1 9.38965 1134.35 10.0928 1133.11 10.0928ZM1133.05 5.40039C1132.27 5.40039 1131.68 5.93262 1131.58 6.93359H1134.49C1134.41 5.89355 1133.83 5.40039 1133.05 5.40039ZM1138.62 10.0928C1137.29 10.0928 1136.41 9.01367 1136.41 7.37305V7.36328C1136.41 5.71289 1137.28 4.64355 1138.62 4.64355C1139.34 4.64355 1139.97 5.00488 1140.26 5.56641H1140.34V2.64648H1141.19V10H1140.34V9.16016H1140.26C1139.94 9.74609 1139.35 10.0928 1138.62 10.0928ZM1138.82 9.34082C1139.77 9.34082 1140.36 8.58887 1140.36 7.37305V7.36328C1140.36 6.14746 1139.77 5.39551 1138.82 5.39551C1137.85 5.39551 1137.28 6.1377 1137.28 7.36328V7.37305C1137.28 8.59863 1137.85 9.34082 1138.82 9.34082ZM1147.5 10.0391C1146.42 10.0391 1145.96 9.63867 1145.96 8.63281V5.43945H1145.13V4.73633H1145.96V3.37402H1146.84V4.73633H1148V5.43945H1146.84V8.41797C1146.84 9.03809 1147.06 9.28711 1147.6 9.28711C1147.76 9.28711 1147.84 9.28223 1148 9.26758V9.99023C1147.83 10.0195 1147.67 10.0391 1147.5 10.0391ZM1150.71 10.0928C1149.71 10.0928 1148.95 9.4873 1148.95 8.53027V8.52051C1148.95 7.58301 1149.65 7.04102 1150.87 6.96777L1152.38 6.875V6.39648C1152.38 5.74707 1151.98 5.39551 1151.2 5.39551C1150.57 5.39551 1150.15 5.62988 1150.02 6.04004L1150.01 6.05469H1149.16L1149.17 6.02539C1149.3 5.2002 1150.1 4.64355 1151.23 4.64355C1152.51 4.64355 1153.23 5.30273 1153.23 6.39648V10H1152.38V9.22363H1152.3C1151.97 9.78516 1151.42 10.0928 1150.71 10.0928ZM1149.82 8.51074C1149.82 9.04297 1150.28 9.35547 1150.89 9.35547C1151.75 9.35547 1152.38 8.78906 1152.38 8.03711V7.55859L1150.97 7.64648C1150.17 7.69531 1149.82 7.97852 1149.82 8.50098V8.51074ZM1156.95 11.8555C1155.68 11.8555 1154.87 11.2842 1154.74 10.4199L1154.75 10.415H1155.63L1155.63 10.4199C1155.72 10.8203 1156.19 11.1035 1156.95 11.1035C1157.89 11.1035 1158.45 10.6592 1158.45 9.88281V8.81836H1158.38C1158.04 9.39941 1157.45 9.72656 1156.73 9.72656C1155.36 9.72656 1154.52 8.67188 1154.52 7.19727V7.1875C1154.52 5.71289 1155.37 4.64355 1156.75 4.64355C1157.49 4.64355 1158.06 5.00977 1158.39 5.60547H1158.44V4.73633H1159.29V9.92676C1159.29 11.1035 1158.39 11.8555 1156.95 11.8555ZM1156.91 8.97461C1157.89 8.97461 1158.47 8.24219 1158.47 7.19727V7.1875C1158.47 6.14258 1157.88 5.39551 1156.91 5.39551C1155.93 5.39551 1155.39 6.14258 1155.39 7.1875V7.19727C1155.39 8.24219 1155.93 8.97461 1156.91 8.97461ZM1162.68 10.0928C1161.51 10.0928 1160.71 9.52637 1160.61 8.65723H1161.48C1161.62 9.09668 1162.04 9.38477 1162.71 9.38477C1163.42 9.38477 1163.92 9.04785 1163.92 8.56934V8.55957C1163.92 8.20312 1163.65 7.9541 1163 7.79785L1162.19 7.60254C1161.2 7.36816 1160.76 6.93848 1160.76 6.18164V6.17676C1160.76 5.30273 1161.6 4.64355 1162.72 4.64355C1163.82 4.64355 1164.59 5.19531 1164.7 6.05469H1163.87C1163.76 5.63965 1163.35 5.35156 1162.71 5.35156C1162.09 5.35156 1161.63 5.67383 1161.63 6.1377V6.14746C1161.63 6.50391 1161.89 6.72852 1162.51 6.87988L1163.32 7.0752C1164.31 7.31445 1164.79 7.74414 1164.79 8.49609V8.50586C1164.79 9.44336 1163.88 10.0928 1162.68 10.0928Z" fill="#202020"/>
<rect x="967" y="16" width="257" height="1" fill="#202020"/>
<path d="M1013.37 31V23.9541H1016.06C1017.42 23.9541 1018.31 24.7842 1018.31 26.0488V26.0586C1018.31 27.0352 1017.78 27.7969 1016.89 28.0752L1018.52 31H1017.49L1015.98 28.2119H1014.25V31H1013.37ZM1014.25 27.4307H1015.98C1016.89 27.4307 1017.4 26.9473 1017.4 26.0879V26.0781C1017.4 25.2383 1016.85 24.7354 1015.94 24.7354H1014.25V27.4307ZM1021.8 31.0928C1020.29 31.0928 1019.39 30.0381 1019.39 28.3877V28.3828C1019.39 26.7568 1020.31 25.6436 1021.75 25.6436C1023.18 25.6436 1024.04 26.708 1024.04 28.2803V28.6123H1020.26C1020.28 29.7012 1020.88 30.3359 1021.82 30.3359C1022.53 30.3359 1022.97 29.999 1023.11 29.6816L1023.13 29.6377H1023.98L1023.97 29.6768C1023.79 30.3896 1023.04 31.0928 1021.8 31.0928ZM1021.74 26.4004C1020.96 26.4004 1020.36 26.9326 1020.27 27.9336H1023.18C1023.09 26.8936 1022.52 26.4004 1021.74 26.4004ZM1025.41 31V23.6465H1026.26V31H1025.41ZM1030.04 31.0928C1028.54 31.0928 1027.63 30.0381 1027.63 28.3877V28.3828C1027.63 26.7568 1028.56 25.6436 1029.99 25.6436C1031.42 25.6436 1032.29 26.708 1032.29 28.2803V28.6123H1028.5C1028.52 29.7012 1029.12 30.3359 1030.06 30.3359C1030.77 30.3359 1031.21 29.999 1031.35 29.6816L1031.37 29.6377H1032.22L1032.21 29.6768C1032.03 30.3896 1031.28 31.0928 1030.04 31.0928ZM1029.98 26.4004C1029.2 26.4004 1028.61 26.9326 1028.51 27.9336H1031.42C1031.33 26.8936 1030.76 26.4004 1029.98 26.4004ZM1035 31L1033.05 25.7363H1033.95L1035.39 30.0723H1035.47L1036.91 25.7363H1037.8L1035.86 31H1035ZM1040.18 31.0928C1039.18 31.0928 1038.42 30.4873 1038.42 29.5303V29.5205C1038.42 28.583 1039.11 28.041 1040.34 27.9678L1041.85 27.875V27.3965C1041.85 26.7471 1041.45 26.3955 1040.67 26.3955C1040.04 26.3955 1039.62 26.6299 1039.48 27.04L1039.48 27.0547H1038.63L1038.63 27.0254C1038.77 26.2002 1039.57 25.6436 1040.7 25.6436C1041.98 25.6436 1042.7 26.3027 1042.7 27.3965V31H1041.85V30.2236H1041.77C1041.44 30.7852 1040.89 31.0928 1040.18 31.0928ZM1039.29 29.5107C1039.29 30.043 1039.74 30.3555 1040.35 30.3555C1041.22 30.3555 1041.85 29.7891 1041.85 29.0371V28.5586L1040.44 28.6465C1039.64 28.6953 1039.29 28.9785 1039.29 29.501V29.5107ZM1044.25 31V25.7363H1045.1V26.5273H1045.18C1045.44 25.9707 1045.93 25.6436 1046.71 25.6436C1047.89 25.6436 1048.55 26.3418 1048.55 27.5918V31H1047.7V27.7969C1047.7 26.8496 1047.31 26.3955 1046.47 26.3955C1045.63 26.3955 1045.1 26.9619 1045.1 27.8848V31H1044.25ZM1052.24 31.0928C1050.77 31.0928 1049.83 30.0234 1049.83 28.3535V28.3438C1049.83 26.708 1050.76 25.6436 1052.24 25.6436C1053.52 25.6436 1054.28 26.3809 1054.44 27.3184L1054.45 27.3477H1053.6L1053.6 27.333C1053.46 26.8154 1053 26.3955 1052.24 26.3955C1051.29 26.3955 1050.7 27.1572 1050.7 28.3438V28.3535C1050.7 29.5645 1051.3 30.3408 1052.24 30.3408C1052.95 30.3408 1053.4 30.0283 1053.59 29.4424L1053.6 29.4131L1054.44 29.4082L1054.43 29.4619C1054.22 30.4141 1053.51 31.0928 1052.24 31.0928ZM1057.83 31.0928C1056.33 31.0928 1055.42 30.0381 1055.42 28.3877V28.3828C1055.42 26.7568 1056.35 25.6436 1057.78 25.6436C1059.21 25.6436 1060.08 26.708 1060.08 28.2803V28.6123H1056.29C1056.32 29.7012 1056.92 30.3359 1057.85 30.3359C1058.57 30.3359 1059.01 29.999 1059.15 29.6816L1059.17 29.6377H1060.02L1060.01 29.6768C1059.83 30.3896 1059.07 31.0928 1057.83 31.0928ZM1057.78 26.4004C1056.99 26.4004 1056.4 26.9326 1056.31 27.9336H1059.22C1059.13 26.8936 1058.55 26.4004 1057.78 26.4004ZM1066.37 31.0928C1064.88 31.0928 1063.95 30.0576 1063.95 28.373V28.3633C1063.95 26.6738 1064.88 25.6436 1066.37 25.6436C1067.87 25.6436 1068.8 26.6738 1068.8 28.3633V28.373C1068.8 30.0576 1067.87 31.0928 1066.37 31.0928ZM1066.37 30.3408C1067.37 30.3408 1067.93 29.6133 1067.93 28.373V28.3633C1067.93 27.1182 1067.37 26.3955 1066.37 26.3955C1065.38 26.3955 1064.82 27.1182 1064.82 28.3633V28.373C1064.82 29.6133 1065.38 30.3408 1066.37 30.3408ZM1070.47 31V26.4395H1069.6V25.7363H1070.47V25.1504C1070.47 24.1006 1071 23.5977 1072 23.5977C1072.2 23.5977 1072.39 23.6123 1072.57 23.6465V24.3252C1072.46 24.3057 1072.32 24.3008 1072.17 24.3008C1071.56 24.3008 1071.32 24.5986 1071.32 25.1748V25.7363H1072.52V26.4395H1071.32V31H1070.47ZM1078.36 31.0928C1077.19 31.0928 1076.38 30.5264 1076.29 29.6572H1077.16C1077.3 30.0967 1077.72 30.3848 1078.39 30.3848C1079.1 30.3848 1079.6 30.0479 1079.6 29.5693V29.5596C1079.6 29.2031 1079.33 28.9541 1078.68 28.7979L1077.87 28.6025C1076.88 28.3682 1076.44 27.9385 1076.44 27.1816V27.1768C1076.44 26.3027 1077.28 25.6436 1078.4 25.6436C1079.5 25.6436 1080.27 26.1953 1080.38 27.0547H1079.55C1079.44 26.6396 1079.03 26.3516 1078.39 26.3516C1077.77 26.3516 1077.31 26.6738 1077.31 27.1377V27.1475C1077.31 27.5039 1077.57 27.7285 1078.19 27.8799L1079 28.0752C1079.99 28.3145 1080.47 28.7441 1080.47 29.4961V29.5059C1080.47 30.4434 1079.56 31.0928 1078.36 31.0928ZM1083.94 31.0928C1082.43 31.0928 1081.53 30.0381 1081.53 28.3877V28.3828C1081.53 26.7568 1082.45 25.6436 1083.88 25.6436C1085.31 25.6436 1086.18 26.708 1086.18 28.2803V28.6123H1082.39C1082.42 29.7012 1083.02 30.3359 1083.96 30.3359C1084.67 30.3359 1085.11 29.999 1085.25 29.6816L1085.27 29.6377H1086.12L1086.11 29.6768C1085.93 30.3896 1085.18 31.0928 1083.94 31.0928ZM1083.88 26.4004C1083.1 26.4004 1082.5 26.9326 1082.41 27.9336H1085.32C1085.23 26.8936 1084.66 26.4004 1083.88 26.4004ZM1087.55 31V23.6465H1088.4V31H1087.55ZM1092.18 31.0928C1090.68 31.0928 1089.77 30.0381 1089.77 28.3877V28.3828C1089.77 26.7568 1090.7 25.6436 1092.13 25.6436C1093.56 25.6436 1094.43 26.708 1094.43 28.2803V28.6123H1090.64C1090.66 29.7012 1091.26 30.3359 1092.2 30.3359C1092.91 30.3359 1093.35 29.999 1093.49 29.6816L1093.51 29.6377H1094.36L1094.35 29.6768C1094.17 30.3896 1093.42 31.0928 1092.18 31.0928ZM1092.12 26.4004C1091.34 26.4004 1090.74 26.9326 1090.65 27.9336H1093.56C1093.47 26.8936 1092.9 26.4004 1092.12 26.4004ZM1097.9 31.0928C1096.42 31.0928 1095.48 30.0234 1095.48 28.3535V28.3438C1095.48 26.708 1096.42 25.6436 1097.89 25.6436C1099.17 25.6436 1099.94 26.3809 1100.09 27.3184L1100.1 27.3477H1099.25L1099.25 27.333C1099.12 26.8154 1098.65 26.3955 1097.89 26.3955C1096.95 26.3955 1096.35 27.1572 1096.35 28.3438V28.3535C1096.35 29.5645 1096.96 30.3408 1097.89 30.3408C1098.6 30.3408 1099.05 30.0283 1099.25 29.4424L1099.25 29.4131L1100.09 29.4082L1100.08 29.4619C1099.87 30.4141 1099.16 31.0928 1097.9 31.0928ZM1103.31 31.0391C1102.22 31.0391 1101.77 30.6387 1101.77 29.6328V26.4395H1100.94V25.7363H1101.77V24.374H1102.65V25.7363H1103.8V26.4395H1102.65V29.418C1102.65 30.0381 1102.86 30.2871 1103.41 30.2871C1103.56 30.2871 1103.64 30.2822 1103.8 30.2676V30.9902C1103.63 31.0195 1103.47 31.0391 1103.31 31.0391ZM1107.14 31.0928C1105.64 31.0928 1104.73 30.0381 1104.73 28.3877V28.3828C1104.73 26.7568 1105.66 25.6436 1107.09 25.6436C1108.52 25.6436 1109.39 26.708 1109.39 28.2803V28.6123H1105.6C1105.62 29.7012 1106.22 30.3359 1107.16 30.3359C1107.87 30.3359 1108.31 29.999 1108.45 29.6816L1108.47 29.6377H1109.32L1109.31 29.6768C1109.13 30.3896 1108.38 31.0928 1107.14 31.0928ZM1107.08 26.4004C1106.3 26.4004 1105.71 26.9326 1105.61 27.9336H1108.52C1108.43 26.8936 1107.86 26.4004 1107.08 26.4004ZM1112.65 31.0928C1111.32 31.0928 1110.44 30.0137 1110.44 28.373V28.3633C1110.44 26.7129 1111.31 25.6436 1112.65 25.6436C1113.37 25.6436 1114 26.0049 1114.29 26.5664H1114.37V23.6465H1115.22V31H1114.37V30.1602H1114.29C1113.97 30.7461 1113.38 31.0928 1112.65 31.0928ZM1112.84 30.3408C1113.8 30.3408 1114.39 29.5889 1114.39 28.373V28.3633C1114.39 27.1475 1113.8 26.3955 1112.84 26.3955C1111.88 26.3955 1111.31 27.1377 1111.31 28.3633V28.373C1111.31 29.5986 1111.88 30.3408 1112.84 30.3408ZM1121.53 31.0391C1120.45 31.0391 1119.99 30.6387 1119.99 29.6328V26.4395H1119.16V25.7363H1119.99V24.374H1120.87V25.7363H1122.02V26.4395H1120.87V29.418C1120.87 30.0381 1121.09 30.2871 1121.63 30.2871C1121.78 30.2871 1121.87 30.2822 1122.02 30.2676V30.9902C1121.86 31.0195 1121.7 31.0391 1121.53 31.0391ZM1124.74 31.0928C1123.74 31.0928 1122.98 30.4873 1122.98 29.5303V29.5205C1122.98 28.583 1123.67 28.041 1124.9 27.9678L1126.41 27.875V27.3965C1126.41 26.7471 1126.01 26.3955 1125.23 26.3955C1124.6 26.3955 1124.18 26.6299 1124.04 27.04L1124.04 27.0547H1123.19L1123.2 27.0254C1123.33 26.2002 1124.13 25.6436 1125.26 25.6436C1126.54 25.6436 1127.26 26.3027 1127.26 27.3965V31H1126.41V30.2236H1126.33C1126 30.7852 1125.45 31.0928 1124.74 31.0928ZM1123.85 29.5107C1123.85 30.043 1124.3 30.3555 1124.91 30.3555C1125.78 30.3555 1126.41 29.7891 1126.41 29.0371V28.5586L1125 28.6465C1124.2 28.6953 1123.85 28.9785 1123.85 29.501V29.5107ZM1130.98 32.8555C1129.71 32.8555 1128.9 32.2842 1128.77 31.4199L1128.78 31.415H1129.66L1129.66 31.4199C1129.75 31.8203 1130.22 32.1035 1130.98 32.1035C1131.92 32.1035 1132.48 31.6592 1132.48 30.8828V29.8184H1132.4C1132.07 30.3994 1131.48 30.7266 1130.75 30.7266C1129.39 30.7266 1128.55 29.6719 1128.55 28.1973V28.1875C1128.55 26.7129 1129.4 25.6436 1130.77 25.6436C1131.52 25.6436 1132.09 26.0098 1132.41 26.6055H1132.47V25.7363H1133.32V30.9268C1133.32 32.1035 1132.41 32.8555 1130.98 32.8555ZM1130.94 29.9746C1131.92 29.9746 1132.5 29.2422 1132.5 28.1973V28.1875C1132.5 27.1426 1131.91 26.3955 1130.94 26.3955C1129.96 26.3955 1129.42 27.1426 1129.42 28.1875V28.1973C1129.42 29.2422 1129.96 29.9746 1130.94 29.9746ZM1136.71 31.0928C1135.54 31.0928 1134.73 30.5264 1134.64 29.6572H1135.5C1135.65 30.0967 1136.07 30.3848 1136.74 30.3848C1137.45 30.3848 1137.95 30.0479 1137.95 29.5693V29.5596C1137.95 29.2031 1137.68 28.9541 1137.03 28.7979L1136.22 28.6025C1135.23 28.3682 1134.79 27.9385 1134.79 27.1816V27.1768C1134.79 26.3027 1135.63 25.6436 1136.75 25.6436C1137.85 25.6436 1138.62 26.1953 1138.73 27.0547H1137.9C1137.79 26.6396 1137.38 26.3516 1136.74 26.3516C1136.12 26.3516 1135.66 26.6738 1135.66 27.1377V27.1475C1135.66 27.5039 1135.92 27.7285 1136.54 27.8799L1137.35 28.0752C1138.34 28.3145 1138.82 28.7441 1138.82 29.4961V29.5059C1138.82 30.4434 1137.91 31.0928 1136.71 31.0928ZM1144.73 32.7578C1143.78 31.4932 1143.34 30.0186 1143.34 28.2021C1143.34 26.3906 1143.77 24.9111 1144.73 23.6465H1145.44C1144.73 24.5498 1144.21 26.5078 1144.21 28.2021C1144.21 29.9111 1144.73 31.8545 1145.44 32.7578H1144.73ZM1148.21 31.0928C1147.21 31.0928 1146.46 30.4873 1146.46 29.5303V29.5205C1146.46 28.583 1147.15 28.041 1148.38 27.9678L1149.88 27.875V27.3965C1149.88 26.7471 1149.49 26.3955 1148.7 26.3955C1148.07 26.3955 1147.66 26.6299 1147.52 27.04L1147.52 27.0547H1146.67L1146.67 27.0254C1146.81 26.2002 1147.61 25.6436 1148.73 25.6436C1150.02 25.6436 1150.73 26.3027 1150.73 27.3965V31H1149.88V30.2236H1149.81C1149.47 30.7852 1148.92 31.0928 1148.21 31.0928ZM1147.33 29.5107C1147.33 30.043 1147.78 30.3555 1148.39 30.3555C1149.25 30.3555 1149.88 29.7891 1149.88 29.0371V28.5586L1148.48 28.6465C1147.68 28.6953 1147.33 28.9785 1147.33 29.501V29.5107ZM1154.44 31.0928C1152.97 31.0928 1152.02 30.0234 1152.02 28.3535V28.3438C1152.02 26.708 1152.96 25.6436 1154.44 25.6436C1155.71 25.6436 1156.48 26.3809 1156.64 27.3184L1156.64 27.3477H1155.8L1155.79 27.333C1155.66 26.8154 1155.19 26.3955 1154.44 26.3955C1153.49 26.3955 1152.89 27.1572 1152.89 28.3438V28.3535C1152.89 29.5645 1153.5 30.3408 1154.44 30.3408C1155.14 30.3408 1155.59 30.0283 1155.79 29.4424L1155.8 29.4131L1156.64 29.4082L1156.63 29.4619C1156.41 30.4141 1155.71 31.0928 1154.44 31.0928ZM1159.85 31.0391C1158.77 31.0391 1158.31 30.6387 1158.31 29.6328V26.4395H1157.48V25.7363H1158.31V24.374H1159.19V25.7363H1160.34V26.4395H1159.19V29.418C1159.19 30.0381 1159.41 30.2871 1159.95 30.2871C1160.1 30.2871 1160.19 30.2822 1160.34 30.2676V30.9902C1160.18 31.0195 1160.02 31.0391 1159.85 31.0391ZM1163.38 31.0928C1162.18 31.0928 1161.56 30.3896 1161.56 29.1445V25.7363H1162.41V28.9395C1162.41 29.8867 1162.76 30.3408 1163.6 30.3408C1164.52 30.3408 1165.02 29.7744 1165.02 28.8516V25.7363H1165.87V31H1165.02V30.2139H1164.94C1164.68 30.7754 1164.15 31.0928 1163.38 31.0928ZM1168.9 31.0928C1167.9 31.0928 1167.14 30.4873 1167.14 29.5303V29.5205C1167.14 28.583 1167.83 28.041 1169.06 27.9678L1170.57 27.875V27.3965C1170.57 26.7471 1170.17 26.3955 1169.39 26.3955C1168.76 26.3955 1168.34 26.6299 1168.21 27.04L1168.2 27.0547H1167.35L1167.36 27.0254C1167.49 26.2002 1168.29 25.6436 1169.42 25.6436C1170.7 25.6436 1171.42 26.3027 1171.42 27.3965V31H1170.57V30.2236H1170.49C1170.16 30.7852 1169.61 31.0928 1168.9 31.0928ZM1168.01 29.5107C1168.01 30.043 1168.46 30.3555 1169.07 30.3555C1169.94 30.3555 1170.57 29.7891 1170.57 29.0371V28.5586L1169.16 28.6465C1168.36 28.6953 1168.01 28.9785 1168.01 29.501V29.5107ZM1173.02 31V23.6465H1173.87V31H1173.02ZM1175.96 32.7578H1175.25C1175.95 31.8545 1176.48 29.9111 1176.48 28.2021C1176.48 26.5078 1175.95 24.5498 1175.25 23.6465H1175.96C1176.92 24.9111 1177.35 26.3906 1177.35 28.2021C1177.35 30.0186 1176.91 31.4932 1175.96 32.7578Z" fill="#202020"/>
<rect y="45" width="1224" height="2" fill="#202020"/>
<path d="M579.773 69.1987C577.92 69.1987 576.75 68.3125 576.658 66.9375L576.653 66.8516H578.216L578.221 66.9053C578.28 67.4854 578.909 67.8774 579.816 67.8774C580.681 67.8774 581.277 67.4639 581.277 66.8677V66.8623C581.277 66.3521 580.896 66.0674 579.935 65.8687L579.118 65.7021C577.507 65.3745 576.814 64.6226 576.814 63.4463V63.4409C576.814 62.0015 578.049 61.0508 579.768 61.0508C581.578 61.0508 582.642 62.0068 582.744 63.3013L582.749 63.3711H581.224L581.213 63.3066C581.122 62.7534 580.584 62.3667 579.768 62.3667C578.968 62.3721 578.436 62.7373 578.436 63.3174V63.3228C578.436 63.8276 578.812 64.1284 579.725 64.3164L580.547 64.4829C582.185 64.8213 582.899 65.4766 582.899 66.6851V66.6904C582.899 68.2266 581.707 69.1987 579.773 69.1987ZM586.879 69.1235C585.08 69.1235 583.99 67.9473 583.99 66.0513V66.0459C583.99 64.166 585.091 62.9575 586.815 62.9575C588.539 62.9575 589.613 64.1392 589.613 65.9277V66.4165H585.542C585.558 67.3887 586.079 67.9526 586.912 67.9526C587.599 67.9526 587.98 67.5874 588.088 67.3618L588.104 67.3296H589.565L589.554 67.3833C589.372 68.1245 588.609 69.1235 586.879 69.1235ZM586.842 64.1338C586.16 64.1338 585.655 64.5957 585.558 65.4336H588.109C588.013 64.5742 587.524 64.1338 586.842 64.1338ZM593.502 69.1235C591.654 69.1235 590.607 68.001 590.607 66.0352V66.0244C590.607 64.0801 591.649 62.9575 593.502 62.9575C595.07 62.9575 596 63.8115 596.139 65.1328V65.1489H594.678L594.673 65.1382C594.571 64.5635 594.179 64.1875 593.507 64.1875C592.664 64.1875 592.202 64.8428 592.202 66.0244V66.0352C592.202 67.2329 592.669 67.8936 593.507 67.8936C594.152 67.8936 594.533 67.5874 594.673 66.9966L594.684 66.9751H596.134L596.128 67.0073C595.967 68.2964 595.043 69.1235 593.502 69.1235ZM597.364 69V63.0864H598.932V64.0049H599.029C599.217 63.3657 599.754 62.9897 600.522 62.9897C600.731 62.9897 600.952 63.022 601.107 63.0649V64.4346C600.871 64.3809 600.629 64.3433 600.388 64.3433C599.496 64.3433 598.932 64.8535 598.932 65.6914V69H597.364ZM604.615 69.1235C602.815 69.1235 601.725 67.9473 601.725 66.0513V66.0459C601.725 64.166 602.826 62.9575 604.55 62.9575C606.274 62.9575 607.349 64.1392 607.349 65.9277V66.4165H603.277C603.293 67.3887 603.814 67.9526 604.647 67.9526C605.334 67.9526 605.716 67.5874 605.823 67.3618L605.839 67.3296H607.3L607.29 67.3833C607.107 68.1245 606.344 69.1235 604.615 69.1235ZM604.577 64.1338C603.895 64.1338 603.39 64.5957 603.293 65.4336H605.845C605.748 64.5742 605.259 64.1338 604.577 64.1338ZM611.087 69.0215C609.647 69.0215 609.067 68.5542 609.067 67.4048V64.2681H608.154V63.0864H609.067V61.6738H610.652V63.0864H611.871V64.2681H610.652V67.0449C610.652 67.5767 610.877 67.813 611.409 67.813C611.613 67.813 611.721 67.8022 611.871 67.7861V68.9517C611.678 68.9893 611.388 69.0215 611.087 69.0215ZM618.365 69.1235C616.759 69.1235 615.846 68.4038 615.733 67.3887L615.728 67.3672H617.269L617.28 67.3887C617.403 67.7539 617.763 68.0171 618.381 68.0171C618.982 68.0171 619.391 67.7593 619.391 67.3672V67.3564C619.391 67.0396 619.154 66.8408 618.553 66.7065L617.564 66.4971C616.437 66.2554 615.878 65.7021 615.878 64.8159V64.8105C615.878 63.6987 616.866 62.9575 618.343 62.9575C619.896 62.9575 620.755 63.731 620.819 64.6816V64.7031H619.364L619.358 64.6763C619.272 64.3594 618.923 64.064 618.338 64.064C617.795 64.064 617.409 64.3164 617.409 64.7139V64.7192C617.409 65.0361 617.629 65.2188 618.241 65.353L619.224 65.5625C620.406 65.8149 620.959 66.3091 620.959 67.1846V67.1899C620.959 68.3608 619.879 69.1235 618.365 69.1235ZM623.854 69.0913C622.726 69.0913 621.926 68.3931 621.926 67.3188V67.3081C621.926 66.2446 622.748 65.6216 624.219 65.5356L625.648 65.4497V64.9609C625.648 64.4507 625.299 64.1606 624.654 64.1606C624.09 64.1606 623.73 64.3594 623.607 64.7085L623.596 64.73H622.146L622.151 64.6816C622.275 63.645 623.252 62.9575 624.74 62.9575C626.309 62.9575 627.195 63.6987 627.195 64.9609V69H625.648V68.2158H625.551C625.25 68.7637 624.627 69.0913 623.854 69.0913ZM623.457 67.2222C623.457 67.6733 623.838 67.9473 624.38 67.9473C625.105 67.9473 625.648 67.4692 625.648 66.8462V66.4111L624.456 66.4863C623.784 66.5293 623.457 66.7817 623.457 67.2114V67.2222ZM630.686 69.1235C629.359 69.1235 628.677 68.3179 628.677 66.9106V63.0864H630.246V66.5508C630.246 67.3887 630.562 67.8237 631.304 67.8237C632.077 67.8237 632.496 67.3027 632.496 66.5024V63.0864H634.064V69H632.496V68.0869H632.399C632.131 68.7314 631.529 69.1235 630.686 69.1235ZM638.243 69.1235C636.396 69.1235 635.348 68.001 635.348 66.0352V66.0244C635.348 64.0801 636.39 62.9575 638.243 62.9575C639.812 62.9575 640.741 63.8115 640.88 65.1328V65.1489H639.419L639.414 65.1382C639.312 64.5635 638.92 64.1875 638.249 64.1875C637.405 64.1875 636.943 64.8428 636.943 66.0244V66.0352C636.943 67.2329 637.411 67.8936 638.249 67.8936C638.893 67.8936 639.274 67.5874 639.414 66.9966L639.425 66.9751H640.875L640.87 67.0073C640.708 68.2964 639.785 69.1235 638.243 69.1235ZM644.705 69.1235C642.905 69.1235 641.815 67.9473 641.815 66.0513V66.0459C641.815 64.166 642.916 62.9575 644.64 62.9575C646.364 62.9575 647.438 64.1392 647.438 65.9277V66.4165H643.367C643.383 67.3887 643.904 67.9526 644.737 67.9526C645.424 67.9526 645.806 67.5874 645.913 67.3618L645.929 67.3296H647.39L647.379 67.3833C647.197 68.1245 646.434 69.1235 644.705 69.1235ZM644.667 64.1338C643.985 64.1338 643.48 64.5957 643.383 65.4336H645.935C645.838 64.5742 645.349 64.1338 644.667 64.1338Z" fill="#202020"/>
</svg>
