<svg width="24" height="24" viewBox="0 0 24 24" fill="none" xmlns="http://www.w3.org/2000/svg">
<path d="M16.4671 17.5499C16.4313 13.5874 14.832 9.79939 12.0173 7.01011C9.20258 4.22083 5.40017 2.65604 1.4375 2.65626C1.11426 2.65626 0.80427 2.52785 0.57571 2.29929C0.347149 2.07073 0.218746 1.76074 0.218746 1.43751C0.218746 1.11427 0.347149 0.80428 0.57571 0.57572C0.80427 0.34716 1.11426 0.218756 1.4375 0.218756C6.0486 0.214522 10.474 2.0354 13.7468 5.28359C17.0197 8.53178 18.874 12.9433 18.9046 17.5543L17.6875 19.1771L16.4671 17.5499ZM11.8375 16.7938L16.7125 23.2938C16.826 23.4451 16.9732 23.568 17.1425 23.6526C17.3117 23.7372 17.4983 23.7813 17.6875 23.7813C17.8767 23.7813 18.0633 23.7372 18.2325 23.6526C18.4018 23.568 18.549 23.4451 18.6625 23.2938L23.5375 16.7938C23.7314 16.5352 23.8147 16.2101 23.769 15.8902C23.7233 15.5702 23.5523 15.2814 23.2937 15.0875C23.0352 14.8936 22.7101 14.8103 22.3901 14.856C22.0702 14.9017 21.7814 15.0727 21.5875 15.3313L17.6875 20.5313L13.7875 15.3313C13.6915 15.2032 13.5712 15.0953 13.4334 15.0138C13.2957 14.9323 13.1433 14.8786 12.9849 14.856C12.8264 14.8334 12.6651 14.8422 12.51 14.8819C12.355 14.9216 12.2093 14.9915 12.0812 15.0875C11.8227 15.2814 11.6517 15.5702 11.606 15.8902C11.5834 16.0486 11.5922 16.2099 11.6319 16.365C11.6716 16.52 11.7415 16.6657 11.8375 16.7938Z" fill="#FC0091"/>
</svg>
