<svg width="33" height="33" viewBox="0 0 33 33" fill="none" xmlns="http://www.w3.org/2000/svg">
<g clip-path="url(#clip0_484_4299)">
<path d="M15.765 0.299377L4.76557 10.1988C4.53238 10.41 4.40039 10.7048 4.40039 11.0172L4.40039 17.6168C4.40039 18.0502 4.65558 18.444 5.05156 18.6222C5.44973 18.7982 5.91391 18.7256 6.23509 18.4352L16.4997 9.1979L26.7622 18.4352C27.0856 18.7256 27.5497 18.8004 27.9457 18.6222C28.3439 18.444 28.5991 18.0502 28.5991 17.6168L28.5991 11.0172C28.5991 10.7048 28.4649 10.41 28.2361 10.1988L17.2367 0.299377C16.8187 -0.0768018 16.1808 -0.0768018 15.765 0.299377Z" fill="#FC0091"/>
<path d="M15.765 14.5987L4.76557 24.4982C4.53238 24.7093 4.40039 25.0041 4.40039 25.3165L4.40039 31.9162C4.40039 32.3495 4.65558 32.7433 5.05156 32.9215C5.44973 33.0975 5.91391 33.0249 6.23509 32.7345L16.4997 23.4972L26.7622 32.7345C27.0856 33.0249 27.5497 33.0997 27.9457 32.9215C28.3439 32.7433 28.5991 32.3495 28.5991 31.9162L28.5991 25.3165C28.5991 25.0041 28.4649 24.7093 28.2361 24.4982L17.2367 14.5987C16.8187 14.2225 16.1808 14.2225 15.765 14.5987Z" fill="#FC0091"/>
</g>
<defs>
<clipPath id="clip0_484_4299">
<rect width="33" height="33" fill="white"/>
</clipPath>
</defs>
</svg>
