<svg width="38" height="38" viewBox="0 0 38 38" fill="none" xmlns="http://www.w3.org/2000/svg">
<path fill-rule="evenodd" clip-rule="evenodd" d="M13.2627 28.3025L16.7922 32.8896C17.1126 33.306 17.0564 33.8954 16.6673 34.2484L15.4535 35.3499C15.2367 35.5466 14.9758 35.6341 14.6843 35.6078C14.3928 35.5814 14.1527 35.4479 13.9738 35.2163L10.0608 30.1511L13.2627 28.3025ZM32.6241 16.5301H36.2187C36.7937 16.5301 37.259 16.0605 37.2578 15.4863C37.2566 14.9113 36.7877 14.4467 36.2135 14.4467H32.6189C32.0439 14.4467 31.5786 14.9163 31.5798 15.4904C31.5809 16.0655 32.0498 16.5301 32.6241 16.5301ZM28.3573 7.06555L30.1547 3.95252C30.4418 3.45518 30.2739 2.8169 29.7765 2.52834C29.2799 2.24022 28.6405 2.40832 28.3531 2.90626L26.5557 6.01929C26.2686 6.51663 26.4365 7.15491 26.9339 7.44347C27.4305 7.73159 28.0698 7.56348 28.3573 7.06555ZM32.5162 10.7944L35.4674 9.09061C35.9684 8.80138 36.14 8.16094 35.8507 7.65989C35.5615 7.15892 34.9211 6.98732 34.42 7.27655L31.4689 8.98047C30.968 9.2697 30.7964 9.91013 31.0856 10.4112C31.3748 10.9121 32.0153 11.0837 32.5162 10.7944ZM27.8747 15.4827L31.3556 21.5118C32.0092 22.6437 31.6177 24.1045 30.4858 24.7581C29.4295 25.368 28.0869 25.0678 27.381 24.1051H27.3809C23.5279 23.519 18.5089 24.1486 13.5182 26.094L8.72029 17.7838C12.9021 14.4381 15.9663 10.4277 17.3853 6.79784L17.3853 6.79769C16.8869 5.70015 17.2963 4.37163 18.3609 3.75703C19.4928 3.10346 20.9536 3.49496 21.6072 4.62687L25.088 10.656C25.1871 10.5794 25.2924 10.5085 25.4039 10.4441C26.7489 9.66758 28.4689 10.1284 29.2454 11.4735C30.022 12.8185 29.5611 14.5385 28.2161 15.315C28.1047 15.3794 27.9906 15.4352 27.8747 15.4827ZM12.3118 26.9732L7.28431 18.2654L3.28755 20.5729C0.858968 21.9751 0.0192566 25.1092 1.42132 27.5378L1.4214 27.5378C2.82354 29.9663 5.95765 30.8061 8.38623 29.4041L12.383 27.0965L12.3118 26.9732Z" fill="white"/>
</svg>
