<svg width="38" height="38" viewBox="0 0 38 38" fill="none" xmlns="http://www.w3.org/2000/svg">
<g clip-path="url(#clip0_1038_4470)">
<path d="M18.9999 12.8846C15.6259 12.8846 12.8845 15.626 12.8845 19C12.8845 22.374 15.6259 25.1154 18.9999 25.1154C22.374 25.1154 25.1154 22.374 25.1154 19C25.1154 15.626 22.374 12.8846 18.9999 12.8846ZM18.536 17.1865C17.7769 17.1865 17.1442 17.8191 17.1442 18.5783H15.1198C15.162 16.6804 16.6803 15.1621 18.536 15.1621V17.1865Z" fill="white"/>
<path d="M37.5572 17.7347C35.4906 15.162 28.1099 6.76913 19 6.76913C9.89012 6.76913 2.50943 15.162 0.442841 17.7347C-0.147614 18.4517 -0.147614 19.5061 0.442841 20.2652C2.50943 22.8379 9.89012 31.2308 19 31.2308C28.1099 31.2308 35.4906 22.8379 37.5572 20.2652C38.1476 19.5483 38.1476 18.4939 37.5572 17.7347ZM19 27.8568C14.1077 27.8568 10.1432 23.8923 10.1432 19C10.1432 14.1076 14.1077 10.1432 19 10.1432C23.8923 10.1432 27.8568 14.1076 27.8568 19C27.8568 23.8923 23.8923 27.8568 19 27.8568Z" fill="white"/>
</g>
<defs>
<clipPath id="clip0_1038_4470">
<rect width="38" height="38" fill="white"/>
</clipPath>
</defs>
</svg>
