<svg width="30" height="36" viewBox="0 0 30 36" fill="none" xmlns="http://www.w3.org/2000/svg">
<path fill-rule="evenodd" clip-rule="evenodd" d="M20.6814 14.9047C19.0505 16.5359 17.0544 17.3626 14.7492 17.3626C12.4446 17.3626 10.4487 16.5356 8.81752 14.9049C7.18631 13.274 6.35927 11.2781 6.35927 8.97271C6.35927 6.6678 7.18631 4.67197 8.81725 3.04103C10.4482 1.41008 12.4438 0.583313 14.7492 0.583313C17.0541 0.583313 19.0499 1.41008 20.6811 3.04076C22.3124 4.67224 23.1391 6.66807 23.1391 8.97271C23.1391 11.2781 22.3124 13.2737 20.6814 14.9047ZM29.1471 25.1673C29.2871 25.9492 29.3823 26.6896 29.4293 27.3683C29.4758 28.0317 29.4995 28.724 29.4997 29.4258C29.4997 31.2449 28.9217 32.7172 27.7816 33.802C26.6556 34.8736 25.1666 35.4168 23.3552 35.4168H6.58278C4.77139 35.4168 3.28182 34.8733 2.15608 33.802C1.01625 32.7164 0.438232 31.2444 0.438232 29.4261C0.438232 28.7274 0.461619 28.0356 0.507861 27.3691C0.554899 26.6888 0.65004 25.9481 0.790094 25.1673C0.931476 24.3796 1.11352 23.6353 1.33117 22.9547C1.55653 22.2507 1.86269 21.5562 2.24086 20.8905C2.63311 20.1998 3.09473 19.5984 3.61216 19.103C4.15404 18.5846 4.8171 18.1681 5.58301 17.8649C6.34653 17.5625 7.19269 17.4091 8.09839 17.4091C8.45397 17.4091 8.79813 17.555 9.46146 17.9874C9.8763 18.2577 10.3547 18.566 10.8833 18.9037C11.339 19.1945 11.9572 19.4669 12.7199 19.7132C13.4656 19.9543 14.2217 20.0765 14.9682 20.0765C15.7147 20.0765 16.471 19.9543 17.216 19.7132C17.9795 19.4666 18.5976 19.1942 19.0539 18.9035C19.5876 18.5625 20.0657 18.2542 20.4744 17.9877C21.1385 17.5553 21.4824 17.4094 21.838 17.4094C22.7434 17.4094 23.5899 17.5625 24.3536 17.8646C25.1201 18.1684 25.7829 18.5848 26.3242 19.1028C26.8419 19.5979 27.3033 20.1996 27.6961 20.8905C28.0745 21.5562 28.3806 22.2509 28.6057 22.9544C28.8237 23.635 29.0057 24.3796 29.1471 25.1673Z" fill="white"/>
</svg>
