<svg width="38" height="38" viewBox="0 0 38 38" fill="none" xmlns="http://www.w3.org/2000/svg">
<g clip-path="url(#clip0_1038_4456)">
<path d="M14.751 3.1427C14.608 2.60923 14.0585 2.28986 13.5341 2.46318C10.9571 3.31492 8.61016 4.75885 6.68448 6.68454C4.52266 8.84635 2.96799 11.5391 2.17671 14.4922C1.38543 17.4453 1.38543 20.5547 2.17671 23.5077C2.96799 26.4608 4.52266 29.1536 6.68448 31.3154C8.84629 33.4772 11.5391 35.0319 14.4922 35.8232C17.4452 36.6145 20.5546 36.6145 23.5077 35.8232C26.4608 35.0319 29.1535 33.4772 31.3154 31.3154C33.241 29.3897 34.685 27.0428 35.5367 24.4658C35.71 23.9414 35.3907 23.3919 34.8572 23.2489L30.0598 21.9635C29.5263 21.8205 28.9825 22.1394 28.7892 22.6567C28.267 24.0547 27.4499 25.3285 26.3892 26.3892C25.0921 27.6863 23.4764 28.6191 21.7046 29.0939C19.9327 29.5687 18.0671 29.5687 16.2953 29.0939C14.5234 28.6191 12.9077 27.6863 11.6107 26.3892C10.3136 25.0922 9.38076 23.4765 8.90599 21.7046C8.43123 19.9328 8.43123 18.0672 8.90599 16.2953C9.38076 14.5235 10.3136 12.9078 11.6107 11.6107C12.6714 10.55 13.9451 9.73288 15.3432 9.21066C15.8605 9.0174 16.1794 8.47359 16.0364 7.94013L14.751 3.1427Z" fill="white"/>
<path d="M37 19C37.5523 19 38.0027 18.552 37.9737 18.0004C37.8602 15.8469 37.3808 13.7259 36.5537 11.729C35.5989 9.42383 34.1993 7.32928 32.435 5.56497C30.6707 3.80066 28.5762 2.40113 26.271 1.44629C24.2741 0.619164 22.1531 0.139758 19.9996 0.0263096C19.448 -0.00274458 19 0.447715 19 1L19 10.4C19 10.9523 19.4496 11.3932 19.9971 11.4657C20.6524 11.5524 21.2951 11.7245 21.9084 11.9785C22.8305 12.3605 23.6683 12.9203 24.374 13.626C25.0797 14.3317 25.6395 15.1695 26.0215 16.0916C26.2755 16.7049 26.4476 17.3476 26.5343 18.0029C26.6068 18.5504 27.0477 19 27.6 19H37Z" fill="white"/>
</g>
<defs>
<clipPath id="clip0_1038_4456">
<rect width="38" height="38" fill="white"/>
</clipPath>
</defs>
</svg>
