<svg width="14" height="14" viewBox="0 0 14 14" fill="none" xmlns="http://www.w3.org/2000/svg">
<path d="M12.3916 0.0666504C10.1046 0.0666504 7.03576 1.63572 4.97496 4.33332H3.26658C2.03213 4.33332 1.32461 5.2547 0.837463 6.2291L0.185303 7.53332H1.72493H3.26658L4.86658 9.13332L6.46658 10.7333V12.275V13.8146L7.7708 13.1625C8.7452 12.6753 9.66658 11.9678 9.66658 10.7333V9.02494C12.3642 6.96414 13.9333 3.89534 13.9333 1.6083V0.0666504H12.3916ZM9.66658 3.26665C10.2557 3.26665 10.7333 3.7442 10.7333 4.33332C10.7333 4.92244 10.2557 5.39998 9.66658 5.39998C9.07746 5.39998 8.59992 4.92244 8.59992 4.33332C8.59992 3.7442 9.07746 3.26665 9.66658 3.26665ZM2.73325 9.66665L2.19992 10.2C1.42957 10.9703 1.13325 12.8667 1.13325 12.8667C1.13325 12.8667 2.94445 12.6555 3.79992 11.8L4.33325 11.2667L2.73325 9.66665Z" fill="white"/>
</svg>
