<svg width="38" height="34" viewBox="0 0 38 34" fill="none" xmlns="http://www.w3.org/2000/svg">
<path d="M34.9854 3.38666C33.0184 1.25316 30.3192 0.078125 27.3847 0.078125C25.1912 0.078125 23.1823 0.771606 21.4138 2.13914C20.5215 2.82944 19.7129 3.67397 19 4.65968C18.2874 3.67426 17.4785 2.82944 16.5859 2.13914C14.8177 0.771606 12.8088 0.078125 10.6153 0.078125C7.68077 0.078125 4.98135 1.25316 3.01427 3.38666C1.07066 5.49522 0 8.37584 0 11.4982C0 14.712 1.19765 17.6538 3.76892 20.7565C6.06912 23.5318 9.37505 26.3492 13.2034 29.6117C14.5106 30.7258 15.9924 31.9887 17.531 33.3339C17.9375 33.6899 18.459 33.8859 19 33.8859C19.5407 33.8859 20.0625 33.6899 20.4684 33.3345C22.007 31.989 23.4897 30.7255 24.7975 29.6108C28.6252 26.349 31.9312 23.5318 34.2314 20.7562C36.8026 17.6538 38 14.712 38 11.498C38 8.37584 36.9293 5.49522 34.9854 3.38666Z" fill="white"/>
</svg>
