<svg width="37" height="36" viewBox="0 0 37 36" fill="none" xmlns="http://www.w3.org/2000/svg">
<g clip-path="url(#clip0_441_9982)">
<path d="M18.1667 36C28.1079 36 36.1667 27.9411 36.1667 18C36.1667 8.05887 28.1079 0 18.1667 0C8.22562 0 0.166748 8.05887 0.166748 18C0.166748 27.9411 8.22562 36 18.1667 36Z" fill="#FFE81B"/>
<path d="M28.4745 24.1988L28.4745 24.1989C28.7486 24.0019 28.9127 23.6864 28.9168 23.3491C28.915 22.9975 28.7067 22.68 28.3852 22.5385L28.3797 22.536L28.3797 22.536C28.2018 22.4551 28.0185 22.3866 27.8312 22.3312L27.8213 22.3283L27.8213 22.3282L27.8047 22.3229C27.3733 22.1856 26.7635 21.9914 26.1756 21.5314C25.5709 21.0583 25.022 20.3324 24.6462 19.1776L24.5003 18.7292L24.9394 18.5573L25.9846 18.1482L25.993 18.1449L25.9931 18.145C26.6517 17.9009 27.0275 17.2066 26.8718 16.5217L26.8714 16.5199C26.8096 16.2436 26.6533 15.9977 26.4295 15.8245L26.4271 15.8226C26.1343 15.5932 25.7529 15.5099 25.3912 15.5963L25.3883 15.5969L25.0365 15.6788L24.4594 15.813L24.4241 15.2216C24.3986 14.7955 24.3986 14.3534 24.3986 13.9172V13.9102C24.3971 13.0797 24.2273 12.2582 23.8995 11.4952L28.4745 24.1988ZM28.4745 24.1988L28.4692 24.2028M28.4745 24.1988L28.4692 24.2028M28.4692 24.2028C28.2721 24.3484 28.053 24.4615 27.8203 24.5378C27.3963 24.6707 26.9635 24.7736 26.5252 24.8458L26.1557 24.9066M28.4692 24.2028L26.1557 24.9066M26.1557 24.9066L26.1101 25.2782M26.1557 24.9066L26.1101 25.2782M26.1101 25.2782C26.0932 25.4164 26.0655 25.5531 26.0273 25.6871L26.0254 25.694M26.1101 25.2782L26.0254 25.694M26.0254 25.694L26.0236 25.7009M26.0254 25.694L26.0236 25.7009M26.0236 25.7009C25.933 26.0579 25.6834 26.3533 25.347 26.5025C25.1413 26.5804 24.9223 26.6171 24.7023 26.6107L24.6951 26.6105M26.0236 25.7009L24.6951 26.6105M24.6951 26.6105H24.6878M24.6951 26.6105H24.6878M24.6878 26.6105C24.5095 26.6105 24.3084 26.5966 24.076 26.5804L24.0557 26.579C24.0556 26.579 24.0556 26.579 24.0555 26.579C24.0273 26.5771 23.9979 26.575 23.9675 26.5728C23.7582 26.5578 23.5023 26.5395 23.2593 26.539C22.8851 26.5229 22.5115 26.5835 22.1615 26.717L22.1449 26.7233M24.6878 26.6105L22.1449 26.7233M22.1449 26.7233L22.1289 26.7307M22.1449 26.7233L22.1289 26.7307M22.1289 26.7307C21.827 26.871 21.5096 27.0557 21.2021 27.2345L21.1597 27.2592L21.1573 27.2606M22.1289 26.7307L21.1573 27.2606M21.1573 27.2606C20.2326 27.805 19.3143 28.341 18.1669 28.341C17.0221 28.341 16.1061 27.8078 15.182 27.2699L15.1744 27.2654L15.1741 27.2652M21.1573 27.2606L15.1741 27.2652M15.1741 27.2652L15.1267 27.2377C14.8209 27.0599 14.5052 26.8764 14.205 26.7368L14.1889 26.7294M15.1741 27.2652L14.1889 26.7294M14.1889 26.7294L14.1724 26.7231M14.1889 26.7294L14.1724 26.7231M14.1724 26.7231C13.8224 26.5896 13.4488 26.529 13.0745 26.5451C12.7971 26.5456 12.5242 26.5653 12.2727 26.5856C12.0239 26.6056 11.8349 26.6166 11.6461 26.6166H11.6389M14.1724 26.7231L11.6389 26.6166M11.6389 26.6166L11.6316 26.6168C11.4116 26.6232 11.1924 26.5864 10.9865 26.5085M11.6389 26.6166L10.9865 26.5085M10.9865 26.5085C10.6501 26.3599 10.4006 26.0646 10.3104 25.7076L10.3086 25.7004L10.3065 25.6932C10.2684 25.5592 10.2407 25.4225 10.2237 25.2844L10.1781 24.9125L9.80845 24.8519C9.37013 24.7799 8.93743 24.677 8.51361 24.5439C8.28083 24.4677 8.06172 24.3545 7.86463 24.2089L7.86466 24.2088L7.85934 24.205C7.58451 24.0074 7.42031 23.6908 7.41702 23.3525C7.4227 23.0033 7.63167 22.6892 7.95193 22.5491L7.95196 22.5491L7.9593 22.5458C8.13657 22.4648 8.3193 22.3965 8.50618 22.3416L8.50622 22.3418L8.51821 22.3379L8.53731 22.3318C8.97012 22.1926 9.57986 21.9967 10.1661 21.5357C10.7704 21.0606 11.3171 20.3327 11.6885 19.1756L11.8321 18.7284L11.3947 18.5572L10.3495 18.1481L10.3495 18.1481L10.3417 18.1452C9.68723 17.9015 9.31237 17.2128 9.46299 16.5309L9.46335 16.5293C9.523 16.2548 9.67608 16.0095 9.89643 15.8351C10.113 15.6677 10.3787 15.5763 10.6524 15.5751C10.747 15.5754 10.8411 15.5866 10.9328 15.6085L10.9356 15.6092L11.2874 15.691L11.8761 15.8279L11.9003 15.224C11.9169 14.8078 11.9252 14.3697 11.9252 13.922M10.9865 26.5085L11.9252 13.9224C11.9252 13.9223 11.9252 13.9221 11.9252 13.922M11.9252 13.922C11.9268 13.0914 12.0961 12.2698 12.4229 11.5062L12.4233 11.5051M11.9252 13.922L12.4233 11.5051M12.4233 11.5051C13.0604 10.0068 14.2498 8.81134 15.7448 8.16655L15.7453 8.16634M12.4233 11.5051L15.7453 8.16634M15.7453 8.16634C16.5092 7.83591 17.3331 7.66674 18.1654 7.66947L18.1664 7.66947M15.7453 8.16634L18.1664 7.66947M18.1664 7.66947C18.9933 7.67051 19.8113 7.83963 20.5709 8.16656M18.1664 7.66947L20.5709 8.16656M20.5709 8.16656C22.0643 8.81057 23.2551 10.0012 23.8993 11.4947L20.5709 8.16656Z" fill="white" stroke="black"/>
</g>
<defs>
<clipPath id="clip0_441_9982">
<rect width="36" height="36" fill="white" transform="translate(0.166748)"/>
</clipPath>
</defs>
</svg>
