<svg width="120" height="41" viewBox="0 0 120 41" fill="none" xmlns="http://www.w3.org/2000/svg">
<rect x="0.5" y="1" width="119" height="39" rx="6.5" fill="#202020"/>
<path d="M24.769 20.3636C24.7797 19.5289 25.0014 18.7105 25.4135 17.9846C25.8255 17.2586 26.4145 16.6487 27.1256 16.2115C26.6738 15.5663 26.0779 15.0354 25.385 14.6608C24.6922 14.2863 23.9216 14.0785 23.1344 14.0538C21.4552 13.8776 19.8272 15.0587 18.9715 15.0587C18.0992 15.0587 16.7817 14.0713 15.363 14.1005C14.4453 14.1302 13.551 14.397 12.7671 14.8751C11.9832 15.3531 11.3365 16.0261 10.8901 16.8284C8.95607 20.1768 10.3987 25.0979 12.2513 27.8045C13.1782 29.1298 14.2615 30.6103 15.6789 30.5578C17.066 30.5002 17.584 29.6733 19.2583 29.6733C20.9171 29.6733 21.4031 30.5578 22.8493 30.5244C24.3377 30.5002 25.2754 29.1931 26.1698 27.8552C26.8358 26.9109 27.3483 25.8672 27.6882 24.7627C26.8235 24.397 26.0856 23.7848 25.5665 23.0025C25.0474 22.2202 24.77 21.3024 24.769 20.3636Z" fill="white"/>
<path d="M22.0373 12.2738C22.8489 11.2996 23.2487 10.0474 23.1518 8.7832C21.912 8.91342 20.7668 9.50598 19.9443 10.4428C19.5421 10.9005 19.2341 11.4329 19.0379 12.0097C18.8416 12.5865 18.761 13.1962 18.8006 13.8042C19.4207 13.8106 20.0342 13.6762 20.5949 13.4111C21.1555 13.146 21.6487 12.7571 22.0373 12.2738Z" fill="white"/>
<path d="M42.3022 27.2025H37.5688L36.4321 30.559H34.4272L38.9106 18.141H40.9936L45.477 30.559H43.438L42.3022 27.2025ZM38.0591 25.6537H41.8111L39.9615 20.2064H39.9097L38.0591 25.6537Z" fill="white"/>
<path d="M55.1597 26.0327C55.1597 28.8462 53.6538 30.6538 51.3814 30.6538C50.8057 30.6839 50.2332 30.5513 49.7294 30.2711C49.2256 29.991 48.8109 29.5747 48.5327 29.0698H48.4897V33.5542H46.6313V21.5053H48.4302V23.0112H48.4644C48.7553 22.5087 49.1771 22.0945 49.6847 21.8127C50.1923 21.5308 50.7669 21.3919 51.3472 21.4106C53.645 21.4106 55.1597 23.227 55.1597 26.0327ZM53.2495 26.0327C53.2495 24.1997 52.3023 22.9946 50.857 22.9946C49.437 22.9946 48.482 24.2251 48.482 26.0327C48.482 27.8569 49.437 29.0786 50.857 29.0786C52.3023 29.0786 53.2495 27.8823 53.2495 26.0327Z" fill="white"/>
<path d="M65.1245 26.0327C65.1245 28.8462 63.6187 30.6538 61.3462 30.6538C60.7706 30.6839 60.1981 30.5513 59.6943 30.2711C59.1905 29.991 58.7758 29.5747 58.4976 29.0698H58.4546V33.5541H56.5962V21.5053H58.395V23.0112H58.4292C58.7201 22.5087 59.1419 22.0945 59.6495 21.8127C60.1571 21.5308 60.7317 21.3919 61.312 21.4106C63.6099 21.4106 65.1245 23.227 65.1245 26.0327ZM63.2144 26.0327C63.2144 24.1997 62.2671 22.9946 60.8218 22.9946C59.4019 22.9946 58.4468 24.2251 58.4468 26.0327C58.4468 27.8569 59.4019 29.0786 60.8218 29.0786C62.2671 29.0786 63.2144 27.8823 63.2144 26.0327Z" fill="white"/>
<path d="M71.7105 27.0991C71.8482 28.3305 73.0445 29.139 74.6792 29.139C76.2456 29.139 77.3726 28.3305 77.3726 27.2201C77.3726 26.2562 76.6929 25.6791 75.0835 25.2836L73.4742 24.8959C71.1939 24.3451 70.1353 23.2787 70.1353 21.5482C70.1353 19.4056 72.0025 17.934 74.6538 17.934C77.2778 17.934 79.0767 19.4056 79.1372 21.5482H77.2612C77.1489 20.309 76.1245 19.5609 74.6274 19.5609C73.1304 19.5609 72.106 20.3178 72.106 21.4193C72.106 22.2972 72.7603 22.8138 74.3608 23.2093L75.729 23.5453C78.2769 24.1478 79.3355 25.1713 79.3355 26.9876C79.3355 29.3109 77.4849 30.766 74.5415 30.766C71.7876 30.766 69.9282 29.3451 69.8081 27.099L71.7105 27.0991Z" fill="white"/>
<path d="M83.3462 19.3627V21.5053H85.0679V22.9769H83.3462V27.9681C83.3462 28.7435 83.6909 29.1049 84.4477 29.1049C84.6521 29.1013 84.8562 29.0869 85.0591 29.0619V30.5247C84.7188 30.5883 84.3729 30.6171 84.0268 30.6107C82.1938 30.6107 81.479 29.9222 81.479 28.1663V22.9769H80.1626V21.5053H81.479V19.3627H83.3462Z" fill="white"/>
<path d="M86.0649 26.0326C86.0649 23.184 87.7427 21.3939 90.3589 21.3939C92.9839 21.3939 94.6538 23.1839 94.6538 26.0326C94.6538 28.889 92.9927 30.6713 90.3589 30.6713C87.726 30.6713 86.0649 28.889 86.0649 26.0326ZM92.7602 26.0326C92.7602 24.0785 91.8647 22.9252 90.3589 22.9252C88.853 22.9252 87.9585 24.0873 87.9585 26.0326C87.9585 27.9945 88.853 29.139 90.3589 29.139C91.8647 29.139 92.7602 27.9945 92.7602 26.0326Z" fill="white"/>
<path d="M96.186 21.5053H97.9585V23.0462H98.0015C98.1214 22.565 98.4034 22.1396 98.8 21.8417C99.1966 21.5439 99.6836 21.3916 100.179 21.4105C100.393 21.4098 100.607 21.433 100.816 21.4799V23.2181C100.546 23.1355 100.264 23.0976 99.981 23.1058C99.711 23.0949 99.4418 23.1425 99.192 23.2454C98.9421 23.3483 98.7175 23.504 98.5335 23.7019C98.3496 23.8998 98.2106 24.1351 98.1262 24.3918C98.0417 24.6485 98.0139 24.9204 98.0444 25.1888V30.559H96.186L96.186 21.5053Z" fill="white"/>
<path d="M109.384 27.8998C109.134 29.5433 107.534 30.6713 105.486 30.6713C102.852 30.6713 101.217 28.9066 101.217 26.0756C101.217 23.2357 102.861 21.3939 105.408 21.3939C107.913 21.3939 109.488 23.1146 109.488 25.8597V26.4965H103.093V26.6088C103.064 26.942 103.105 27.2776 103.216 27.5935C103.326 27.9093 103.502 28.1981 103.732 28.4406C103.963 28.6832 104.242 28.8739 104.552 29.0003C104.861 29.1266 105.195 29.1855 105.529 29.1732C105.968 29.2144 106.409 29.1126 106.785 28.8832C107.162 28.6538 107.455 28.3089 107.62 27.8998L109.384 27.8998ZM103.102 25.1976H107.628C107.645 24.898 107.6 24.5982 107.495 24.317C107.39 24.0358 107.229 23.7793 107.02 23.5635C106.812 23.3477 106.561 23.1774 106.283 23.0632C106.006 22.949 105.708 22.8933 105.408 22.8998C105.105 22.898 104.805 22.9561 104.525 23.0709C104.245 23.1856 103.99 23.3547 103.776 23.5683C103.562 23.7819 103.392 24.0359 103.276 24.3156C103.16 24.5952 103.101 24.895 103.102 25.1976Z" fill="white"/>
<path d="M37.8262 8.794C38.2158 8.76604 38.6067 8.8249 38.9709 8.96634C39.335 9.10777 39.6632 9.32825 39.9317 9.61187C40.2003 9.8955 40.4026 10.2352 40.524 10.6065C40.6454 10.9777 40.6829 11.3713 40.6338 11.7588C40.6338 13.6651 39.6035 14.7608 37.8262 14.7608H35.6709V8.794H37.8262ZM36.5976 13.917H37.7226C38.0011 13.9336 38.2797 13.888 38.5382 13.7834C38.7967 13.6788 39.0287 13.5178 39.2172 13.3123C39.4057 13.1067 39.546 12.8617 39.6278 12.5951C39.7097 12.3284 39.7311 12.0469 39.6904 11.771C39.7281 11.4962 39.7046 11.2164 39.6215 10.9517C39.5383 10.6871 39.3977 10.4441 39.2096 10.2401C39.0216 10.0362 38.7907 9.8764 38.5337 9.77216C38.2766 9.66792 37.9996 9.62184 37.7226 9.63721H36.5976V13.917Z" fill="white"/>
<path d="M41.6807 12.5074C41.6524 12.2115 41.6862 11.9129 41.7801 11.6308C41.8739 11.3488 42.0257 11.0894 42.2256 10.8694C42.4256 10.6495 42.6693 10.4737 42.9411 10.3534C43.213 10.2332 43.507 10.171 43.8042 10.171C44.1015 10.171 44.3955 10.2332 44.6673 10.3534C44.9392 10.4737 45.1829 10.6495 45.3828 10.8694C45.5828 11.0894 45.7345 11.3488 45.8284 11.6308C45.9222 11.9129 45.9561 12.2115 45.9278 12.5074C45.9566 12.8036 45.9232 13.1026 45.8296 13.3851C45.736 13.6677 45.5843 13.9275 45.3843 14.1479C45.1843 14.3683 44.9404 14.5444 44.6683 14.665C44.3962 14.7855 44.1019 14.8478 43.8042 14.8478C43.5066 14.8478 43.2123 14.7855 42.9402 14.665C42.668 14.5444 42.4241 14.3683 42.2241 14.1479C42.0242 13.9275 41.8725 13.6677 41.7789 13.3851C41.6853 13.1026 41.6519 12.8036 41.6807 12.5074ZM45.0137 12.5074C45.0137 11.5313 44.5752 10.9605 43.8057 10.9605C43.0332 10.9605 42.5987 11.5313 42.5987 12.5074C42.5987 13.4913 43.0333 14.0577 43.8057 14.0577C44.5752 14.0577 45.0137 13.4874 45.0137 12.5074Z" fill="white"/>
<path d="M51.5732 14.7607H50.6514L49.7207 11.4443H49.6504L48.7236 14.7607H47.8105L46.5693 10.2578H47.4707L48.2773 13.6938H48.3438L49.2695 10.2578H50.1221L51.0479 13.6938H51.1182L51.9209 10.2578H52.8096L51.5732 14.7607Z" fill="white"/>
<path d="M53.8535 10.2579H54.709V10.9732H54.7754C54.888 10.7163 55.0781 10.5009 55.3189 10.3571C55.5598 10.2133 55.8395 10.1482 56.1191 10.1709C56.3382 10.1545 56.5582 10.1875 56.7628 10.2676C56.9674 10.3477 57.1514 10.4728 57.3011 10.6336C57.4508 10.7945 57.5623 10.9869 57.6275 11.1968C57.6927 11.4066 57.7099 11.6284 57.6777 11.8457V14.7607H56.7891V12.0689C56.7891 11.3453 56.4746 10.9854 55.8174 10.9854C55.6686 10.9785 55.5201 11.0038 55.3821 11.0596C55.244 11.1154 55.1197 11.2005 55.0175 11.3089C54.9154 11.4172 54.8379 11.5464 54.7904 11.6876C54.7429 11.8287 54.7264 11.9784 54.7422 12.1265V14.7608H53.8535L53.8535 10.2579Z" fill="white"/>
<path d="M59.0938 8.5H59.9824V14.7607H59.0938V8.5Z" fill="white"/>
<path d="M61.2178 12.5074C61.1895 12.2114 61.2234 11.9128 61.3172 11.6308C61.4111 11.3487 61.5629 11.0893 61.7628 10.8693C61.9628 10.6494 62.2065 10.4736 62.4784 10.3533C62.7503 10.233 63.0443 10.1709 63.3416 10.1709C63.6389 10.1709 63.9329 10.233 64.2047 10.3533C64.4766 10.4736 64.7203 10.6494 64.9203 10.8693C65.1203 11.0893 65.272 11.3487 65.3659 11.6308C65.4598 11.9128 65.4936 12.2114 65.4653 12.5074C65.4942 12.8036 65.4607 13.1026 65.3671 13.3851C65.2734 13.6676 65.1217 13.9274 64.9217 14.1478C64.7217 14.3683 64.4778 14.5444 64.2057 14.6649C63.9335 14.7854 63.6392 14.8477 63.3416 14.8477C63.0439 14.8477 62.7496 14.7854 62.4775 14.6649C62.2053 14.5444 61.9614 14.3683 61.7614 14.1478C61.5614 13.9274 61.4097 13.6676 61.3161 13.3851C61.2225 13.1026 61.189 12.8036 61.2178 12.5074ZM64.5508 12.5074C64.5508 11.5313 64.1123 10.9605 63.3428 10.9605C62.5703 10.9605 62.1358 11.5313 62.1358 12.5074C62.1358 13.4913 62.5704 14.0577 63.3428 14.0577C64.1123 14.0577 64.5508 13.4873 64.5508 12.5074Z" fill="white"/>
<path d="M66.4009 13.4873C66.4009 12.6767 67.0044 12.2095 68.0757 12.1431L69.2954 12.0727V11.6841C69.2954 11.2085 68.981 10.9399 68.3735 10.9399C67.8774 10.9399 67.5337 11.1221 67.4351 11.4404H66.5747C66.6655 10.667 67.3931 10.1709 68.4146 10.1709C69.5435 10.1709 70.1802 10.7329 70.1802 11.6841V14.7607H69.3247V14.1279H69.2544C69.1117 14.3549 68.9113 14.54 68.6737 14.6642C68.436 14.7884 68.1697 14.8473 67.9019 14.8349C67.7128 14.8546 67.5218 14.8344 67.341 14.7757C67.1602 14.717 66.9938 14.6211 66.8524 14.4941C66.711 14.3672 66.5977 14.212 66.52 14.0386C66.4422 13.8651 66.4016 13.6774 66.4009 13.4873ZM69.2954 13.1025V12.7261L68.1958 12.7964C67.5757 12.8379 67.2944 13.0488 67.2944 13.4458C67.2944 13.8511 67.646 14.0869 68.1294 14.0869C68.2711 14.1012 68.4142 14.0869 68.5502 14.0448C68.6862 14.0028 68.8123 13.9337 68.9211 13.8419C69.0299 13.7501 69.1191 13.6373 69.1834 13.5102C69.2477 13.3832 69.2858 13.2446 69.2954 13.1025Z" fill="white"/>
<path d="M71.3481 12.5073C71.3481 11.0845 72.0796 10.1831 73.2173 10.1831C73.4987 10.1702 73.778 10.2376 74.0225 10.3775C74.267 10.5173 74.4667 10.724 74.5981 10.9731H74.6646V8.5H75.5532V14.7607H74.7017V14.0493H74.6314C74.4897 14.2968 74.2831 14.5008 74.0339 14.6393C73.7846 14.7778 73.5022 14.8455 73.2173 14.8349C72.0718 14.835 71.3481 13.9336 71.3481 12.5073ZM72.2661 12.5073C72.2661 13.4624 72.7163 14.0371 73.4693 14.0371C74.2183 14.0371 74.6812 13.4541 74.6812 12.5112C74.6812 11.5728 74.2134 10.9815 73.4693 10.9815C72.7212 10.9815 72.2661 11.5601 72.2661 12.5073Z" fill="white"/>
<path d="M79.23 12.5074C79.2017 12.2115 79.2356 11.9129 79.3294 11.6308C79.4232 11.3488 79.575 11.0894 79.7749 10.8694C79.9749 10.6495 80.2186 10.4737 80.4904 10.3534C80.7623 10.2332 81.0563 10.171 81.3536 10.171C81.6508 10.171 81.9448 10.2332 82.2167 10.3534C82.4885 10.4737 82.7322 10.6495 82.9322 10.8694C83.1321 11.0894 83.2839 11.3488 83.3777 11.6308C83.4715 11.9129 83.5054 12.2115 83.4771 12.5074C83.5059 12.8036 83.4725 13.1026 83.3789 13.3851C83.2853 13.6677 83.1336 13.9275 82.9336 14.1479C82.7336 14.3683 82.4897 14.5444 82.2176 14.665C81.9455 14.7855 81.6512 14.8478 81.3536 14.8478C81.0559 14.8478 80.7616 14.7855 80.4895 14.665C80.2173 14.5444 79.9735 14.3683 79.7735 14.1479C79.5735 13.9275 79.4218 13.6677 79.3282 13.3851C79.2346 13.1026 79.2012 12.8036 79.23 12.5074ZM82.563 12.5074C82.563 11.5313 82.1245 10.9605 81.355 10.9605C80.5826 10.9605 80.148 11.5313 80.148 12.5074C80.148 13.4913 80.5826 14.0577 81.355 14.0577C82.1245 14.0577 82.563 13.4874 82.563 12.5074Z" fill="white"/>
<path d="M84.6694 10.2579H85.5249V10.9732H85.5913C85.704 10.7163 85.894 10.5009 86.1348 10.3571C86.3757 10.2133 86.6555 10.1482 86.9351 10.1709C87.1542 10.1545 87.3742 10.1875 87.5788 10.2676C87.7834 10.3477 87.9673 10.4728 88.117 10.6336C88.2667 10.7945 88.3783 10.9869 88.4435 11.1968C88.5087 11.4066 88.5258 11.6284 88.4937 11.8457V14.7607H87.605V12.0689C87.605 11.3453 87.2905 10.9854 86.6333 10.9854C86.4846 10.9785 86.336 11.0038 86.198 11.0596C86.0599 11.1154 85.9356 11.2005 85.8335 11.3089C85.7313 11.4172 85.6539 11.5464 85.6063 11.6876C85.5588 11.8287 85.5423 11.9784 85.5581 12.1265V14.7608H84.6694V10.2579Z" fill="white"/>
<path d="M93.5151 9.13672V10.2783H94.4907V11.0269H93.5151V13.3423C93.5151 13.814 93.7095 14.0205 94.1519 14.0205C94.2651 14.0201 94.3783 14.0133 94.4907 14V14.7402C94.3311 14.7688 94.1694 14.784 94.0073 14.7856C93.019 14.7856 92.6255 14.438 92.6255 13.5698V11.0268H91.9106V10.2783H92.6255V9.13672H93.5151Z" fill="white"/>
<path d="M95.7046 8.5H96.5854V10.9815H96.6558C96.7739 10.7221 96.9691 10.5055 97.2148 10.3612C97.4605 10.2168 97.7447 10.1518 98.0288 10.1748C98.2467 10.1629 98.4646 10.1993 98.6669 10.2814C98.8692 10.3634 99.0508 10.4891 99.199 10.6494C99.3471 10.8098 99.458 11.0008 99.5238 11.209C99.5896 11.4171 99.6086 11.6372 99.5795 11.8535V14.7607H98.69V12.0728C98.69 11.3535 98.355 10.9893 97.7271 10.9893C97.5743 10.9767 97.4207 10.9977 97.2769 11.0508C97.1332 11.1038 97.0027 11.1877 96.8947 11.2964C96.7867 11.4051 96.7038 11.5362 96.6517 11.6803C96.5997 11.8244 96.5797 11.9782 96.5933 12.1308V14.7607H95.7046L95.7046 8.5Z" fill="white"/>
<path d="M104.761 13.5449C104.64 13.9564 104.379 14.3124 104.022 14.5505C103.665 14.7887 103.236 14.8938 102.81 14.8476C102.513 14.8554 102.218 14.7986 101.946 14.6811C101.673 14.5636 101.43 14.3881 101.232 14.167C101.034 13.9459 100.887 13.6843 100.8 13.4005C100.713 13.1167 100.689 12.8174 100.73 12.5234C100.69 12.2285 100.715 11.9286 100.801 11.6439C100.888 11.3592 101.034 11.0965 101.231 10.8734C101.428 10.6503 101.671 10.4721 101.942 10.3509C102.214 10.2297 102.509 10.1683 102.806 10.1709C104.059 10.1709 104.815 11.0269 104.815 12.4409V12.7509H101.635V12.8007C101.621 12.966 101.642 13.1323 101.696 13.2891C101.75 13.4458 101.837 13.5895 101.949 13.711C102.062 13.8324 102.199 13.929 102.352 13.9944C102.504 14.0598 102.669 14.0926 102.834 14.0907C103.047 14.1163 103.262 14.078 103.453 13.9808C103.644 13.8836 103.801 13.7318 103.906 13.5448L104.761 13.5449ZM101.635 12.0937H103.91C103.921 11.9426 103.9 11.7908 103.849 11.6481C103.798 11.5053 103.718 11.3749 103.614 11.265C103.509 11.1551 103.383 11.0683 103.243 11.0102C103.103 10.952 102.953 10.9237 102.801 10.9272C102.647 10.9253 102.495 10.9541 102.353 11.0121C102.21 11.07 102.081 11.1559 101.972 11.2646C101.864 11.3733 101.778 11.5027 101.72 11.6451C101.662 11.7875 101.633 11.94 101.635 12.0937Z" fill="white"/>
<rect x="0.5" y="1" width="119" height="39" rx="6.5" stroke="#A6A6A6"/>
</svg>
