<svg width="36" height="36" viewBox="0 0 36 36" fill="none" xmlns="http://www.w3.org/2000/svg">
<g clip-path="url(#clip0_441_9986)">
<path d="M17.9999 0C27.9416 0 36 8.05949 36 18.0001C36 27.9406 27.9416 36 17.9999 36C8.05826 36 0 27.9405 0 18.0001C0 8.05962 8.05838 0 17.9999 0Z" fill="#0E76A8"/>
<path d="M10.143 24.732H13.5136V13.4977H10.143V24.732ZM23.2741 13.1085C21.6383 13.1085 20.1747 13.7059 19.1364 15.0244V13.4607H15.7535V24.7321H19.1364V18.6368C19.1364 17.3487 20.3165 16.092 21.7948 16.092C23.273 16.092 23.6375 17.3487 23.6375 18.6053V24.731H27.0081V18.3544C27.0079 13.9252 24.911 13.1085 23.2741 13.1085ZM11.8126 12.375C12.7441 12.375 13.5001 11.6189 13.5001 10.6874C13.5001 9.75591 12.7441 9 11.8126 9C10.881 9 10.125 9.75604 10.125 10.6876C10.125 11.6191 10.881 12.375 11.8126 12.375Z" fill="white"/>
</g>
<defs>
<clipPath id="clip0_441_9986">
<rect width="36" height="36" fill="white"/>
</clipPath>
</defs>
</svg>
