<svg width="37" height="36" viewBox="0 0 37 36" fill="none" xmlns="http://www.w3.org/2000/svg">
<g clip-path="url(#clip0_441_9977)">
<path d="M18.3337 36.0011C28.2746 36.0011 36.3333 27.9423 36.3333 18.0014C36.3333 8.06044 28.2746 0.00170898 18.3337 0.00170898C8.39271 0.00170898 0.333984 8.06044 0.333984 18.0014C0.333984 27.9423 8.39271 36.0011 18.3337 36.0011Z" fill="#CB2027"/>
<path d="M19.7861 24.1038C18.4253 23.9985 17.8535 23.3237 16.7863 22.6759C16.1998 25.7533 15.483 28.7033 13.3598 30.2444C12.7037 25.5932 14.3218 22.0997 15.0732 18.3915C13.7924 16.2353 15.2273 11.8953 17.9289 12.9647C21.254 14.2796 15.0501 20.9821 19.2149 21.8192C23.5629 22.6933 25.3379 14.2748 22.6414 11.5366C18.7455 7.58325 11.3012 11.4467 12.2166 17.1061C12.4396 18.4896 13.8694 18.9097 12.7877 20.8188C10.2943 20.2666 9.55058 18.3 9.64619 15.6783C9.80053 11.3867 13.5023 8.38187 17.2153 7.96604C21.9111 7.44047 26.3185 9.69035 26.9268 14.1073C27.6112 19.0925 24.8069 24.4914 19.7861 24.1038Z" fill="#F1F2F2"/>
</g>
<defs>
<clipPath id="clip0_441_9977">
<rect width="36" height="36" fill="white" transform="translate(0.333252)"/>
</clipPath>
</defs>
</svg>
