<svg width="160" height="160" viewBox="0 0 160 160" fill="none" xmlns="http://www.w3.org/2000/svg">
<rect width="160" height="160" rx="28" fill="white"/>
<g clip-path="url(#clip0_500_4508)">
<path d="M138 20H22V140H138V20Z" fill="white"/>
<path d="M56.4865 26.4865H53.3513V29.7297H56.4865V26.4865Z" fill="black"/>
<path d="M65.892 26.4865H62.7568V29.7297H65.892V26.4865Z" fill="black"/>
<path d="M69.027 26.4865H65.8918V29.7297H69.027V26.4865Z" fill="black"/>
<path d="M72.1622 26.4865H69.0271V29.7297H72.1622V26.4865Z" fill="black"/>
<path d="M78.4325 26.4865H75.2974V29.7297H78.4325V26.4865Z" fill="black"/>
<path d="M87.8378 26.4865H84.7026V29.7297H87.8378V26.4865Z" fill="black"/>
<path d="M103.514 26.4865H100.378V29.7297H103.514V26.4865Z" fill="black"/>
<path d="M59.6217 29.7297H56.4866V32.973H59.6217V29.7297Z" fill="black"/>
<path d="M62.7567 29.7297H59.6216V32.973H62.7567V29.7297Z" fill="black"/>
<path d="M65.892 29.7297H62.7568V32.973H65.892V29.7297Z" fill="black"/>
<path d="M69.027 29.7297H65.8918V32.973H69.027V29.7297Z" fill="black"/>
<path d="M72.1622 29.7297H69.0271V32.973H72.1622V29.7297Z" fill="black"/>
<path d="M75.2972 29.7297H72.1621V32.973H75.2972V29.7297Z" fill="black"/>
<path d="M87.8378 29.7297H84.7026V32.973H87.8378V29.7297Z" fill="black"/>
<path d="M90.973 29.7297H87.8379V32.973H90.973V29.7297Z" fill="black"/>
<path d="M62.7567 32.9729H59.6216V36.2161H62.7567V32.9729Z" fill="black"/>
<path d="M69.027 32.9729H65.8918V36.2161H69.027V32.9729Z" fill="black"/>
<path d="M75.2972 32.9729H72.1621V36.2161H75.2972V32.9729Z" fill="black"/>
<path d="M78.4325 32.9729H75.2974V36.2161H78.4325V32.9729Z" fill="black"/>
<path d="M81.5675 32.9729H78.4324V36.2161H81.5675V32.9729Z" fill="black"/>
<path d="M84.7028 32.9729H81.5676V36.2161H84.7028V32.9729Z" fill="black"/>
<path d="M87.8378 32.9729H84.7026V36.2161H87.8378V32.9729Z" fill="black"/>
<path d="M90.973 32.9729H87.8379V36.2161H90.973V32.9729Z" fill="black"/>
<path d="M97.2433 32.9729H94.1082V36.2161H97.2433V32.9729Z" fill="black"/>
<path d="M103.514 32.9729H100.378V36.2161H103.514V32.9729Z" fill="black"/>
<path d="M56.4865 36.2162H53.3513V39.4594H56.4865V36.2162Z" fill="black"/>
<path d="M59.6217 36.2162H56.4866V39.4594H59.6217V36.2162Z" fill="black"/>
<path d="M65.892 36.2162H62.7568V39.4594H65.892V36.2162Z" fill="black"/>
<path d="M69.027 36.2162H65.8918V39.4594H69.027V36.2162Z" fill="black"/>
<path d="M81.5675 36.2162H78.4324V39.4594H81.5675V36.2162Z" fill="black"/>
<path d="M84.7028 36.2162H81.5676V39.4594H84.7028V36.2162Z" fill="black"/>
<path d="M97.2433 36.2162H94.1082V39.4594H97.2433V36.2162Z" fill="black"/>
<path d="M100.378 36.2162H97.2432V39.4594H100.378V36.2162Z" fill="black"/>
<path d="M56.4865 39.4595H53.3513V42.7027H56.4865V39.4595Z" fill="black"/>
<path d="M59.6217 39.4595H56.4866V42.7027H59.6217V39.4595Z" fill="black"/>
<path d="M81.5675 39.4595H78.4324V42.7027H81.5675V39.4595Z" fill="black"/>
<path d="M84.7028 39.4595H81.5676V42.7027H84.7028V39.4595Z" fill="black"/>
<path d="M90.973 39.4595H87.8379V42.7027H90.973V39.4595Z" fill="black"/>
<path d="M97.2433 39.4595H94.1082V42.7027H97.2433V39.4595Z" fill="black"/>
<path d="M100.378 39.4595H97.2432V42.7027H100.378V39.4595Z" fill="black"/>
<path d="M56.4865 42.7026H53.3513V45.9459H56.4865V42.7026Z" fill="black"/>
<path d="M59.6217 42.7026H56.4866V45.9459H59.6217V42.7026Z" fill="black"/>
<path d="M62.7567 42.7026H59.6216V45.9459H62.7567V42.7026Z" fill="black"/>
<path d="M69.027 42.7026H65.8918V45.9459H69.027V42.7026Z" fill="black"/>
<path d="M78.4325 42.7026H75.2974V45.9459H78.4325V42.7026Z" fill="black"/>
<path d="M84.7028 42.7026H81.5676V45.9459H84.7028V42.7026Z" fill="black"/>
<path d="M94.108 42.7026H90.9729V45.9459H94.108V42.7026Z" fill="black"/>
<path d="M97.2433 42.7026H94.1082V45.9459H97.2433V42.7026Z" fill="black"/>
<path d="M100.378 42.7026H97.2432V45.9459H100.378V42.7026Z" fill="black"/>
<path d="M103.514 42.7026H100.378V45.9459H103.514V42.7026Z" fill="black"/>
<path d="M106.649 42.7026H103.513V45.9459H106.649V42.7026Z" fill="black"/>
<path d="M56.4865 45.9459H53.3513V49.1892H56.4865V45.9459Z" fill="black"/>
<path d="M62.7567 45.9459H59.6216V49.1892H62.7567V45.9459Z" fill="black"/>
<path d="M69.027 45.9459H65.8918V49.1892H69.027V45.9459Z" fill="black"/>
<path d="M75.2972 45.9459H72.1621V49.1892H75.2972V45.9459Z" fill="black"/>
<path d="M81.5675 45.9459H78.4324V49.1892H81.5675V45.9459Z" fill="black"/>
<path d="M87.8378 45.9459H84.7026V49.1892H87.8378V45.9459Z" fill="black"/>
<path d="M94.108 45.9459H90.9729V49.1892H94.108V45.9459Z" fill="black"/>
<path d="M100.378 45.9459H97.2432V49.1892H100.378V45.9459Z" fill="black"/>
<path d="M106.649 45.9459H103.513V49.1892H106.649V45.9459Z" fill="black"/>
<path d="M56.4865 49.1892H53.3513V52.4325H56.4865V49.1892Z" fill="black"/>
<path d="M65.892 49.1892H62.7568V52.4325H65.892V49.1892Z" fill="black"/>
<path d="M75.2972 49.1892H72.1621V52.4325H75.2972V49.1892Z" fill="black"/>
<path d="M84.7028 49.1892H81.5676V52.4325H84.7028V49.1892Z" fill="black"/>
<path d="M87.8378 49.1892H84.7026V52.4325H87.8378V49.1892Z" fill="black"/>
<path d="M90.973 49.1892H87.8379V52.4325H90.973V49.1892Z" fill="black"/>
<path d="M94.108 49.1892H90.9729V52.4325H94.108V49.1892Z" fill="black"/>
<path d="M97.2433 49.1892H94.1082V52.4325H97.2433V49.1892Z" fill="black"/>
<path d="M106.649 49.1892H103.513V52.4325H106.649V49.1892Z" fill="black"/>
<path d="M31.4054 52.4324H28.2703V55.6756H31.4054V52.4324Z" fill="black"/>
<path d="M43.9459 52.4324H40.8108V55.6756H43.9459V52.4324Z" fill="black"/>
<path d="M50.2162 52.4324H47.0811V55.6756H50.2162V52.4324Z" fill="black"/>
<path d="M53.3514 52.4324H50.2163V55.6756H53.3514V52.4324Z" fill="black"/>
<path d="M56.4865 52.4324H53.3513V55.6756H56.4865V52.4324Z" fill="black"/>
<path d="M62.7567 52.4324H59.6216V55.6756H62.7567V52.4324Z" fill="black"/>
<path d="M69.027 52.4324H65.8918V55.6756H69.027V52.4324Z" fill="black"/>
<path d="M78.4325 52.4324H75.2974V55.6756H78.4325V52.4324Z" fill="black"/>
<path d="M84.7028 52.4324H81.5676V55.6756H84.7028V52.4324Z" fill="black"/>
<path d="M94.108 52.4324H90.9729V55.6756H94.108V52.4324Z" fill="black"/>
<path d="M97.2433 52.4324H94.1082V55.6756H97.2433V52.4324Z" fill="black"/>
<path d="M100.378 52.4324H97.2432V55.6756H100.378V52.4324Z" fill="black"/>
<path d="M103.514 52.4324H100.378V55.6756H103.514V52.4324Z" fill="black"/>
<path d="M109.784 52.4324H106.649V55.6756H109.784V52.4324Z" fill="black"/>
<path d="M112.919 52.4324H109.784V55.6756H112.919V52.4324Z" fill="black"/>
<path d="M116.054 52.4324H112.919V55.6756H116.054V52.4324Z" fill="black"/>
<path d="M119.189 52.4324H116.054V55.6756H119.189V52.4324Z" fill="black"/>
<path d="M122.324 52.4324H119.189V55.6756H122.324V52.4324Z" fill="black"/>
<path d="M131.73 52.4324H128.594V55.6756H131.73V52.4324Z" fill="black"/>
<path d="M34.5407 55.6757H31.4055V58.9189H34.5407V55.6757Z" fill="black"/>
<path d="M47.0812 55.6757H43.946V58.9189H47.0812V55.6757Z" fill="black"/>
<path d="M53.3514 55.6757H50.2163V58.9189H53.3514V55.6757Z" fill="black"/>
<path d="M62.7567 55.6757H59.6216V58.9189H62.7567V55.6757Z" fill="black"/>
<path d="M65.892 55.6757H62.7568V58.9189H65.892V55.6757Z" fill="black"/>
<path d="M78.4325 55.6757H75.2974V58.9189H78.4325V55.6757Z" fill="black"/>
<path d="M81.5675 55.6757H78.4324V58.9189H81.5675V55.6757Z" fill="black"/>
<path d="M84.7028 55.6757H81.5676V58.9189H84.7028V55.6757Z" fill="black"/>
<path d="M87.8378 55.6757H84.7026V58.9189H87.8378V55.6757Z" fill="black"/>
<path d="M97.2433 55.6757H94.1082V58.9189H97.2433V55.6757Z" fill="black"/>
<path d="M100.378 55.6757H97.2432V58.9189H100.378V55.6757Z" fill="black"/>
<path d="M103.514 55.6757H100.378V58.9189H103.514V55.6757Z" fill="black"/>
<path d="M109.784 55.6757H106.649V58.9189H109.784V55.6757Z" fill="black"/>
<path d="M122.324 55.6757H119.189V58.9189H122.324V55.6757Z" fill="black"/>
<path d="M125.459 55.6757H122.324V58.9189H125.459V55.6757Z" fill="black"/>
<path d="M131.73 55.6757H128.594V58.9189H131.73V55.6757Z" fill="black"/>
<path d="M31.4054 58.9189H28.2703V62.1622H31.4054V58.9189Z" fill="black"/>
<path d="M37.6757 58.9189H34.5405V62.1622H37.6757V58.9189Z" fill="black"/>
<path d="M43.9459 58.9189H40.8108V62.1622H43.9459V58.9189Z" fill="black"/>
<path d="M47.0812 58.9189H43.946V62.1622H47.0812V58.9189Z" fill="black"/>
<path d="M50.2162 58.9189H47.0811V62.1622H50.2162V58.9189Z" fill="black"/>
<path d="M53.3514 58.9189H50.2163V62.1622H53.3514V58.9189Z" fill="black"/>
<path d="M56.4865 58.9189H53.3513V62.1622H56.4865V58.9189Z" fill="black"/>
<path d="M72.1622 58.9189H69.0271V62.1622H72.1622V58.9189Z" fill="black"/>
<path d="M75.2972 58.9189H72.1621V62.1622H75.2972V58.9189Z" fill="black"/>
<path d="M78.4325 58.9189H75.2974V62.1622H78.4325V58.9189Z" fill="black"/>
<path d="M87.8378 58.9189H84.7026V62.1622H87.8378V58.9189Z" fill="black"/>
<path d="M103.514 58.9189H100.378V62.1622H103.514V58.9189Z" fill="black"/>
<path d="M109.784 58.9189H106.649V62.1622H109.784V58.9189Z" fill="black"/>
<path d="M122.324 58.9189H119.189V62.1622H122.324V58.9189Z" fill="black"/>
<path d="M128.595 58.9189H125.459V62.1622H128.595V58.9189Z" fill="black"/>
<path d="M37.6757 62.1621H34.5405V65.4054H37.6757V62.1621Z" fill="black"/>
<path d="M43.9459 62.1621H40.8108V65.4054H43.9459V62.1621Z" fill="black"/>
<path d="M53.3514 62.1621H50.2163V65.4054H53.3514V62.1621Z" fill="black"/>
<path d="M62.7567 62.1621H59.6216V65.4054H62.7567V62.1621Z" fill="black"/>
<path d="M69.027 62.1621H65.8918V65.4054H69.027V62.1621Z" fill="black"/>
<path d="M72.1622 62.1621H69.0271V65.4054H72.1622V62.1621Z" fill="black"/>
<path d="M81.5675 62.1621H78.4324V65.4054H81.5675V62.1621Z" fill="black"/>
<path d="M90.973 62.1621H87.8379V65.4054H90.973V62.1621Z" fill="black"/>
<path d="M94.108 62.1621H90.9729V65.4054H94.108V62.1621Z" fill="black"/>
<path d="M100.378 62.1621H97.2432V65.4054H100.378V62.1621Z" fill="black"/>
<path d="M106.649 62.1621H103.513V65.4054H106.649V62.1621Z" fill="black"/>
<path d="M109.784 62.1621H106.649V65.4054H109.784V62.1621Z" fill="black"/>
<path d="M112.919 62.1621H109.784V65.4054H112.919V62.1621Z" fill="black"/>
<path d="M31.4054 65.4054H28.2703V68.6486H31.4054V65.4054Z" fill="black"/>
<path d="M37.6757 65.4054H34.5405V68.6486H37.6757V65.4054Z" fill="black"/>
<path d="M40.8109 65.4054H37.6758V68.6486H40.8109V65.4054Z" fill="black"/>
<path d="M50.2162 65.4054H47.0811V68.6486H50.2162V65.4054Z" fill="black"/>
<path d="M56.4865 65.4054H53.3513V68.6486H56.4865V65.4054Z" fill="black"/>
<path d="M62.7567 65.4054H59.6216V68.6486H62.7567V65.4054Z" fill="black"/>
<path d="M69.027 65.4054H65.8918V68.6486H69.027V65.4054Z" fill="black"/>
<path d="M72.1622 65.4054H69.0271V68.6486H72.1622V65.4054Z" fill="black"/>
<path d="M81.5675 65.4054H78.4324V68.6486H81.5675V65.4054Z" fill="black"/>
<path d="M100.378 65.4054H97.2432V68.6486H100.378V65.4054Z" fill="black"/>
<path d="M103.514 65.4054H100.378V68.6486H103.514V65.4054Z" fill="black"/>
<path d="M106.649 65.4054H103.513V68.6486H106.649V65.4054Z" fill="black"/>
<path d="M112.919 65.4054H109.784V68.6486H112.919V65.4054Z" fill="black"/>
<path d="M116.054 65.4054H112.919V68.6486H116.054V65.4054Z" fill="black"/>
<path d="M122.324 65.4054H119.189V68.6486H122.324V65.4054Z" fill="black"/>
<path d="M131.73 65.4054H128.594V68.6486H131.73V65.4054Z" fill="black"/>
<path d="M31.4054 68.6486H28.2703V71.8918H31.4054V68.6486Z" fill="black"/>
<path d="M37.6757 68.6486H34.5405V71.8918H37.6757V68.6486Z" fill="black"/>
<path d="M40.8109 68.6486H37.6758V71.8918H40.8109V68.6486Z" fill="black"/>
<path d="M43.9459 68.6486H40.8108V71.8918H43.9459V68.6486Z" fill="black"/>
<path d="M47.0812 68.6486H43.946V71.8918H47.0812V68.6486Z" fill="black"/>
<path d="M53.3514 68.6486H50.2163V71.8918H53.3514V68.6486Z" fill="black"/>
<path d="M62.7567 68.6486H59.6216V71.8918H62.7567V68.6486Z" fill="black"/>
<path d="M65.892 68.6486H62.7568V71.8918H65.892V68.6486Z" fill="black"/>
<path d="M75.2972 68.6486H72.1621V71.8918H75.2972V68.6486Z" fill="black"/>
<path d="M84.7028 68.6486H81.5676V71.8918H84.7028V68.6486Z" fill="black"/>
<path d="M87.8378 68.6486H84.7026V71.8918H87.8378V68.6486Z" fill="black"/>
<path d="M90.973 68.6486H87.8379V71.8918H90.973V68.6486Z" fill="black"/>
<path d="M94.108 68.6486H90.9729V71.8918H94.108V68.6486Z" fill="black"/>
<path d="M106.649 68.6486H103.513V71.8918H106.649V68.6486Z" fill="black"/>
<path d="M109.784 68.6486H106.649V71.8918H109.784V68.6486Z" fill="black"/>
<path d="M116.054 68.6486H112.919V71.8918H116.054V68.6486Z" fill="black"/>
<path d="M125.459 68.6486H122.324V71.8918H125.459V68.6486Z" fill="black"/>
<path d="M37.6757 71.8918H34.5405V75.1351H37.6757V71.8918Z" fill="black"/>
<path d="M43.9459 71.8918H40.8108V75.1351H43.9459V71.8918Z" fill="black"/>
<path d="M47.0812 71.8918H43.946V75.1351H47.0812V71.8918Z" fill="black"/>
<path d="M50.2162 71.8918H47.0811V75.1351H50.2162V71.8918Z" fill="black"/>
<path d="M62.7567 71.8918H59.6216V75.1351H62.7567V71.8918Z" fill="black"/>
<path d="M65.892 71.8918H62.7568V75.1351H65.892V71.8918Z" fill="black"/>
<path d="M69.027 71.8918H65.8918V75.1351H69.027V71.8918Z" fill="black"/>
<path d="M75.2972 71.8918H72.1621V75.1351H75.2972V71.8918Z" fill="black"/>
<path d="M78.4325 71.8918H75.2974V75.1351H78.4325V71.8918Z" fill="black"/>
<path d="M84.7028 71.8918H81.5676V75.1351H84.7028V71.8918Z" fill="black"/>
<path d="M87.8378 71.8918H84.7026V75.1351H87.8378V71.8918Z" fill="black"/>
<path d="M94.108 71.8918H90.9729V75.1351H94.108V71.8918Z" fill="black"/>
<path d="M97.2433 71.8918H94.1082V75.1351H97.2433V71.8918Z" fill="black"/>
<path d="M103.514 71.8918H100.378V75.1351H103.514V71.8918Z" fill="black"/>
<path d="M106.649 71.8918H103.513V75.1351H106.649V71.8918Z" fill="black"/>
<path d="M109.784 71.8918H106.649V75.1351H109.784V71.8918Z" fill="black"/>
<path d="M112.919 71.8918H109.784V75.1351H112.919V71.8918Z" fill="black"/>
<path d="M119.189 71.8918H116.054V75.1351H119.189V71.8918Z" fill="black"/>
<path d="M128.595 71.8918H125.459V75.1351H128.595V71.8918Z" fill="black"/>
<path d="M31.4054 75.1351H28.2703V78.3784H31.4054V75.1351Z" fill="black"/>
<path d="M34.5407 75.1351H31.4055V78.3784H34.5407V75.1351Z" fill="black"/>
<path d="M37.6757 75.1351H34.5405V78.3784H37.6757V75.1351Z" fill="black"/>
<path d="M40.8109 75.1351H37.6758V78.3784H40.8109V75.1351Z" fill="black"/>
<path d="M43.9459 75.1351H40.8108V78.3784H43.9459V75.1351Z" fill="black"/>
<path d="M53.3514 75.1351H50.2163V78.3784H53.3514V75.1351Z" fill="black"/>
<path d="M62.7567 75.1351H59.6216V78.3784H62.7567V75.1351Z" fill="black"/>
<path d="M65.892 75.1351H62.7568V78.3784H65.892V75.1351Z" fill="black"/>
<path d="M72.1622 75.1351H69.0271V78.3784H72.1622V75.1351Z" fill="black"/>
<path d="M75.2972 75.1351H72.1621V78.3784H75.2972V75.1351Z" fill="black"/>
<path d="M78.4325 75.1351H75.2974V78.3784H78.4325V75.1351Z" fill="black"/>
<path d="M81.5675 75.1351H78.4324V78.3784H81.5675V75.1351Z" fill="black"/>
<path d="M84.7028 75.1351H81.5676V78.3784H84.7028V75.1351Z" fill="black"/>
<path d="M87.8378 75.1351H84.7026V78.3784H87.8378V75.1351Z" fill="black"/>
<path d="M97.2433 75.1351H94.1082V78.3784H97.2433V75.1351Z" fill="black"/>
<path d="M103.514 75.1351H100.378V78.3784H103.514V75.1351Z" fill="black"/>
<path d="M109.784 75.1351H106.649V78.3784H109.784V75.1351Z" fill="black"/>
<path d="M112.919 75.1351H109.784V78.3784H112.919V75.1351Z" fill="black"/>
<path d="M116.054 75.1351H112.919V78.3784H116.054V75.1351Z" fill="black"/>
<path d="M31.4054 78.3783H28.2703V81.6215H31.4054V78.3783Z" fill="black"/>
<path d="M34.5407 78.3783H31.4055V81.6215H34.5407V78.3783Z" fill="black"/>
<path d="M40.8109 78.3783H37.6758V81.6215H40.8109V78.3783Z" fill="black"/>
<path d="M43.9459 78.3783H40.8108V81.6215H43.9459V78.3783Z" fill="black"/>
<path d="M47.0812 78.3783H43.946V81.6215H47.0812V78.3783Z" fill="black"/>
<path d="M50.2162 78.3783H47.0811V81.6215H50.2162V78.3783Z" fill="black"/>
<path d="M56.4865 78.3783H53.3513V81.6215H56.4865V78.3783Z" fill="black"/>
<path d="M59.6217 78.3783H56.4866V81.6215H59.6217V78.3783Z" fill="black"/>
<path d="M69.027 78.3783H65.8918V81.6215H69.027V78.3783Z" fill="black"/>
<path d="M84.7028 78.3783H81.5676V81.6215H84.7028V78.3783Z" fill="black"/>
<path d="M87.8378 78.3783H84.7026V81.6215H87.8378V78.3783Z" fill="black"/>
<path d="M90.973 78.3783H87.8379V81.6215H90.973V78.3783Z" fill="black"/>
<path d="M94.108 78.3783H90.9729V81.6215H94.108V78.3783Z" fill="black"/>
<path d="M97.2433 78.3783H94.1082V81.6215H97.2433V78.3783Z" fill="black"/>
<path d="M100.378 78.3783H97.2432V81.6215H100.378V78.3783Z" fill="black"/>
<path d="M106.649 78.3783H103.513V81.6215H106.649V78.3783Z" fill="black"/>
<path d="M112.919 78.3783H109.784V81.6215H112.919V78.3783Z" fill="black"/>
<path d="M119.189 78.3783H116.054V81.6215H119.189V78.3783Z" fill="black"/>
<path d="M122.324 78.3783H119.189V81.6215H122.324V78.3783Z" fill="black"/>
<path d="M128.595 78.3783H125.459V81.6215H128.595V78.3783Z" fill="black"/>
<path d="M31.4054 81.6216H28.2703V84.8648H31.4054V81.6216Z" fill="black"/>
<path d="M34.5407 81.6216H31.4055V84.8648H34.5407V81.6216Z" fill="black"/>
<path d="M43.9459 81.6216H40.8108V84.8648H43.9459V81.6216Z" fill="black"/>
<path d="M47.0812 81.6216H43.946V84.8648H47.0812V81.6216Z" fill="black"/>
<path d="M53.3514 81.6216H50.2163V84.8648H53.3514V81.6216Z" fill="black"/>
<path d="M56.4865 81.6216H53.3513V84.8648H56.4865V81.6216Z" fill="black"/>
<path d="M59.6217 81.6216H56.4866V84.8648H59.6217V81.6216Z" fill="black"/>
<path d="M62.7567 81.6216H59.6216V84.8648H62.7567V81.6216Z" fill="black"/>
<path d="M78.4325 81.6216H75.2974V84.8648H78.4325V81.6216Z" fill="black"/>
<path d="M81.5675 81.6216H78.4324V84.8648H81.5675V81.6216Z" fill="black"/>
<path d="M87.8378 81.6216H84.7026V84.8648H87.8378V81.6216Z" fill="black"/>
<path d="M94.108 81.6216H90.9729V84.8648H94.108V81.6216Z" fill="black"/>
<path d="M100.378 81.6216H97.2432V84.8648H100.378V81.6216Z" fill="black"/>
<path d="M103.514 81.6216H100.378V84.8648H103.514V81.6216Z" fill="black"/>
<path d="M106.649 81.6216H103.513V84.8648H106.649V81.6216Z" fill="black"/>
<path d="M122.324 81.6216H119.189V84.8648H122.324V81.6216Z" fill="black"/>
<path d="M125.459 81.6216H122.324V84.8648H125.459V81.6216Z" fill="black"/>
<path d="M128.595 81.6216H125.459V84.8648H128.595V81.6216Z" fill="black"/>
<path d="M31.4054 84.8649H28.2703V88.1081H31.4054V84.8649Z" fill="black"/>
<path d="M37.6757 84.8649H34.5405V88.1081H37.6757V84.8649Z" fill="black"/>
<path d="M40.8109 84.8649H37.6758V88.1081H40.8109V84.8649Z" fill="black"/>
<path d="M43.9459 84.8649H40.8108V88.1081H43.9459V84.8649Z" fill="black"/>
<path d="M50.2162 84.8649H47.0811V88.1081H50.2162V84.8649Z" fill="black"/>
<path d="M53.3514 84.8649H50.2163V88.1081H53.3514V84.8649Z" fill="black"/>
<path d="M62.7567 84.8649H59.6216V88.1081H62.7567V84.8649Z" fill="black"/>
<path d="M69.027 84.8649H65.8918V88.1081H69.027V84.8649Z" fill="black"/>
<path d="M72.1622 84.8649H69.0271V88.1081H72.1622V84.8649Z" fill="black"/>
<path d="M78.4325 84.8649H75.2974V88.1081H78.4325V84.8649Z" fill="black"/>
<path d="M81.5675 84.8649H78.4324V88.1081H81.5675V84.8649Z" fill="black"/>
<path d="M84.7028 84.8649H81.5676V88.1081H84.7028V84.8649Z" fill="black"/>
<path d="M94.108 84.8649H90.9729V88.1081H94.108V84.8649Z" fill="black"/>
<path d="M97.2433 84.8649H94.1082V88.1081H97.2433V84.8649Z" fill="black"/>
<path d="M100.378 84.8649H97.2432V88.1081H100.378V84.8649Z" fill="black"/>
<path d="M103.514 84.8649H100.378V88.1081H103.514V84.8649Z" fill="black"/>
<path d="M106.649 84.8649H103.513V88.1081H106.649V84.8649Z" fill="black"/>
<path d="M109.784 84.8649H106.649V88.1081H109.784V84.8649Z" fill="black"/>
<path d="M116.054 84.8649H112.919V88.1081H116.054V84.8649Z" fill="black"/>
<path d="M122.324 84.8649H119.189V88.1081H122.324V84.8649Z" fill="black"/>
<path d="M128.595 84.8649H125.459V88.1081H128.595V84.8649Z" fill="black"/>
<path d="M34.5407 88.108H31.4055V91.3513H34.5407V88.108Z" fill="black"/>
<path d="M37.6757 88.108H34.5405V91.3513H37.6757V88.108Z" fill="black"/>
<path d="M43.9459 88.108H40.8108V91.3513H43.9459V88.108Z" fill="black"/>
<path d="M53.3514 88.108H50.2163V91.3513H53.3514V88.108Z" fill="black"/>
<path d="M62.7567 88.108H59.6216V91.3513H62.7567V88.108Z" fill="black"/>
<path d="M69.027 88.108H65.8918V91.3513H69.027V88.108Z" fill="black"/>
<path d="M72.1622 88.108H69.0271V91.3513H72.1622V88.108Z" fill="black"/>
<path d="M78.4325 88.108H75.2974V91.3513H78.4325V88.108Z" fill="black"/>
<path d="M84.7028 88.108H81.5676V91.3513H84.7028V88.108Z" fill="black"/>
<path d="M87.8378 88.108H84.7026V91.3513H87.8378V88.108Z" fill="black"/>
<path d="M94.108 88.108H90.9729V91.3513H94.108V88.108Z" fill="black"/>
<path d="M97.2433 88.108H94.1082V91.3513H97.2433V88.108Z" fill="black"/>
<path d="M106.649 88.108H103.513V91.3513H106.649V88.108Z" fill="black"/>
<path d="M109.784 88.108H106.649V91.3513H109.784V88.108Z" fill="black"/>
<path d="M112.919 88.108H109.784V91.3513H112.919V88.108Z" fill="black"/>
<path d="M116.054 88.108H112.919V91.3513H116.054V88.108Z" fill="black"/>
<path d="M128.595 88.108H125.459V91.3513H128.595V88.108Z" fill="black"/>
<path d="M31.4054 91.3513H28.2703V94.5946H31.4054V91.3513Z" fill="black"/>
<path d="M37.6757 91.3513H34.5405V94.5946H37.6757V91.3513Z" fill="black"/>
<path d="M47.0812 91.3513H43.946V94.5946H47.0812V91.3513Z" fill="black"/>
<path d="M50.2162 91.3513H47.0811V94.5946H50.2162V91.3513Z" fill="black"/>
<path d="M53.3514 91.3513H50.2163V94.5946H53.3514V91.3513Z" fill="black"/>
<path d="M59.6217 91.3513H56.4866V94.5946H59.6217V91.3513Z" fill="black"/>
<path d="M65.892 91.3513H62.7568V94.5946H65.892V91.3513Z" fill="black"/>
<path d="M72.1622 91.3513H69.0271V94.5946H72.1622V91.3513Z" fill="black"/>
<path d="M75.2972 91.3513H72.1621V94.5946H75.2972V91.3513Z" fill="black"/>
<path d="M87.8378 91.3513H84.7026V94.5946H87.8378V91.3513Z" fill="black"/>
<path d="M90.973 91.3513H87.8379V94.5946H90.973V91.3513Z" fill="black"/>
<path d="M94.108 91.3513H90.9729V94.5946H94.108V91.3513Z" fill="black"/>
<path d="M112.919 91.3513H109.784V94.5946H112.919V91.3513Z" fill="black"/>
<path d="M116.054 91.3513H112.919V94.5946H116.054V91.3513Z" fill="black"/>
<path d="M119.189 91.3513H116.054V94.5946H119.189V91.3513Z" fill="black"/>
<path d="M122.324 91.3513H119.189V94.5946H122.324V91.3513Z" fill="black"/>
<path d="M31.4054 94.5946H28.2703V97.8378H31.4054V94.5946Z" fill="black"/>
<path d="M40.8109 94.5946H37.6758V97.8378H40.8109V94.5946Z" fill="black"/>
<path d="M47.0812 94.5946H43.946V97.8378H47.0812V94.5946Z" fill="black"/>
<path d="M69.027 94.5946H65.8918V97.8378H69.027V94.5946Z" fill="black"/>
<path d="M81.5675 94.5946H78.4324V97.8378H81.5675V94.5946Z" fill="black"/>
<path d="M84.7028 94.5946H81.5676V97.8378H84.7028V94.5946Z" fill="black"/>
<path d="M90.973 94.5946H87.8379V97.8378H90.973V94.5946Z" fill="black"/>
<path d="M100.378 94.5946H97.2432V97.8378H100.378V94.5946Z" fill="black"/>
<path d="M112.919 94.5946H109.784V97.8378H112.919V94.5946Z" fill="black"/>
<path d="M122.324 94.5946H119.189V97.8378H122.324V94.5946Z" fill="black"/>
<path d="M125.459 94.5946H122.324V97.8378H125.459V94.5946Z" fill="black"/>
<path d="M128.595 94.5946H125.459V97.8378H128.595V94.5946Z" fill="black"/>
<path d="M43.9459 97.8378H40.8108V101.081H43.9459V97.8378Z" fill="black"/>
<path d="M47.0812 97.8378H43.946V101.081H47.0812V97.8378Z" fill="black"/>
<path d="M50.2162 97.8378H47.0811V101.081H50.2162V97.8378Z" fill="black"/>
<path d="M53.3514 97.8378H50.2163V101.081H53.3514V97.8378Z" fill="black"/>
<path d="M65.892 97.8378H62.7568V101.081H65.892V97.8378Z" fill="black"/>
<path d="M69.027 97.8378H65.8918V101.081H69.027V97.8378Z" fill="black"/>
<path d="M75.2972 97.8378H72.1621V101.081H75.2972V97.8378Z" fill="black"/>
<path d="M81.5675 97.8378H78.4324V101.081H81.5675V97.8378Z" fill="black"/>
<path d="M87.8378 97.8378H84.7026V101.081H87.8378V97.8378Z" fill="black"/>
<path d="M90.973 97.8378H87.8379V101.081H90.973V97.8378Z" fill="black"/>
<path d="M97.2433 97.8378H94.1082V101.081H97.2433V97.8378Z" fill="black"/>
<path d="M103.514 97.8378H100.378V101.081H103.514V97.8378Z" fill="black"/>
<path d="M106.649 97.8378H103.513V101.081H106.649V97.8378Z" fill="black"/>
<path d="M109.784 97.8378H106.649V101.081H109.784V97.8378Z" fill="black"/>
<path d="M125.459 97.8378H122.324V101.081H125.459V97.8378Z" fill="black"/>
<path d="M128.595 97.8378H125.459V101.081H128.595V97.8378Z" fill="black"/>
<path d="M40.8109 101.081H37.6758V104.324H40.8109V101.081Z" fill="black"/>
<path d="M43.9459 101.081H40.8108V104.324H43.9459V101.081Z" fill="black"/>
<path d="M47.0812 101.081H43.946V104.324H47.0812V101.081Z" fill="black"/>
<path d="M53.3514 101.081H50.2163V104.324H53.3514V101.081Z" fill="black"/>
<path d="M56.4865 101.081H53.3513V104.324H56.4865V101.081Z" fill="black"/>
<path d="M62.7567 101.081H59.6216V104.324H62.7567V101.081Z" fill="black"/>
<path d="M72.1622 101.081H69.0271V104.324H72.1622V101.081Z" fill="black"/>
<path d="M84.7028 101.081H81.5676V104.324H84.7028V101.081Z" fill="black"/>
<path d="M87.8378 101.081H84.7026V104.324H87.8378V101.081Z" fill="black"/>
<path d="M90.973 101.081H87.8379V104.324H90.973V101.081Z" fill="black"/>
<path d="M94.108 101.081H90.9729V104.324H94.108V101.081Z" fill="black"/>
<path d="M97.2433 101.081H94.1082V104.324H97.2433V101.081Z" fill="black"/>
<path d="M100.378 101.081H97.2432V104.324H100.378V101.081Z" fill="black"/>
<path d="M109.784 101.081H106.649V104.324H109.784V101.081Z" fill="black"/>
<path d="M112.919 101.081H109.784V104.324H112.919V101.081Z" fill="black"/>
<path d="M119.189 101.081H116.054V104.324H119.189V101.081Z" fill="black"/>
<path d="M122.324 101.081H119.189V104.324H122.324V101.081Z" fill="black"/>
<path d="M128.595 101.081H125.459V104.324H128.595V101.081Z" fill="black"/>
<path d="M131.73 101.081H128.594V104.324H131.73V101.081Z" fill="black"/>
<path d="M31.4054 104.324H28.2703V107.568H31.4054V104.324Z" fill="black"/>
<path d="M34.5407 104.324H31.4055V107.568H34.5407V104.324Z" fill="black"/>
<path d="M37.6757 104.324H34.5405V107.568H37.6757V104.324Z" fill="black"/>
<path d="M43.9459 104.324H40.8108V107.568H43.9459V104.324Z" fill="black"/>
<path d="M50.2162 104.324H47.0811V107.568H50.2162V104.324Z" fill="black"/>
<path d="M53.3514 104.324H50.2163V107.568H53.3514V104.324Z" fill="black"/>
<path d="M62.7567 104.324H59.6216V107.568H62.7567V104.324Z" fill="black"/>
<path d="M65.892 104.324H62.7568V107.568H65.892V104.324Z" fill="black"/>
<path d="M72.1622 104.324H69.0271V107.568H72.1622V104.324Z" fill="black"/>
<path d="M75.2972 104.324H72.1621V107.568H75.2972V104.324Z" fill="black"/>
<path d="M78.4325 104.324H75.2974V107.568H78.4325V104.324Z" fill="black"/>
<path d="M81.5675 104.324H78.4324V107.568H81.5675V104.324Z" fill="black"/>
<path d="M84.7028 104.324H81.5676V107.568H84.7028V104.324Z" fill="black"/>
<path d="M94.108 104.324H90.9729V107.568H94.108V104.324Z" fill="black"/>
<path d="M97.2433 104.324H94.1082V107.568H97.2433V104.324Z" fill="black"/>
<path d="M100.378 104.324H97.2432V107.568H100.378V104.324Z" fill="black"/>
<path d="M106.649 104.324H103.513V107.568H106.649V104.324Z" fill="black"/>
<path d="M109.784 104.324H106.649V107.568H109.784V104.324Z" fill="black"/>
<path d="M112.919 104.324H109.784V107.568H112.919V104.324Z" fill="black"/>
<path d="M116.054 104.324H112.919V107.568H116.054V104.324Z" fill="black"/>
<path d="M119.189 104.324H116.054V107.568H119.189V104.324Z" fill="black"/>
<path d="M122.324 104.324H119.189V107.568H122.324V104.324Z" fill="black"/>
<path d="M128.595 104.324H125.459V107.568H128.595V104.324Z" fill="black"/>
<path d="M56.4865 107.568H53.3513V110.811H56.4865V107.568Z" fill="black"/>
<path d="M62.7567 107.568H59.6216V110.811H62.7567V107.568Z" fill="black"/>
<path d="M65.892 107.568H62.7568V110.811H65.892V107.568Z" fill="black"/>
<path d="M72.1622 107.568H69.0271V110.811H72.1622V107.568Z" fill="black"/>
<path d="M75.2972 107.568H72.1621V110.811H75.2972V107.568Z" fill="black"/>
<path d="M78.4325 107.568H75.2974V110.811H78.4325V107.568Z" fill="black"/>
<path d="M81.5675 107.568H78.4324V110.811H81.5675V107.568Z" fill="black"/>
<path d="M84.7028 107.568H81.5676V110.811H84.7028V107.568Z" fill="black"/>
<path d="M97.2433 107.568H94.1082V110.811H97.2433V107.568Z" fill="black"/>
<path d="M100.378 107.568H97.2432V110.811H100.378V107.568Z" fill="black"/>
<path d="M103.514 107.568H100.378V110.811H103.514V107.568Z" fill="black"/>
<path d="M106.649 107.568H103.513V110.811H106.649V107.568Z" fill="black"/>
<path d="M119.189 107.568H116.054V110.811H119.189V107.568Z" fill="black"/>
<path d="M125.459 107.568H122.324V110.811H125.459V107.568Z" fill="black"/>
<path d="M56.4865 110.811H53.3513V114.054H56.4865V110.811Z" fill="black"/>
<path d="M59.6217 110.811H56.4866V114.054H59.6217V110.811Z" fill="black"/>
<path d="M62.7567 110.811H59.6216V114.054H62.7567V110.811Z" fill="black"/>
<path d="M75.2972 110.811H72.1621V114.054H75.2972V110.811Z" fill="black"/>
<path d="M78.4325 110.811H75.2974V114.054H78.4325V110.811Z" fill="black"/>
<path d="M87.8378 110.811H84.7026V114.054H87.8378V110.811Z" fill="black"/>
<path d="M106.649 110.811H103.513V114.054H106.649V110.811Z" fill="black"/>
<path d="M112.919 110.811H109.784V114.054H112.919V110.811Z" fill="black"/>
<path d="M119.189 110.811H116.054V114.054H119.189V110.811Z" fill="black"/>
<path d="M122.324 110.811H119.189V114.054H122.324V110.811Z" fill="black"/>
<path d="M65.892 114.054H62.7568V117.297H65.892V114.054Z" fill="black"/>
<path d="M75.2972 114.054H72.1621V117.297H75.2972V114.054Z" fill="black"/>
<path d="M78.4325 114.054H75.2974V117.297H78.4325V114.054Z" fill="black"/>
<path d="M81.5675 114.054H78.4324V117.297H81.5675V114.054Z" fill="black"/>
<path d="M90.973 114.054H87.8379V117.297H90.973V114.054Z" fill="black"/>
<path d="M100.378 114.054H97.2432V117.297H100.378V114.054Z" fill="black"/>
<path d="M106.649 114.054H103.513V117.297H106.649V114.054Z" fill="black"/>
<path d="M119.189 114.054H116.054V117.297H119.189V114.054Z" fill="black"/>
<path d="M131.73 114.054H128.594V117.297H131.73V114.054Z" fill="black"/>
<path d="M56.4865 117.297H53.3513V120.54H56.4865V117.297Z" fill="black"/>
<path d="M65.892 117.297H62.7568V120.54H65.892V117.297Z" fill="black"/>
<path d="M69.027 117.297H65.8918V120.54H69.027V117.297Z" fill="black"/>
<path d="M72.1622 117.297H69.0271V120.54H72.1622V117.297Z" fill="black"/>
<path d="M75.2972 117.297H72.1621V120.54H75.2972V117.297Z" fill="black"/>
<path d="M81.5675 117.297H78.4324V120.54H81.5675V117.297Z" fill="black"/>
<path d="M90.973 117.297H87.8379V120.54H90.973V117.297Z" fill="black"/>
<path d="M100.378 117.297H97.2432V120.54H100.378V117.297Z" fill="black"/>
<path d="M106.649 117.297H103.513V120.54H106.649V117.297Z" fill="black"/>
<path d="M109.784 117.297H106.649V120.54H109.784V117.297Z" fill="black"/>
<path d="M112.919 117.297H109.784V120.54H112.919V117.297Z" fill="black"/>
<path d="M116.054 117.297H112.919V120.54H116.054V117.297Z" fill="black"/>
<path d="M119.189 117.297H116.054V120.54H119.189V117.297Z" fill="black"/>
<path d="M122.324 117.297H119.189V120.54H122.324V117.297Z" fill="black"/>
<path d="M131.73 117.297H128.594V120.54H131.73V117.297Z" fill="black"/>
<path d="M59.6217 120.541H56.4866V123.784H59.6217V120.541Z" fill="black"/>
<path d="M62.7567 120.541H59.6216V123.784H62.7567V120.541Z" fill="black"/>
<path d="M69.027 120.541H65.8918V123.784H69.027V120.541Z" fill="black"/>
<path d="M72.1622 120.541H69.0271V123.784H72.1622V120.541Z" fill="black"/>
<path d="M87.8378 120.541H84.7026V123.784H87.8378V120.541Z" fill="black"/>
<path d="M90.973 120.541H87.8379V123.784H90.973V120.541Z" fill="black"/>
<path d="M94.108 120.541H90.9729V123.784H94.108V120.541Z" fill="black"/>
<path d="M103.514 120.541H100.378V123.784H103.514V120.541Z" fill="black"/>
<path d="M112.919 120.541H109.784V123.784H112.919V120.541Z" fill="black"/>
<path d="M116.054 120.541H112.919V123.784H116.054V120.541Z" fill="black"/>
<path d="M119.189 120.541H116.054V123.784H119.189V120.541Z" fill="black"/>
<path d="M122.324 120.541H119.189V123.784H122.324V120.541Z" fill="black"/>
<path d="M125.459 120.541H122.324V123.784H125.459V120.541Z" fill="black"/>
<path d="M128.595 120.541H125.459V123.784H128.595V120.541Z" fill="black"/>
<path d="M59.6217 123.784H56.4866V127.027H59.6217V123.784Z" fill="black"/>
<path d="M69.027 123.784H65.8918V127.027H69.027V123.784Z" fill="black"/>
<path d="M75.2972 123.784H72.1621V127.027H75.2972V123.784Z" fill="black"/>
<path d="M78.4325 123.784H75.2974V127.027H78.4325V123.784Z" fill="black"/>
<path d="M87.8378 123.784H84.7026V127.027H87.8378V123.784Z" fill="black"/>
<path d="M94.108 123.784H90.9729V127.027H94.108V123.784Z" fill="black"/>
<path d="M97.2433 123.784H94.1082V127.027H97.2433V123.784Z" fill="black"/>
<path d="M109.784 123.784H106.649V127.027H109.784V123.784Z" fill="black"/>
<path d="M112.919 123.784H109.784V127.027H112.919V123.784Z" fill="black"/>
<path d="M116.054 123.784H112.919V127.027H116.054V123.784Z" fill="black"/>
<path d="M119.189 123.784H116.054V127.027H119.189V123.784Z" fill="black"/>
<path d="M122.324 123.784H119.189V127.027H122.324V123.784Z" fill="black"/>
<path d="M65.892 127.027H62.7568V130.27H65.892V127.027Z" fill="black"/>
<path d="M69.027 127.027H65.8918V130.27H69.027V127.027Z" fill="black"/>
<path d="M72.1622 127.027H69.0271V130.27H72.1622V127.027Z" fill="black"/>
<path d="M78.4325 127.027H75.2974V130.27H78.4325V127.027Z" fill="black"/>
<path d="M81.5675 127.027H78.4324V130.27H81.5675V127.027Z" fill="black"/>
<path d="M84.7028 127.027H81.5676V130.27H84.7028V127.027Z" fill="black"/>
<path d="M87.8378 127.027H84.7026V130.27H87.8378V127.027Z" fill="black"/>
<path d="M97.2433 127.027H94.1082V130.27H97.2433V127.027Z" fill="black"/>
<path d="M103.514 127.027H100.378V130.27H103.514V127.027Z" fill="black"/>
<path d="M106.649 127.027H103.513V130.27H106.649V127.027Z" fill="black"/>
<path d="M112.919 127.027H109.784V130.27H112.919V127.027Z" fill="black"/>
<path d="M56.4865 130.27H53.3513V133.514H56.4865V130.27Z" fill="black"/>
<path d="M62.7567 130.27H59.6216V133.514H62.7567V130.27Z" fill="black"/>
<path d="M84.7028 130.27H81.5676V133.514H84.7028V130.27Z" fill="black"/>
<path d="M90.973 130.27H87.8379V133.514H90.973V130.27Z" fill="black"/>
<path d="M94.108 130.27H90.9729V133.514H94.108V130.27Z" fill="black"/>
<path d="M97.2433 130.27H94.1082V133.514H97.2433V130.27Z" fill="black"/>
<path d="M100.378 130.27H97.2432V133.514H100.378V130.27Z" fill="black"/>
<path d="M103.514 130.27H100.378V133.514H103.514V130.27Z" fill="black"/>
<path d="M106.649 130.27H103.513V133.514H106.649V130.27Z" fill="black"/>
<path d="M109.784 130.27H106.649V133.514H109.784V130.27Z" fill="black"/>
<path d="M112.919 130.27H109.784V133.514H112.919V130.27Z" fill="black"/>
<path d="M122.324 130.27H119.189V133.514H122.324V130.27Z" fill="black"/>
<path d="M131.73 130.27H128.594V133.514H131.73V130.27Z" fill="black"/>
<path d="M46.9243 26.4865H31.5622H28.2703V29.8919V45.7837V49.1892H31.5622H46.9243H50.2162V45.7837V29.8919V26.4865H46.9243ZM46.9243 45.7837H31.5622V29.8919H46.9243V45.7837Z" fill="black"/>
<path d="M128.438 26.4865H113.076H109.784V29.8919V45.7837V49.1892H113.076H128.438H131.73V45.7837V29.8919V26.4865H128.438ZM128.438 45.7837H113.076V29.8919H128.438V45.7837Z" fill="black"/>
<path d="M46.9243 110.811H31.5622H28.2703V114.216V130.108V133.513H31.5622H46.9243H50.2162V130.108V114.216V110.811H46.9243ZM46.9243 130.108H31.5622V114.216H46.9243V130.108Z" fill="black"/>
<path d="M43.9459 32.9729H34.5405V42.7026H43.9459V32.9729Z" fill="black"/>
<path d="M125.459 32.9729H116.054V42.7026H125.459V32.9729Z" fill="black"/>
<path d="M43.9459 117.297H34.5405V127.027H43.9459V117.297Z" fill="black"/>
</g>
<defs>
<clipPath id="clip0_500_4508">
<rect width="116" height="120" fill="white" transform="translate(22 20)"/>
</clipPath>
</defs>
</svg>
