<svg width="37" height="36" viewBox="0 0 37 36" fill="none" xmlns="http://www.w3.org/2000/svg">
<g clip-path="url(#clip0_441_9966)">
<path d="M36.6676 18C36.6676 27.9408 28.6084 36 18.6667 36H18.633C8.70736 35.9814 0.666748 27.9275 0.666748 18C0.666748 8.07254 8.70736 0.0177419 18.633 0H18.6667C28.6084 0 36.6676 8.05658 36.6676 18Z" fill="black"/>
<path d="M18.633 0V36C8.70735 35.9814 0.666748 27.9275 0.666748 18C0.666748 8.07254 8.70735 0.0177419 18.633 0Z" fill="#0C0C0C"/>
<path d="M28.4611 13.0172L28.4389 16.7049C27.7203 16.6961 27.0054 16.6002 26.3099 16.4192C25.2369 16.1389 24.2249 15.6629 23.3249 15.015C23.3249 15.392 23.3302 15.9544 23.3302 16.6384C23.3302 17.5485 23.3302 18.0657 23.3249 18.6148C23.3089 22.007 23.3932 22.6635 23.0951 24.0048C23.0331 24.3282 22.9483 24.6469 22.8414 24.9584C22.2683 26.5552 21.0193 27.8344 19.7463 28.5148C19.3911 28.7036 19.0182 28.8572 18.633 28.9734C16.2272 29.7026 13.3362 29.0621 11.8441 27.2879L11.8343 27.2773L11.8228 27.2622C10.5551 25.7328 10.2784 23.3483 10.2518 22.738C10.2518 22.6599 10.2464 22.5837 10.2464 22.5837C10.2269 21.7499 10.3468 20.9188 10.6013 20.1246C10.8585 19.3032 11.7057 17.5884 13.6085 16.547C14.7953 15.9077 16.1498 15.6485 17.4887 15.8045L17.4452 19.5365C17.3698 19.517 15.5468 19.085 14.3501 20.3269C13.2661 21.4517 13.3362 23.2641 14.1053 24.2904C14.1461 24.3454 14.1896 24.3986 14.2348 24.4483C14.665 24.9282 15.2106 25.1083 15.5788 25.2343C16.0669 25.3951 16.5792 25.4702 17.093 25.4561C17.6434 25.4475 18.1788 25.2755 18.6312 24.9619C19.882 24.1121 20.0506 22.5987 20.0568 22.5127C20.0414 17.6408 20.0269 12.7689 20.0133 7.89694V7.89251L22.3579 7.85081H22.3961L22.7358 7.8446C22.9864 8.7462 23.411 9.59003 23.9857 10.3285C24.1668 10.5594 24.3624 10.7787 24.5712 10.9849C25.3602 11.7529 26.308 12.3385 27.3478 12.7006H27.3549C27.7156 12.8324 28.0853 12.9382 28.4611 13.0172Z" fill="#FD2854"/>
<path d="M27.401 14.6858H27.3939C26.1313 14.8881 24.8387 14.7899 23.6211 14.3993C22.7709 14.1228 21.9728 13.7064 21.2597 13.1671C21.6873 15.7517 21.6873 18.3889 21.2597 20.9735C20.7532 24.0109 20.4356 25.9146 18.7403 27.1326C18.7049 27.1583 18.6685 27.184 18.6321 27.208C16.2911 28.7932 13.0204 28.0064 11.8219 27.2603L11.8042 27.2497L11.7705 27.2284C11.3754 26.9667 11.0049 26.6698 10.6634 26.3413C10.0512 25.7474 9.56265 25.0382 9.22601 24.2545C8.88937 23.4709 8.71128 22.6283 8.70201 21.7754C8.67923 20.892 8.82587 20.0125 9.13402 19.1842C9.33362 18.652 10.0752 16.7589 12.1413 15.6066C13.4642 14.8812 14.9929 14.6225 16.4809 14.8721C16.475 15.1678 16.4694 15.4635 16.4641 15.7592V15.7654L16.4295 17.6372C15.7819 17.4846 15.1126 17.4473 14.4521 17.5272C13.9199 17.5928 13.3983 17.654 12.8438 18.0026C12.1338 18.4597 11.6312 19.1769 11.444 20.0004C11.3255 20.3992 11.3013 20.8201 11.373 21.2299C11.3943 21.347 11.5505 22.1604 12.2069 22.7441C12.4278 22.9402 12.5218 22.9482 12.8438 23.2489C13.1277 23.515 13.1987 23.6428 13.4586 23.8637C13.4586 23.8637 13.5225 23.9178 13.6271 23.9941C13.6339 23.9999 13.641 24.0052 13.6484 24.01C13.7916 24.1147 13.9419 24.2093 14.0982 24.293C14.7484 24.6336 15.9123 24.67 16.7657 24.2557C17.9464 23.6818 18.5904 22.3618 18.5878 21.5776C18.5736 16.7039 18.5591 11.8305 18.5443 6.95745H18.6259L22.247 6.93616C22.2444 7.21861 22.2836 7.4999 22.3632 7.77091C22.3721 7.80018 22.381 7.82768 22.3907 7.85962C22.4005 7.89156 22.4067 7.90664 22.4147 7.92881C22.4709 8.07623 22.5357 8.2202 22.609 8.35994L22.6595 8.46196V8.46994C22.6587 8.47224 22.6587 8.47474 22.6595 8.47704L22.6675 8.49389L22.6755 8.50986C22.6803 8.52018 22.6856 8.53024 22.6915 8.54002C22.6968 8.55155 22.703 8.56308 22.7092 8.57462C22.7429 8.63937 22.789 8.72454 22.8414 8.82034C22.8742 8.87978 22.9088 8.93921 22.9443 8.99776L22.9824 9.06074C23.001 9.09268 23.0206 9.12461 23.0401 9.15566L23.111 9.26832C23.3869 9.70389 23.8713 10.4375 24.5579 10.9919C25.5231 11.7708 26.6319 11.9908 27.3274 12.0565C27.3318 12.2747 27.3372 12.4929 27.3416 12.7111C27.3676 13.3699 27.3874 14.0282 27.401 14.6858Z" fill="#24F6FA"/>
<path d="M27.4125 15.7281C25.5846 15.7952 23.79 15.2269 22.3339 14.1198V21.9263C22.3162 22.2252 22.0545 25.5225 19.0756 27.3375C18.9284 27.4262 18.7802 27.5087 18.6321 27.585C15.8297 29.015 13.0913 27.8946 12.8207 27.7784C12.5517 27.6905 12.2939 27.5714 12.0525 27.4236C11.9771 27.3766 11.9035 27.3278 11.8334 27.2772L11.7704 27.2302C9.94299 25.8428 9.86759 23.0165 9.85606 22.5996C9.83653 21.7658 9.95646 20.9347 10.2109 20.1405C10.5125 19.178 11.4129 17.5556 13.2181 16.5629C14.2142 16.0208 15.3337 15.7458 16.4676 15.7645V15.7707C16.4528 16.7081 16.438 17.6457 16.4232 18.5837C16.2325 18.5322 15.0633 18.2377 13.9207 18.9572C13.2106 19.4142 12.7081 20.1314 12.5209 20.9549C12.4089 21.3545 12.3847 21.7737 12.4499 22.1835C12.5512 22.6896 12.79 23.158 13.1401 23.5372C13.2872 23.7067 13.4516 23.8604 13.6306 23.9958C13.6374 24.0017 13.6445 24.007 13.6519 24.0118C13.7925 24.1203 13.9431 24.215 14.1017 24.2948L14.107 24.2992C14.424 24.7779 14.8813 25.1469 15.4161 25.3555C15.951 25.5642 16.5373 25.6024 17.0947 25.4649C17.3544 25.4107 17.6067 25.3255 17.8461 25.2112C18.1361 25.0733 18.4018 24.8893 18.633 24.6665C19.5307 23.8033 19.662 22.6093 19.6682 22.5375L19.6292 7.91019L20.0195 7.90221L22.3641 7.85608H22.3978C22.4067 7.87914 22.4164 7.90221 22.4262 7.92527C22.4803 8.05567 22.545 8.20027 22.6204 8.3564L22.671 8.45842V8.4664C22.6702 8.4687 22.6702 8.4712 22.671 8.4735L22.679 8.49035L22.687 8.50632C22.6918 8.51664 22.6971 8.5267 22.7029 8.53648C22.7083 8.54801 22.7145 8.55954 22.7207 8.57108C22.7615 8.65091 22.8094 8.73341 22.8529 8.8168C22.8857 8.87624 22.9203 8.93567 22.9558 8.99422L22.9939 9.0572L23.0516 9.15212L23.1225 9.26478C23.5283 9.89943 24.0147 10.4788 24.5694 10.9884C25.3789 11.7296 26.3209 12.3116 27.346 12.704H27.3531C27.3646 13.3614 27.3762 14.0205 27.3868 14.6778L27.4125 15.7281Z" fill="white"/>
<path opacity="0.17" d="M28.4612 13.0172L28.439 16.7048C27.7204 16.696 27.0055 16.6001 26.31 16.4192C25.237 16.1389 24.225 15.6628 23.3249 15.0149C23.3249 15.3919 23.3302 15.9543 23.3302 16.6383C23.3302 17.5484 23.3302 18.0656 23.3249 18.6147C23.3089 22.007 23.3932 22.6634 23.0951 24.0047C23.0331 24.3282 22.9483 24.6468 22.8414 24.9583C22.2684 26.5551 21.0193 27.8343 19.7464 28.5147C19.3911 28.7035 19.0182 28.8571 18.6331 28.9733V6.95745L22.2542 6.93616C22.2516 7.21861 22.2907 7.4999 22.3704 7.77091C22.3793 7.80018 22.3881 7.82768 22.3979 7.85962L22.7376 7.85341C22.9882 8.75501 23.4128 9.59883 23.9876 10.3373C24.1686 10.5682 24.3642 10.7875 24.573 10.9937C25.5382 11.7726 26.6471 11.9926 27.3425 12.0582C27.347 12.2765 27.3523 12.4947 27.3567 12.7129C27.7172 12.8404 28.0863 12.9421 28.4612 13.0172Z" fill="black"/>
</g>
<defs>
<clipPath id="clip0_441_9966">
<rect width="36" height="36" fill="white" transform="translate(0.666748)"/>
</clipPath>
</defs>
</svg>
