<svg width="37" height="36" viewBox="0 0 37 36" fill="none" xmlns="http://www.w3.org/2000/svg">
<g clip-path="url(#clip0_441_9954)">
<path d="M18.8333 -0.00561523C8.89163 -0.00561523 0.833252 8.05276 0.833252 17.9944C0.833252 27.9349 8.89163 35.9944 18.8333 35.9944C28.7749 35.9944 36.8333 27.9349 36.8333 17.9944C36.8333 8.05276 28.7749 -0.00561523 18.8333 -0.00561523Z" fill="#E02F2F"/>
<path d="M21.0788 22.0139C21.0046 22.0139 20.9326 22.0297 20.8606 22.0645C20.7897 22.0983 20.7188 22.1523 20.6479 22.2243V25.4857C20.7312 25.5689 20.8133 25.6342 20.8921 25.6702C20.9708 25.7073 21.0529 25.7264 21.1407 25.7264C21.2667 25.7264 21.3589 25.6904 21.4174 25.615C21.4759 25.5419 21.5074 25.4238 21.5074 25.255V22.5528C21.5074 22.3762 21.4703 22.2412 21.3983 22.1512C21.3252 22.0589 21.2172 22.0139 21.0788 22.0139Z" fill="white"/>
<path d="M24.627 22.0331C24.4627 22.0331 24.3457 22.0792 24.2737 22.1771C24.2028 22.2693 24.168 22.4268 24.168 22.6462V23.175H25.0781V22.6462C25.0781 22.4268 25.041 22.2693 24.969 22.1771C24.8992 22.0792 24.7833 22.0331 24.627 22.0331Z" fill="white"/>
<path d="M26.7972 17.9572C25.9512 17.1135 18.83 17.1022 18.83 17.1022C18.83 17.1011 11.7087 17.1123 10.8616 17.9561C10.0145 18.8021 10.0122 22.9758 10.0122 22.9995C10.0122 23.031 10.0145 27.198 10.8616 28.044C11.7087 28.8877 18.83 28.9057 18.83 28.9057C18.83 28.9057 25.9523 28.8877 26.7972 28.044C27.6477 27.1957 27.6556 22.9995 27.6556 22.9995C27.6556 22.977 27.6455 18.8032 26.7972 17.9572ZM15.4437 20.4176H14.2445V26.4813H13.0846V20.4176H11.8842V19.3871H15.4426V20.4176H15.4437ZM18.8333 26.4802H17.8062V25.9053C17.615 26.118 17.4181 26.28 17.2111 26.3902C17.0052 26.5027 16.8061 26.5567 16.6137 26.5567C16.3752 26.5567 16.1986 26.4802 16.076 26.3227C15.9578 26.1663 15.896 25.9346 15.896 25.6218V21.2456H16.9242V25.2596C16.9242 25.3845 16.9456 25.4733 16.9872 25.5296C17.0322 25.5858 17.1031 25.6128 17.1987 25.6128C17.2741 25.6128 17.3708 25.5768 17.4867 25.5015C17.6026 25.4283 17.7083 25.335 17.8062 25.2213V21.2456H18.8333V26.4802ZM22.5672 25.3991C22.5672 25.7692 22.4862 26.0527 22.3253 26.2507C22.1656 26.4487 21.9305 26.5466 21.6256 26.5466C21.4231 26.5466 21.2442 26.5106 21.0878 26.433C20.9303 26.3565 20.7818 26.2406 20.648 26.0786V26.4802H19.6085V19.386H20.648V21.6708C20.7875 21.5111 20.9337 21.3885 21.089 21.3075C21.2465 21.2242 21.404 21.1826 21.5637 21.1826C21.89 21.1826 22.1386 21.294 22.3096 21.5156C22.4828 21.7395 22.5672 22.0657 22.5672 22.4943V25.3991ZM26.1357 23.9906H24.1681V24.975C24.1681 25.2506 24.2018 25.4418 24.2682 25.5487C24.338 25.6556 24.4527 25.7073 24.617 25.7073C24.7868 25.7073 24.9061 25.6623 24.9747 25.5723C25.0422 25.4823 25.0782 25.2843 25.0782 24.975V24.7365H26.1368V25.0053C26.1368 25.542 26.0086 25.9458 25.7498 26.2192C25.4933 26.4903 25.1075 26.6242 24.5956 26.6242C24.1355 26.6242 23.771 26.4813 23.5066 26.1933C23.2422 25.9065 23.1083 25.5116 23.1083 25.0065V22.6563C23.1083 22.2041 23.2557 21.8317 23.546 21.5471C23.8362 21.2613 24.2108 21.1185 24.6721 21.1185C25.1435 21.1185 25.5057 21.2512 25.7588 21.5156C26.012 21.78 26.1368 22.1602 26.1368 22.6563V23.9906H26.1357Z" fill="white"/>
<path d="M24.6226 14.9073H23.4639V14.2706C23.2524 14.5046 23.0296 14.6846 22.7979 14.8061C22.5673 14.9287 22.3434 14.9906 22.1263 14.9906C21.8563 14.9906 21.656 14.904 21.521 14.733C21.386 14.5608 21.3174 14.3043 21.3174 13.9601V9.14172H22.4739V13.5618C22.4739 13.698 22.5009 13.797 22.5493 13.8577C22.5965 13.9196 22.6764 13.95 22.7844 13.95C22.8688 13.95 22.9768 13.9095 23.1073 13.8285C23.2366 13.7475 23.357 13.644 23.4639 13.518V9.14172H24.6226V14.9073Z" fill="white"/>
<path d="M19.9189 9.41511C19.6118 9.13611 19.218 8.99548 18.7388 8.99548C18.2134 8.99548 17.7927 9.12823 17.4822 9.39261C17.1694 9.65698 17.013 10.0125 17.0142 10.4602V13.4482C17.0142 13.9387 17.1672 14.328 17.4698 14.6182C17.7747 14.9074 18.1808 15.0525 18.687 15.0525C19.2147 15.0525 19.6264 14.9119 19.929 14.6317C20.2283 14.3505 20.3779 13.9646 20.3779 13.4719V10.4929C20.3768 10.0541 20.2238 9.69411 19.9189 9.41511ZM19.1967 13.5585C19.1967 13.7115 19.1505 13.833 19.0583 13.923C18.9649 14.0107 18.8412 14.0546 18.6848 14.0546C18.5307 14.0546 18.4125 14.0119 18.3315 13.9252C18.2494 13.8375 18.2067 13.716 18.2067 13.5585V10.4175C18.2067 10.2915 18.2517 10.1891 18.3394 10.1115C18.4283 10.0339 18.543 9.99561 18.6848 9.99561C18.8367 9.99561 18.9604 10.0339 19.0549 10.1115C19.1494 10.1891 19.1967 10.2915 19.1967 10.4175V13.5585Z" fill="white"/>
<path d="M13.8587 7.09314H12.5447L14.0972 11.8114V14.9074H15.4022V11.6651L16.9198 7.09314H15.5934L14.7879 10.2161H14.7058L13.8587 7.09314Z" fill="white"/>
</g>
<defs>
<clipPath id="clip0_441_9954">
<rect width="36" height="36" fill="white" transform="translate(0.833252)"/>
</clipPath>
</defs>
</svg>
